<svg xmlns="http://www.w3.org/2000/svg" xmlns:xlink="http://www.w3.org/1999/xlink" width="100" zoomAndPan="magnify" viewBox="0 0 75 74.999997" height="100" preserveAspectRatio="xMidYMid meet" version="1.0"><defs><clipPath id="50bb460d85"><path d="M 3.75 17 L 15 17 L 15 65 L 3.75 65 Z M 3.75 17 " clip-rule="nonzero"/></clipPath><clipPath id="127f69806e"><path d="M 42 0.757812 L 53 0.757812 L 53 65 L 42 65 Z M 42 0.757812 " clip-rule="nonzero"/></clipPath><clipPath id="21601cbaa8"><path d="M 60 8 L 71.25 8 L 71.25 59 L 60 59 Z M 60 8 " clip-rule="nonzero"/></clipPath><clipPath id="97556404cb"><path d="M 3.75 17 L 15 17 L 15 65 L 3.75 65 Z M 3.75 17 " clip-rule="nonzero"/></clipPath><clipPath id="a148d91685"><path d="M 42 0.757812 L 53 0.757812 L 53 65 L 42 65 Z M 42 0.757812 " clip-rule="nonzero"/></clipPath><clipPath id="316d63cdfc"><path d="M 60 8 L 71.25 8 L 71.25 59 L 60 59 Z M 60 8 " clip-rule="nonzero"/></clipPath><clipPath id="dacbf554ad"><path d="M 3.75 17 L 15 17 L 15 65 L 3.75 65 Z M 3.75 17 " clip-rule="nonzero"/></clipPath><clipPath id="3b5fecf954"><path d="M 42 0.757812 L 53 0.757812 L 53 65 L 42 65 Z M 42 0.757812 " clip-rule="nonzero"/></clipPath><clipPath id="8eb6453727"><path d="M 60 8 L 71.25 8 L 71.25 59 L 60 59 Z M 60 8 " clip-rule="nonzero"/></clipPath><clipPath id="29f0ed986e"><path d="M 3.75 0.757812 L 53 0.757812 L 53 65 L 3.75 65 Z M 3.75 0.757812 " clip-rule="nonzero"/></clipPath><clipPath id="7475546d0a"><path d="M 23 8 L 71.25 8 L 71.25 75 L 23 75 Z M 23 8 " clip-rule="nonzero"/></clipPath></defs><path fill="#cee0f8" d="M 28.945312 25.324219 L 27.429688 25.324219 L 27.429688 34.570312 L 23.15625 34.570312 L 23.15625 63.957031 L 27.429688 63.957031 L 27.429688 74.996094 L 28.945312 74.996094 L 28.945312 63.957031 L 33.503906 63.957031 L 33.503906 34.570312 L 28.945312 34.570312 Z M 28.945312 25.324219 " fill-opacity="1" fill-rule="nonzero"/><g clip-path="url(#50bb460d85)"><path fill="#cee0f8" d="M 9.566406 17.179688 L 8.035156 17.179688 L 8.035156 26.488281 L 3.765625 26.488281 L 3.765625 53.808594 L 8.035156 53.808594 L 8.035156 64.847656 L 9.566406 64.847656 L 9.566406 53.808594 L 14.109375 53.808594 L 14.109375 26.488281 L 9.566406 26.488281 Z M 9.566406 17.179688 " fill-opacity="1" fill-rule="nonzero"/></g><g clip-path="url(#127f69806e)"><path fill="#cee0f8" d="M 48.398438 0.757812 L 46.882812 0.757812 L 46.882812 11.105469 L 42.613281 11.105469 L 42.613281 53.808594 L 46.882812 53.808594 L 46.882812 64.847656 L 48.398438 64.847656 L 48.398438 53.808594 L 52.960938 53.808594 L 52.960938 11.105469 L 48.398438 11.105469 Z M 48.398438 0.757812 " fill-opacity="1" fill-rule="nonzero"/></g><g clip-path="url(#21601cbaa8)"><path fill="#cee0f8" d="M 71.234375 17.914062 L 66.691406 17.914062 L 66.691406 8.667969 L 65.175781 8.667969 L 65.175781 17.914062 L 60.890625 17.914062 L 60.890625 47.304688 L 65.175781 47.304688 L 65.175781 58.339844 L 66.691406 58.339844 L 66.691406 47.304688 L 71.234375 47.304688 Z M 71.234375 17.914062 " fill-opacity="1" fill-rule="nonzero"/></g><path fill="#cee0f8" d="M 28.945312 25.324219 L 27.429688 25.324219 L 27.429688 34.570312 L 23.15625 34.570312 L 23.15625 63.957031 L 27.429688 63.957031 L 27.429688 74.996094 L 28.945312 74.996094 L 28.945312 63.957031 L 33.503906 63.957031 L 33.503906 34.570312 L 28.945312 34.570312 Z M 28.945312 25.324219 " fill-opacity="1" fill-rule="nonzero"/><g clip-path="url(#97556404cb)"><path fill="#cee0f8" d="M 9.566406 17.179688 L 8.035156 17.179688 L 8.035156 26.488281 L 3.765625 26.488281 L 3.765625 53.808594 L 8.035156 53.808594 L 8.035156 64.847656 L 9.566406 64.847656 L 9.566406 53.808594 L 14.109375 53.808594 L 14.109375 26.488281 L 9.566406 26.488281 Z M 9.566406 17.179688 " fill-opacity="1" fill-rule="nonzero"/></g><g clip-path="url(#a148d91685)"><path fill="#cee0f8" d="M 48.398438 0.757812 L 46.882812 0.757812 L 46.882812 11.105469 L 42.613281 11.105469 L 42.613281 53.808594 L 46.882812 53.808594 L 46.882812 64.847656 L 48.398438 64.847656 L 48.398438 53.808594 L 52.960938 53.808594 L 52.960938 11.105469 L 48.398438 11.105469 Z M 48.398438 0.757812 " fill-opacity="1" fill-rule="nonzero"/></g><g clip-path="url(#316d63cdfc)"><path fill="#cee0f8" d="M 71.234375 17.914062 L 66.691406 17.914062 L 66.691406 8.667969 L 65.175781 8.667969 L 65.175781 17.914062 L 60.890625 17.914062 L 60.890625 47.304688 L 65.175781 47.304688 L 65.175781 58.339844 L 66.691406 58.339844 L 66.691406 47.304688 L 71.234375 47.304688 Z M 71.234375 17.914062 " fill-opacity="1" fill-rule="nonzero"/></g><path fill="#cee0f8" d="M 28.945312 25.324219 L 27.429688 25.324219 L 27.429688 34.570312 L 23.15625 34.570312 L 23.15625 63.957031 L 27.429688 63.957031 L 27.429688 74.996094 L 28.945312 74.996094 L 28.945312 63.957031 L 33.503906 63.957031 L 33.503906 34.570312 L 28.945312 34.570312 Z M 28.945312 25.324219 " fill-opacity="1" fill-rule="nonzero"/><g clip-path="url(#dacbf554ad)"><path fill="#cee0f8" d="M 9.566406 17.179688 L 8.035156 17.179688 L 8.035156 26.488281 L 3.765625 26.488281 L 3.765625 53.808594 L 8.035156 53.808594 L 8.035156 64.847656 L 9.566406 64.847656 L 9.566406 53.808594 L 14.109375 53.808594 L 14.109375 26.488281 L 9.566406 26.488281 Z M 9.566406 17.179688 " fill-opacity="1" fill-rule="nonzero"/></g><g clip-path="url(#3b5fecf954)"><path fill="#cee0f8" d="M 48.398438 0.757812 L 46.882812 0.757812 L 46.882812 11.105469 L 42.613281 11.105469 L 42.613281 53.808594 L 46.882812 53.808594 L 46.882812 64.847656 L 48.398438 64.847656 L 48.398438 53.808594 L 52.960938 53.808594 L 52.960938 11.105469 L 48.398438 11.105469 Z M 48.398438 0.757812 " fill-opacity="1" fill-rule="nonzero"/></g><g clip-path="url(#8eb6453727)"><path fill="#cee0f8" d="M 71.234375 17.914062 L 66.691406 17.914062 L 66.691406 8.667969 L 65.175781 8.667969 L 65.175781 17.914062 L 60.890625 17.914062 L 60.890625 47.304688 L 65.175781 47.304688 L 65.175781 58.339844 L 66.691406 58.339844 L 66.691406 47.304688 L 71.234375 47.304688 Z M 71.234375 17.914062 " fill-opacity="1" fill-rule="nonzero"/></g><g clip-path="url(#29f0ed986e)"><path fill="#cee0f8" d="M 9.566406 26.488281 L 14.109375 26.488281 L 14.109375 53.808594 L 9.566406 53.808594 L 9.566406 64.847656 L 8.050781 64.847656 L 8.050781 53.808594 L 3.765625 53.808594 L 3.765625 26.488281 L 8.035156 26.488281 L 8.035156 17.164062 L 9.550781 17.164062 L 9.550781 26.488281 Z M 48.398438 0.757812 L 46.882812 0.757812 L 46.882812 11.105469 L 42.613281 11.105469 L 42.613281 53.808594 L 46.882812 53.808594 L 46.882812 64.847656 L 48.398438 64.847656 L 48.398438 53.808594 L 52.945312 53.808594 L 52.945312 11.105469 L 48.398438 11.105469 Z M 48.398438 0.757812 " fill-opacity="1" fill-rule="nonzero"/></g><g clip-path="url(#7475546d0a)"><path fill="#cee0f8" d="M 28.945312 34.570312 L 33.488281 34.570312 L 33.488281 63.957031 L 28.945312 63.957031 L 28.945312 74.996094 L 27.429688 74.996094 L 27.429688 63.957031 L 23.15625 63.957031 L 23.15625 34.570312 L 27.429688 34.570312 L 27.429688 25.324219 L 28.945312 25.324219 Z M 71.234375 17.914062 L 66.691406 17.914062 L 66.691406 8.667969 L 65.175781 8.667969 L 65.175781 17.914062 L 60.902344 17.914062 L 60.902344 47.304688 L 65.175781 47.304688 L 65.175781 58.339844 L 66.691406 58.339844 L 66.691406 47.304688 L 71.234375 47.304688 Z M 71.234375 17.914062 " fill-opacity="1" fill-rule="nonzero"/></g></svg>