<svg width="24" height="24" viewBox="0 0 24 24" fill="none" xmlns="http://www.w3.org/2000/svg">
<path d="M10.0004 14.675C10.0001 14.6544 10 14.6338 10 14.6131C10 12.1048 12.0165 9.99491 14.7529 9.38019C14.3894 7.078 11.9592 5.19922 8.9 5.19922C5.57939 5.19922 3 7.41271 3 9.97857C3 10.948 3.36033 11.8793 4.03984 12.6774C4.07182 12.715 4.12345 12.771 4.19244 12.842C4.78439 13.451 5.13611 14.245 5.19448 15.0798C5.90759 14.6676 6.74187 14.5116 7.55734 14.6385C7.72318 14.6643 7.85888 14.684 7.96247 14.6975C8.27013 14.7376 8.58321 14.7579 8.9 14.7579C9.27727 14.7579 9.64497 14.7294 10.0004 14.675ZM10.4571 16.6263C9.95369 16.7126 9.43301 16.7579 8.9 16.7579C8.49343 16.7579 8.09404 16.7316 7.70401 16.6808C7.58214 16.6649 7.43072 16.6429 7.24975 16.6147C6.87595 16.5565 6.49338 16.6314 6.17032 16.8261L4.26555 17.9738C4.11954 18.0639 3.94793 18.105 3.77635 18.0909C3.33716 18.0547 3.0108 17.6737 3.04739 17.2398L3.19761 15.4589C3.23566 15.0079 3.07566 14.5625 2.75833 14.236C2.66084 14.1357 2.58042 14.0484 2.51704 13.974C1.56308 12.8535 1 11.4725 1 9.97857C1 6.23444 4.53695 3.19922 8.9 3.19922C12.9591 3.19922 16.3031 5.82626 16.7494 9.20715C20.1215 9.36063 22.8 11.7223 22.8 14.6131C22.8 15.8061 22.3438 16.909 21.571 17.8037C21.5196 17.8632 21.4545 17.9329 21.3755 18.013C21.1184 18.2737 20.9888 18.6294 21.0196 18.9896L21.1413 20.4118C21.171 20.7583 20.9066 21.0625 20.5508 21.0914C20.4118 21.1027 20.2728 21.0699 20.1545 20.9979L18.6114 20.0814C18.3496 19.9259 18.0397 19.8661 17.7369 19.9126C17.5903 19.9351 17.4676 19.9526 17.3689 19.9653C17.0529 20.0059 16.7293 20.027 16.4 20.027C13.7064 20.027 11.4015 18.6194 10.4571 16.6263ZM17.4336 17.9357C18.0009 17.8487 18.5783 17.9103 19.1095 18.1104C19.2482 17.5496 19.5363 17.0297 19.9514 16.6087C20.0017 16.5578 20.0378 16.5191 20.0574 16.4964C20.5457 15.9311 20.8 15.2832 20.8 14.6131C20.8 12.8088 18.8973 11.1993 16.4 11.1993C13.9027 11.1993 12 12.8088 12 14.6131C12 16.4174 13.9027 18.027 16.4 18.027C16.6414 18.027 16.8799 18.0117 17.114 17.9816C17.1947 17.9713 17.3019 17.9559 17.4336 17.9357Z" fill="#7D7C8C"/>
</svg>
