<svg xmlns="http://www.w3.org/2000/svg" xmlns:xlink="http://www.w3.org/1999/xlink" width="200" zoomAndPan="magnify" viewBox="0 0 150 149.999998" height="200" preserveAspectRatio="xMidYMid meet" version="1.0"><path fill="#d9d9d9" d="M 75 30.851562 C 60.851562 30.851562 49.300781 42.351562 49.300781 56.5 C 49.300781 70.699219 60.851562 82.199219 75 82.199219 C 89.148438 82.199219 100.699219 70.699219 100.699219 56.5 C 100.699219 42.351562 89.148438 30.851562 75 30.851562 Z M 75 30.851562 " fill-opacity="1" fill-rule="nonzero"/><path fill="#d9d9d9" d="M 74.949219 0.0507812 C 33.648438 0.0507812 0 33.648438 0 75 C 0 98 10.449219 118.601562 26.800781 132.351562 C 26.800781 132.351562 26.800781 132.351562 26.800781 132.398438 C 39.851562 143.351562 56.648438 149.949219 74.949219 149.949219 C 101.050781 149.949219 124.851562 136.75 138.648438 114.601562 C 146.101562 102.699219 150 89.050781 150 75 C 150 60.949219 146.101562 47.25 138.648438 35.398438 C 124.851562 13.25 101.050781 0.0507812 74.949219 0.0507812 Z M 130.199219 109.300781 C 127.800781 113.148438 125 116.550781 121.949219 119.75 C 114.351562 104.148438 98.199219 93.75 80.351562 93.75 L 69.648438 93.75 C 57.25 93.75 45.601562 98.601562 36.851562 107.351562 C 33.199219 110.949219 30.300781 115.199219 28.050781 119.800781 C 16.898438 108.148438 10 92.398438 10 75 C 10 39.199219 39.148438 10.050781 74.949219 10.050781 C 97.601562 10.050781 118.199219 21.5 130.199219 40.699219 C 136.601562 51 140 62.851562 140 75 C 140 87.148438 136.601562 99 130.199219 109.300781 Z M 130.199219 109.300781 " fill-opacity="1" fill-rule="nonzero"/></svg>