<svg xmlns="http://www.w3.org/2000/svg" xmlns:xlink="http://www.w3.org/1999/xlink" width="100" zoomAndPan="magnify" viewBox="0 0 75 74.999997" height="100" preserveAspectRatio="xMidYMid meet" version="1.0"><defs><clipPath id="9589f90700"><path d="M 2.484375 0 L 72.234375 0 L 72.234375 63 L 2.484375 63 Z M 2.484375 0 " clip-rule="nonzero"/></clipPath></defs><g clip-path="url(#9589f90700)"><path fill="#cee0f8" d="M 70.433594 6.046875 L 61.042969 6.046875 L 61.042969 2.339844 C 61.046875 0.773438 60.429688 0.160156 58.867188 0.160156 L 15.84375 0.160156 C 14.28125 0.160156 13.664062 0.773438 13.664062 2.339844 L 13.664062 6.046875 L 4.566406 6.046875 C 3.066406 6.046875 2.476562 6.636719 2.476562 8.140625 L 2.476562 8.3125 C 2.957031 20.457031 10.980469 30.742188 23.132812 35.09375 C 25.75 38.964844 28.957031 42.371094 32.847656 45.167969 C 32.363281 52.484375 29.78125 57.582031 25.699219 62.339844 C 25.386719 62.703125 25.371094 62.996094 25.996094 62.996094 L 48.714844 62.996094 C 49.339844 62.996094 49.324219 62.703125 49.011719 62.339844 C 44.929688 57.582031 42.347656 52.484375 41.859375 45.167969 C 45.710938 42.402344 48.886719 39.039062 51.488281 35.222656 C 63.851562 30.953125 72.039062 20.582031 72.523438 8.3125 L 72.523438 8.140625 C 72.527344 6.636719 71.933594 6.046875 70.433594 6.046875 Z M 7.089844 10.839844 C 7.054688 10.601562 7.121094 10.40625 7.464844 10.40625 L 14.140625 10.40625 C 15.167969 16.90625 16.871094 23.058594 19.449219 28.574219 C 12.730469 24.59375 8.21875 18.21875 7.089844 10.839844 Z M 67.910156 10.839844 C 66.757812 18.363281 62.09375 24.839844 55.15625 28.800781 C 57.796875 23.230469 59.53125 16.996094 60.566406 10.40625 L 67.535156 10.40625 C 67.878906 10.40625 67.945312 10.601562 67.910156 10.839844 Z M 67.910156 10.839844 " fill-opacity="1" fill-rule="nonzero"/></g><path fill="#cee0f8" d="M 54.796875 65.175781 L 19.914062 65.175781 C 18.46875 65.175781 17.734375 65.910156 17.734375 67.355469 L 17.734375 72.660156 C 17.734375 74.105469 18.46875 74.839844 19.914062 74.839844 L 54.796875 74.839844 C 56.242188 74.839844 56.976562 74.105469 56.976562 72.660156 L 56.976562 67.355469 C 56.976562 65.910156 56.238281 65.175781 54.796875 65.175781 Z M 54.796875 65.175781 " fill-opacity="1" fill-rule="nonzero"/></svg>