<svg xmlns="http://www.w3.org/2000/svg" xmlns:xlink="http://www.w3.org/1999/xlink" width="100" zoomAndPan="magnify" viewBox="0 0 75 74.999997" height="100" preserveAspectRatio="xMidYMid meet" version="1.0"><defs><clipPath id="3e6b5dd4d3"><path d="M 2.316406 36 L 72.816406 36 L 72.816406 69 L 2.316406 69 Z M 2.316406 36 " clip-rule="nonzero"/></clipPath></defs><g clip-path="url(#3e6b5dd4d3)"><path fill="#cee0f8" d="M 49.929688 36.042969 C 46.230469 38.953125 41.570312 40.695312 36.507812 40.695312 C 31.570312 40.695312 27.011719 39.039062 23.355469 36.257812 C 11.429688 38.183594 2.316406 48.523438 2.316406 60.996094 C 2.316406 74.84375 13.542969 65.84375 27.386719 65.84375 L 47.609375 65.84375 C 61.453125 65.84375 72.675781 74.84375 72.675781 60.996094 C 72.675781 47.9375 62.6875 37.214844 49.929688 36.042969 Z M 49.929688 36.042969 " fill-opacity="1" fill-rule="nonzero"/></g><path fill="#cee0f8" d="M 36.507812 37.777344 C 46.890625 37.777344 55.339844 29.328125 55.339844 18.941406 C 55.339844 8.554688 46.890625 0.105469 36.507812 0.105469 C 26.121094 0.105469 17.671875 8.554688 17.671875 18.941406 C 17.671875 29.328125 26.121094 37.777344 36.507812 37.777344 Z M 36.507812 37.777344 " fill-opacity="1" fill-rule="nonzero"/></svg>