<svg width="24" height="24" viewBox="0 0 24 24" fill="none" xmlns="http://www.w3.org/2000/svg">
<path d="M17.0037 16.0039H19.0037V4.00391H9.00371V6.00391H17.0037V16.0039ZM17.0037 18.0039V21.003C17.0037 21.5558 16.5537 22.0039 15.9968 22.0039H4.01057C3.45451 22.0039 3.00391 21.5593 3.00391 21.003L3.00651 7.00478C3.00662 6.45201 3.45655 6.00391 4.01333 6.00391H7.00371V3.00391C7.00371 2.45162 7.45143 2.00391 8.00371 2.00391H20.0037C20.556 2.00391 21.0037 2.45162 21.0037 3.00391V17.0039C21.0037 17.5562 20.556 18.0039 20.0037 18.0039H17.0037ZM5.00633 8.00391L5.0041 20.0039H15.0037V8.00391H5.00633ZM7.00371 16.0039H11.5037C11.7798 16.0039 12.0037 15.78 12.0037 15.5039C12.0037 15.2278 11.7798 15.0039 11.5037 15.0039H8.50371C7.123 15.0039 6.00371 13.8846 6.00371 12.5039C6.00371 11.1232 7.123 10.0039 8.50371 10.0039H9.00371V9.00391H11.0037V10.0039H13.0037V12.0039H8.50371C8.22757 12.0039 8.00371 12.2278 8.00371 12.5039C8.00371 12.78 8.22757 13.0039 8.50371 13.0039H11.5037C12.8844 13.0039 14.0037 14.1232 14.0037 15.5039C14.0037 16.8846 12.8844 18.0039 11.5037 18.0039H11.0037V19.0039H9.00371V18.0039H7.00371V16.0039Z" fill="#7D7C8C"/>
</svg>
