<svg xmlns="http://www.w3.org/2000/svg" xmlns:xlink="http://www.w3.org/1999/xlink" width="200" zoomAndPan="magnify" viewBox="0 0 150 149.999998" height="200" preserveAspectRatio="xMidYMid meet" version="1.0"><path fill="#d9d9d9" d="M 82.886719 86.394531 L 82.886719 97.203125 L 106.554688 97.203125 L 106.554688 86.394531 L 100.125 86.394531 L 100.125 58.636719 L 106.554688 58.636719 L 106.554688 47.828125 L 82.886719 47.828125 L 82.886719 58.636719 L 89.609375 58.636719 L 89.609375 86.394531 Z M 82.886719 86.394531 " fill-opacity="1" fill-rule="nonzero"/><path fill="#d9d9d9" d="M 75.585938 97.203125 L 75.585938 66.035156 C 75.585938 56.066406 67.585938 47.953125 57.617188 47.953125 C 47.644531 47.953125 39.648438 56.066406 39.648438 66.035156 L 39.648438 97.203125 L 50.164062 97.203125 L 50.164062 83.179688 L 65.359375 83.179688 L 65.359375 97.203125 Z M 50.164062 72.953125 L 50.164062 66.035156 C 50.164062 61.824219 53.550781 58.402344 57.761719 58.402344 C 61.96875 58.402344 65.359375 61.824219 65.359375 66.035156 L 65.359375 72.953125 Z M 50.164062 72.953125 " fill-opacity="1" fill-rule="nonzero"/><path fill="#d9d9d9" d="M 129.167969 120.035156 C 134.105469 107.273438 131.671875 95.636719 122.367188 85.734375 C 120.644531 93.367188 117.125 100.316406 112.277344 106.121094 C 110.195312 114.105469 108.117188 122.089844 106.039062 130.074219 C 105.171875 133.410156 104.304688 136.746094 103.414062 140.179688 C 103.742188 140.210938 103.832031 140.234375 103.921875 140.226562 C 104.105469 140.210938 104.292969 140.1875 104.472656 140.152344 C 116.296875 137.855469 124.847656 131.210938 129.167969 120.035156 Z M 129.167969 120.035156 " fill-opacity="1" fill-rule="nonzero"/><path fill="#d9d9d9" d="M 116.078125 49.09375 C 120.085938 55.4375 122.664062 62.773438 123.363281 70.648438 C 127.539062 77.765625 131.714844 84.878906 135.890625 91.992188 C 137.636719 94.964844 139.382812 97.9375 141.179688 100.996094 C 141.433594 100.785156 141.515625 100.738281 141.574219 100.667969 C 141.691406 100.527344 141.804688 100.382812 141.910156 100.230469 C 148.648438 90.242188 149.996094 79.5 145.148438 68.539062 C 139.613281 56.027344 129.660156 49.515625 116.078125 49.09375 Z M 116.078125 49.09375 " fill-opacity="1" fill-rule="nonzero"/><path fill="#d9d9d9" d="M 140.179688 46.585938 C 140.210938 46.257812 140.234375 46.164062 140.226562 46.074219 C 140.210938 45.890625 140.1875 45.707031 140.152344 45.527344 C 137.855469 33.703125 131.210938 25.152344 120.035156 20.828125 C 107.273438 15.894531 95.636719 18.328125 85.730469 27.632812 C 93.363281 29.355469 100.316406 32.875 106.117188 37.722656 C 114.101562 39.800781 122.085938 41.882812 130.074219 43.957031 C 133.410156 44.828125 136.746094 45.695312 140.179688 46.585938 Z M 140.179688 46.585938 " fill-opacity="1" fill-rule="nonzero"/><path fill="#d9d9d9" d="M 100.667969 8.425781 C 100.527344 8.308594 100.382812 8.191406 100.230469 8.089844 C 90.242188 1.351562 79.5 0.00390625 68.539062 4.851562 C 56.027344 10.382812 49.515625 20.339844 49.09375 33.921875 C 55.4375 29.914062 62.773438 27.335938 70.648438 26.636719 C 77.761719 22.460938 84.878906 18.285156 91.992188 14.109375 C 94.964844 12.363281 97.9375 10.617188 100.996094 8.820312 C 100.785156 8.5625 100.738281 8.484375 100.667969 8.425781 Z M 100.667969 8.425781 " fill-opacity="1" fill-rule="nonzero"/><path fill="#d9d9d9" d="M 37.722656 43.882812 C 39.800781 35.898438 41.882812 27.914062 43.957031 19.925781 C 44.828125 16.589844 45.695312 13.253906 46.585938 9.820312 C 46.257812 9.789062 46.164062 9.765625 46.074219 9.773438 C 45.890625 9.789062 45.707031 9.8125 45.527344 9.847656 C 33.703125 12.144531 25.152344 18.789062 20.828125 29.964844 C 15.894531 42.726562 18.328125 54.363281 27.632812 64.265625 C 29.355469 56.636719 32.875 49.683594 37.722656 43.882812 Z M 37.722656 43.882812 " fill-opacity="1" fill-rule="nonzero"/><path fill="#d9d9d9" d="M 33.921875 100.902344 C 29.914062 94.558594 27.335938 87.226562 26.636719 79.351562 C 22.460938 72.234375 18.285156 65.121094 14.109375 58.003906 C 12.363281 55.03125 10.617188 52.0625 8.820312 49 C 8.5625 49.214844 8.484375 49.261719 8.425781 49.332031 C 8.308594 49.472656 8.191406 49.617188 8.089844 49.769531 C 1.351562 59.757812 0.00390625 70.5 4.851562 81.460938 C 10.382812 93.972656 20.339844 100.480469 33.921875 100.902344 Z M 33.921875 100.902344 " fill-opacity="1" fill-rule="nonzero"/><path fill="#d9d9d9" d="M 29.964844 129.171875 C 42.726562 134.105469 54.367188 131.671875 64.269531 122.367188 C 56.636719 120.648438 49.6875 117.128906 43.882812 112.28125 C 35.898438 110.199219 27.914062 108.121094 19.925781 106.042969 C 16.589844 105.175781 13.253906 104.308594 9.820312 103.414062 C 9.789062 103.746094 9.765625 103.835938 9.773438 103.925781 C 9.789062 104.109375 9.8125 104.292969 9.847656 104.476562 C 12.144531 116.300781 18.789062 124.847656 29.964844 129.171875 Z M 29.964844 129.171875 " fill-opacity="1" fill-rule="nonzero"/><path fill="#d9d9d9" d="M 49 141.179688 C 49.214844 141.4375 49.261719 141.515625 49.332031 141.574219 C 49.472656 141.691406 49.617188 141.808594 49.769531 141.910156 C 59.757812 148.648438 70.5 149.996094 81.457031 145.148438 C 93.972656 139.613281 100.480469 129.660156 100.902344 116.078125 C 94.558594 120.085938 87.226562 122.664062 79.351562 123.363281 C 72.234375 127.539062 65.121094 131.714844 58.003906 135.890625 C 55.03125 137.636719 52.0625 139.382812 49 141.179688 Z M 49 141.179688 " fill-opacity="1" fill-rule="nonzero"/></svg>