<svg xmlns="http://www.w3.org/2000/svg" xmlns:xlink="http://www.w3.org/1999/xlink" width="100" zoomAndPan="magnify" viewBox="0 0 75 74.999997" height="100" preserveAspectRatio="xMidYMid meet" version="1.0"><path fill="#cee0f8" d="M 8.5 15.5 C 6.84375 15.5 5.5 16.84375 5.5 18.5 L 5.5 56.5 C 5.5 58.15625 6.84375 59.5 8.5 59.5 L 66.5 59.5 C 68.15625 59.5 69.5 58.15625 69.5 56.5 L 69.5 18.5 C 69.5 16.84375 68.15625 15.5 66.5 15.5 Z M 8.5 15.5 " fill-opacity="1" fill-rule="evenodd"/><path fill="#cee0f8" d="M 5.5 24.5 L 69.5 24.5 L 69.5 32.5 L 5.5 32.5 Z M 5.5 24.5 " fill-opacity="1" fill-rule="evenodd"/><path fill="#cee0f8" d="M 12.5 38.5 L 28.5 38.5 L 28.5 44.5 L 12.5 44.5 Z M 12.5 38.5 " fill-opacity="1" fill-rule="evenodd"/><path fill="#cee0f8" d="M 12.5 48.5 L 46.5 48.5 L 46.5 54.5 L 12.5 54.5 Z M 12.5 48.5 " fill-opacity="1" fill-rule="evenodd"/></svg>
