<svg xmlns="http://www.w3.org/2000/svg" xmlns:xlink="http://www.w3.org/1999/xlink" width="100" zoomAndPan="magnify" viewBox="0 0 75 74.999997" height="100" preserveAspectRatio="xMidYMid meet" version="1.0"><path fill="#cee0f8" d="M 42.183594 34.3125 C 42.183594 34.566406 42.230469 34.808594 42.328125 35.042969 C 42.425781 35.277344 42.5625 35.484375 42.742188 35.664062 C 42.917969 35.84375 43.125 35.980469 43.359375 36.078125 C 43.59375 36.175781 43.835938 36.222656 44.089844 36.222656 C 44.34375 36.222656 44.585938 36.175781 44.820312 36.078125 C 45.054688 35.980469 45.257812 35.84375 45.4375 35.664062 C 45.617188 35.484375 45.753906 35.277344 45.851562 35.042969 C 45.949219 34.808594 45.996094 34.566406 45.996094 34.3125 C 45.972656 33.863281 45.910156 33.414062 45.8125 32.972656 C 45.710938 32.53125 45.574219 32.101562 45.398438 31.683594 C 45.226562 31.265625 45.019531 30.863281 44.777344 30.480469 C 44.535156 30.097656 44.261719 29.738281 43.957031 29.402344 C 43.652344 29.066406 43.320312 28.761719 42.964844 28.480469 C 42.609375 28.203125 42.230469 27.957031 41.832031 27.742188 C 41.433594 27.527344 41.019531 27.347656 40.589844 27.207031 C 40.15625 27.0625 39.71875 26.957031 39.273438 26.890625 L 39.273438 24.773438 C 39.273438 24.519531 39.222656 24.277344 39.125 24.042969 C 39.03125 23.808594 38.890625 23.605469 38.714844 23.425781 C 38.535156 23.246094 38.328125 23.109375 38.09375 23.011719 C 37.863281 22.914062 37.617188 22.867188 37.367188 22.867188 C 37.113281 22.867188 36.871094 22.914062 36.636719 23.011719 C 36.402344 23.109375 36.195312 23.246094 36.019531 23.425781 C 35.839844 23.605469 35.703125 23.808594 35.605469 24.042969 C 35.507812 24.277344 35.460938 24.519531 35.460938 24.773438 L 35.460938 26.898438 C 35.011719 26.964844 34.574219 27.070312 34.144531 27.214844 C 33.714844 27.355469 33.300781 27.535156 32.898438 27.75 C 32.5 27.964844 32.121094 28.210938 31.765625 28.488281 C 31.410156 28.769531 31.078125 29.074219 30.773438 29.410156 C 30.472656 29.746094 30.199219 30.105469 29.953125 30.488281 C 29.710938 30.871094 29.503906 31.273438 29.332031 31.691406 C 29.15625 32.109375 29.019531 32.539062 28.921875 32.980469 C 28.820312 33.421875 28.757812 33.871094 28.734375 34.320312 C 28.757812 34.773438 28.820312 35.222656 28.921875 35.664062 C 29.019531 36.105469 29.15625 36.535156 29.332031 36.953125 C 29.503906 37.371094 29.714844 37.769531 29.957031 38.152344 C 30.199219 38.535156 30.472656 38.894531 30.773438 39.230469 C 31.078125 39.566406 31.410156 39.875 31.765625 40.152344 C 32.125 40.433594 32.5 40.679688 32.898438 40.894531 C 33.300781 41.109375 33.714844 41.285156 34.144531 41.429688 C 34.574219 41.574219 35.011719 41.679688 35.460938 41.746094 L 35.460938 49.21875 C 35.0625 49.121094 34.691406 48.960938 34.347656 48.746094 C 34.003906 48.527344 33.699219 48.261719 33.4375 47.949219 C 33.175781 47.632812 32.96875 47.289062 32.820312 46.910156 C 32.667969 46.53125 32.578125 46.136719 32.550781 45.730469 C 32.550781 45.476562 32.503906 45.234375 32.40625 45 C 32.3125 44.765625 32.171875 44.558594 31.996094 44.382812 C 31.816406 44.203125 31.609375 44.066406 31.375 43.96875 C 31.140625 43.871094 30.898438 43.824219 30.648438 43.824219 C 30.394531 43.824219 30.152344 43.871094 29.917969 43.96875 C 29.683594 44.066406 29.476562 44.203125 29.296875 44.382812 C 29.121094 44.558594 28.980469 44.765625 28.886719 45 C 28.789062 45.234375 28.742188 45.476562 28.742188 45.730469 C 28.765625 46.183594 28.824219 46.628906 28.925781 47.070312 C 29.023438 47.511719 29.164062 47.941406 29.335938 48.359375 C 29.507812 48.777344 29.71875 49.179688 29.960938 49.5625 C 30.203125 49.945312 30.476562 50.304688 30.78125 50.640625 C 31.085938 50.976562 31.414062 51.28125 31.769531 51.5625 C 32.128906 51.839844 32.507812 52.085938 32.90625 52.300781 C 33.304688 52.515625 33.71875 52.695312 34.148438 52.835938 C 34.578125 52.980469 35.015625 53.085938 35.464844 53.15625 L 35.464844 55.269531 C 35.464844 55.523438 35.511719 55.765625 35.609375 56 C 35.707031 56.234375 35.84375 56.4375 36.023438 56.617188 C 36.203125 56.796875 36.40625 56.933594 36.640625 57.03125 C 36.875 57.128906 37.117188 57.175781 37.371094 57.175781 C 37.625 57.175781 37.867188 57.128906 38.101562 57.03125 C 38.332031 56.933594 38.539062 56.796875 38.71875 56.617188 C 38.898438 56.4375 39.035156 56.234375 39.132812 56 C 39.226562 55.765625 39.277344 55.523438 39.277344 55.269531 L 39.277344 53.15625 C 39.722656 53.085938 40.164062 52.980469 40.59375 52.835938 C 41.023438 52.695312 41.4375 52.515625 41.835938 52.300781 C 42.234375 52.085938 42.613281 51.839844 42.96875 51.5625 C 43.328125 51.28125 43.65625 50.976562 43.960938 50.640625 C 44.265625 50.304688 44.539062 49.945312 44.78125 49.5625 C 45.023438 49.179688 45.230469 48.777344 45.40625 48.359375 C 45.578125 47.941406 45.714844 47.511719 45.816406 47.070312 C 45.914062 46.628906 45.976562 46.183594 46 45.730469 C 45.976562 45.277344 45.914062 44.828125 45.816406 44.386719 C 45.714844 43.945312 45.578125 43.515625 45.40625 43.097656 C 45.230469 42.679688 45.023438 42.277344 44.78125 41.898438 C 44.539062 41.515625 44.265625 41.15625 43.960938 40.820312 C 43.65625 40.484375 43.328125 40.175781 42.96875 39.898438 C 42.613281 39.617188 42.234375 39.371094 41.835938 39.15625 C 41.4375 38.941406 41.023438 38.765625 40.59375 38.621094 C 40.164062 38.476562 39.722656 38.371094 39.277344 38.304688 L 39.277344 30.832031 C 39.671875 30.929688 40.042969 31.085938 40.386719 31.304688 C 40.734375 31.519531 41.035156 31.785156 41.296875 32.097656 C 41.558594 32.410156 41.765625 32.757812 41.917969 33.136719 C 42.066406 33.515625 42.15625 33.90625 42.183594 34.3125 Z M 35.460938 37.804688 C 35.0625 37.707031 34.691406 37.546875 34.347656 37.328125 C 34.003906 37.113281 33.699219 36.847656 33.4375 36.53125 C 33.175781 36.21875 32.972656 35.871094 32.820312 35.492188 C 32.667969 35.113281 32.578125 34.722656 32.550781 34.3125 C 32.578125 33.90625 32.667969 33.511719 32.816406 33.132812 C 32.96875 32.753906 33.175781 32.40625 33.4375 32.09375 C 33.699219 31.78125 34 31.515625 34.347656 31.296875 C 34.691406 31.082031 35.0625 30.921875 35.460938 30.824219 Z M 42.183594 45.722656 C 42.15625 46.128906 42.070312 46.523438 41.917969 46.902344 C 41.765625 47.28125 41.558594 47.628906 41.300781 47.941406 C 41.039062 48.253906 40.734375 48.519531 40.390625 48.738281 C 40.042969 48.953125 39.671875 49.113281 39.277344 49.214844 L 39.277344 42.230469 C 39.671875 42.332031 40.042969 42.488281 40.386719 42.707031 C 40.734375 42.921875 41.035156 43.1875 41.296875 43.503906 C 41.558594 43.816406 41.765625 44.160156 41.917969 44.539062 C 42.066406 44.917969 42.15625 45.3125 42.183594 45.71875 Z M 42.183594 45.722656 " fill-opacity="1" fill-rule="evenodd"/><path fill="#cee0f8" d="M 54.523438 0 C 53.164062 0 51.828125 0.179688 50.515625 0.535156 C 49.203125 0.894531 47.960938 1.417969 46.789062 2.105469 C 45.617188 2.796875 44.554688 3.628906 43.605469 4.601562 C 42.65625 5.574219 41.851562 6.65625 41.191406 7.847656 C 40.007812 7.707031 38.816406 7.628906 37.621094 7.621094 C 36.425781 7.613281 35.234375 7.667969 34.042969 7.792969 C 32.855469 7.914062 31.675781 8.105469 30.507812 8.355469 C 29.339844 8.609375 28.191406 8.929688 27.058594 9.308594 C 25.925781 9.6875 24.816406 10.132812 23.730469 10.636719 C 22.648438 11.136719 21.59375 11.699219 20.574219 12.320312 C 19.550781 12.941406 18.566406 13.613281 17.621094 14.34375 C 16.671875 15.074219 15.769531 15.851562 14.90625 16.679688 C 14.046875 17.511719 13.234375 18.382812 12.46875 19.304688 C 11.707031 20.222656 10.996094 21.179688 10.335938 22.179688 C 9.679688 23.175781 9.078125 24.207031 8.535156 25.273438 C 7.988281 26.335938 7.507812 27.425781 7.082031 28.546875 C 6.660156 29.664062 6.300781 30.800781 6.003906 31.957031 C 5.707031 33.117188 5.472656 34.285156 5.304688 35.46875 C 5.136719 36.652344 5.035156 37.84375 5 39.039062 C 4.964844 40.230469 4.996094 41.425781 5.089844 42.617188 C 5.1875 43.808594 5.347656 44.988281 5.574219 46.164062 C 5.804688 47.335938 6.09375 48.496094 6.449219 49.636719 C 6.804688 50.777344 7.222656 51.894531 7.699219 52.988281 C 8.179688 54.085938 8.71875 55.152344 9.316406 56.1875 C 9.910156 57.222656 10.5625 58.222656 11.269531 59.183594 C 11.980469 60.148438 12.738281 61.070312 13.546875 61.949219 C 14.355469 62.828125 15.210938 63.660156 16.113281 64.445312 C 17.015625 65.230469 17.957031 65.960938 18.941406 66.640625 C 19.921875 67.320312 20.941406 67.945312 21.992188 68.511719 C 23.042969 69.082031 24.125 69.589844 25.230469 70.039062 C 26.339844 70.484375 27.46875 70.871094 28.621094 71.195312 C 29.769531 71.515625 30.933594 71.777344 32.113281 71.96875 C 33.292969 72.164062 34.480469 72.292969 35.675781 72.355469 C 36.867188 72.417969 38.0625 72.414062 39.253906 72.34375 C 40.449219 72.277344 41.632812 72.140625 42.8125 71.941406 C 43.988281 71.738281 45.152344 71.476562 46.300781 71.144531 C 47.453125 70.816406 48.578125 70.425781 49.683594 69.96875 C 50.789062 69.515625 51.867188 69.003906 52.914062 68.429688 C 53.964844 67.855469 54.976562 67.226562 55.957031 66.539062 C 56.9375 65.855469 57.875 65.117188 58.769531 64.328125 C 59.667969 63.539062 60.519531 62.703125 61.324219 61.816406 C 62.128906 60.933594 62.882812 60.007812 63.585938 59.042969 C 64.289062 58.074219 64.933594 57.070312 65.523438 56.03125 C 66.117188 54.992188 66.648438 53.925781 67.121094 52.828125 C 67.59375 51.730469 68.003906 50.609375 68.355469 49.464844 C 68.703125 48.324219 68.988281 47.164062 69.207031 45.988281 C 69.429688 44.816406 69.585938 43.632812 69.675781 42.441406 C 69.765625 41.25 69.789062 40.054688 69.746094 38.859375 C 69.703125 37.667969 69.59375 36.476562 69.421875 35.296875 C 69.246094 34.113281 69.007812 32.941406 68.703125 31.789062 C 68.402344 30.632812 68.035156 29.496094 67.605469 28.378906 C 67.175781 27.265625 66.6875 26.175781 66.136719 25.113281 C 67.078125 24.007812 67.847656 22.789062 68.441406 21.460938 C 69.035156 20.128906 69.429688 18.746094 69.625 17.304688 C 69.820312 15.863281 69.8125 14.421875 69.597656 12.984375 C 69.382812 11.546875 68.96875 10.164062 68.359375 8.84375 C 67.746094 7.523438 66.964844 6.316406 66.007812 5.21875 C 65.050781 4.125 63.957031 3.183594 62.734375 2.398438 C 61.507812 1.617188 60.195312 1.019531 58.800781 0.613281 C 57.402344 0.203125 55.976562 0 54.523438 0 Z M 37.371094 68.601562 C 36.441406 68.59375 35.511719 68.539062 34.585938 68.4375 C 33.660156 68.339844 32.742188 68.195312 31.832031 68.007812 C 30.921875 67.816406 30.023438 67.585938 29.132812 67.308594 C 28.246094 67.03125 27.371094 66.710938 26.515625 66.347656 C 25.660156 65.984375 24.820312 65.582031 24.003906 65.140625 C 23.183594 64.695312 22.390625 64.210938 21.621094 63.691406 C 20.851562 63.167969 20.105469 62.609375 19.390625 62.015625 C 18.675781 61.421875 17.988281 60.796875 17.335938 60.132812 C 16.679688 59.472656 16.058594 58.78125 15.472656 58.058594 C 14.882812 57.339844 14.332031 56.589844 13.820312 55.8125 C 13.304688 55.039062 12.828125 54.238281 12.394531 53.417969 C 11.957031 52.59375 11.5625 51.753906 11.207031 50.894531 C 10.851562 50.035156 10.542969 49.15625 10.273438 48.265625 C 10.003906 47.375 9.78125 46.472656 9.601562 45.5625 C 9.417969 44.648438 9.285156 43.730469 9.195312 42.800781 C 9.101562 41.875 9.058594 40.949219 9.058594 40.019531 C 9.058594 39.085938 9.101562 38.160156 9.195312 37.234375 C 9.285156 36.308594 9.417969 35.386719 9.601562 34.472656 C 9.78125 33.5625 10.003906 32.660156 10.273438 31.769531 C 10.542969 30.878906 10.851562 30.003906 11.207031 29.140625 C 11.5625 28.28125 11.957031 27.441406 12.394531 26.617188 C 12.828125 25.796875 13.304688 24.996094 13.820312 24.222656 C 14.332031 23.445312 14.882812 22.699219 15.472656 21.976562 C 16.058594 21.253906 16.679688 20.5625 17.335938 19.902344 C 17.988281 19.238281 18.675781 18.613281 19.390625 18.019531 C 20.105469 17.425781 20.851562 16.867188 21.621094 16.34375 C 22.390625 15.824219 23.183594 15.339844 24.003906 14.894531 C 24.820312 14.453125 25.660156 14.050781 26.515625 13.6875 C 27.371094 13.324219 28.246094 13.003906 29.132812 12.726562 C 30.023438 12.453125 30.921875 12.21875 31.832031 12.027344 C 32.742188 11.839844 33.660156 11.695312 34.585938 11.597656 C 35.511719 11.496094 36.441406 11.441406 37.371094 11.433594 C 38.167969 11.433594 38.953125 11.46875 39.734375 11.53125 C 39.546875 12.277344 39.417969 13.035156 39.347656 13.800781 C 39.277344 14.566406 39.265625 15.335938 39.308594 16.105469 C 39.355469 16.875 39.457031 17.636719 39.617188 18.386719 C 39.777344 19.140625 39.992188 19.878906 40.265625 20.601562 C 40.535156 21.320312 40.859375 22.015625 41.238281 22.6875 C 41.617188 23.359375 42.042969 24 42.515625 24.605469 C 42.988281 25.214844 43.507812 25.78125 44.066406 26.308594 C 44.625 26.839844 45.222656 27.324219 45.855469 27.761719 C 46.488281 28.199219 47.152344 28.585938 47.84375 28.925781 C 48.535156 29.261719 49.25 29.546875 49.984375 29.777344 C 50.722656 30.007812 51.46875 30.179688 52.230469 30.296875 C 52.992188 30.414062 53.757812 30.472656 54.527344 30.472656 C 55.296875 30.472656 56.0625 30.417969 56.824219 30.300781 C 57.585938 30.1875 58.335938 30.015625 59.070312 29.785156 C 59.808594 29.558594 60.519531 29.273438 61.214844 28.9375 C 61.90625 28.601562 62.570312 28.214844 63.203125 27.777344 C 63.460938 28.316406 63.699219 28.867188 63.921875 29.425781 C 64.144531 29.980469 64.347656 30.542969 64.535156 31.113281 C 64.722656 31.683594 64.890625 32.257812 65.042969 32.839844 C 65.191406 33.421875 65.324219 34.003906 65.4375 34.59375 C 65.550781 35.183594 65.648438 35.773438 65.722656 36.371094 C 65.800781 36.964844 65.855469 37.5625 65.894531 38.160156 C 65.933594 38.757812 65.953125 39.355469 65.957031 39.957031 C 65.957031 40.554688 65.941406 41.15625 65.902344 41.753906 C 65.867188 42.351562 65.8125 42.949219 65.738281 43.542969 C 65.664062 44.140625 65.570312 44.730469 65.460938 45.320312 C 65.347656 45.910156 65.21875 46.496094 65.070312 47.078125 C 64.921875 47.65625 64.753906 48.234375 64.570312 48.804688 C 64.386719 49.375 64.183594 49.9375 63.964844 50.496094 C 63.746094 51.054688 63.507812 51.605469 63.253906 52.148438 C 63 52.691406 62.726562 53.226562 62.4375 53.75 C 62.152344 54.277344 61.847656 54.792969 61.527344 55.300781 C 61.207031 55.808594 60.867188 56.304688 60.515625 56.789062 C 60.164062 57.273438 59.796875 57.75 59.417969 58.210938 C 59.035156 58.671875 58.640625 59.125 58.230469 59.5625 C 57.820312 60 57.394531 60.421875 56.960938 60.832031 C 56.523438 61.246094 56.074219 61.640625 55.613281 62.023438 C 55.148438 62.40625 54.675781 62.773438 54.191406 63.128906 C 53.707031 63.480469 53.210938 63.816406 52.707031 64.140625 C 52.199219 64.460938 51.683594 64.765625 51.15625 65.054688 C 50.632812 65.34375 50.097656 65.617188 49.554688 65.875 C 49.015625 66.128906 48.464844 66.367188 47.90625 66.589844 C 47.347656 66.808594 46.785156 67.011719 46.214844 67.199219 C 45.644531 67.382812 45.070312 67.550781 44.488281 67.699219 C 43.90625 67.851562 43.324219 67.980469 42.734375 68.09375 C 42.144531 68.207031 41.554688 68.300781 40.957031 68.375 C 40.363281 68.449219 39.765625 68.507812 39.167969 68.546875 C 38.570312 68.582031 37.96875 68.601562 37.371094 68.601562 Z M 54.523438 26.675781 C 53.773438 26.675781 53.027344 26.601562 52.292969 26.457031 C 51.554688 26.3125 50.839844 26.09375 50.148438 25.804688 C 49.453125 25.519531 48.792969 25.167969 48.171875 24.75 C 47.546875 24.332031 46.96875 23.859375 46.4375 23.328125 C 45.90625 22.796875 45.433594 22.21875 45.015625 21.59375 C 44.597656 20.972656 44.246094 20.3125 43.960938 19.617188 C 43.671875 18.925781 43.453125 18.210938 43.308594 17.472656 C 43.160156 16.738281 43.089844 15.992188 43.089844 15.242188 C 43.089844 14.492188 43.160156 13.75 43.308594 13.011719 C 43.453125 12.277344 43.671875 11.5625 43.960938 10.867188 C 44.246094 10.175781 44.597656 9.515625 45.015625 8.890625 C 45.433594 8.265625 45.90625 7.6875 46.4375 7.160156 C 46.96875 6.628906 47.546875 6.152344 48.171875 5.738281 C 48.792969 5.320312 49.453125 4.96875 50.148438 4.679688 C 50.839844 4.390625 51.554688 4.175781 52.292969 4.027344 C 53.027344 3.882812 53.773438 3.808594 54.523438 3.808594 C 55.273438 3.808594 56.015625 3.882812 56.753906 4.027344 C 57.488281 4.175781 58.203125 4.390625 58.898438 4.679688 C 59.589844 4.96875 60.25 5.320312 60.875 5.738281 C 61.5 6.152344 62.078125 6.628906 62.605469 7.160156 C 63.136719 7.6875 63.613281 8.265625 64.027344 8.890625 C 64.445312 9.515625 64.796875 10.175781 65.085938 10.867188 C 65.371094 11.5625 65.589844 12.277344 65.734375 13.011719 C 65.882812 13.75 65.957031 14.492188 65.957031 15.242188 C 65.957031 15.992188 65.882812 16.738281 65.734375 17.472656 C 65.589844 18.210938 65.371094 18.925781 65.085938 19.617188 C 64.796875 20.3125 64.445312 20.972656 64.027344 21.59375 C 63.613281 22.21875 63.136719 22.796875 62.605469 23.328125 C 62.074219 23.859375 61.5 24.332031 60.875 24.75 C 60.25 25.167969 59.589844 25.519531 58.898438 25.808594 C 58.203125 26.09375 57.488281 26.3125 56.753906 26.457031 C 56.015625 26.605469 55.273438 26.679688 54.523438 26.679688 Z M 54.523438 26.675781 " fill-opacity="1" fill-rule="evenodd"/><path fill="#cee0f8" d="M 59.902344 13.050781 L 56.425781 13.050781 L 56.425781 9.570312 C 56.425781 9.316406 56.378906 9.074219 56.28125 8.839844 C 56.183594 8.605469 56.046875 8.398438 55.867188 8.21875 C 55.691406 8.039062 55.484375 7.902344 55.25 7.804688 C 55.015625 7.707031 54.773438 7.660156 54.519531 7.660156 C 54.265625 7.660156 54.023438 7.707031 53.789062 7.804688 C 53.554688 7.902344 53.351562 8.039062 53.171875 8.21875 C 52.992188 8.398438 52.855469 8.605469 52.757812 8.839844 C 52.660156 9.074219 52.613281 9.316406 52.613281 9.570312 L 52.613281 13.050781 L 49.140625 13.050781 C 48.886719 13.050781 48.644531 13.097656 48.410156 13.195312 C 48.175781 13.292969 47.972656 13.429688 47.792969 13.609375 C 47.613281 13.785156 47.476562 13.992188 47.378906 14.226562 C 47.28125 14.460938 47.234375 14.703125 47.234375 14.957031 C 47.234375 15.207031 47.28125 15.453125 47.378906 15.683594 C 47.476562 15.917969 47.613281 16.125 47.792969 16.304688 C 47.972656 16.484375 48.175781 16.621094 48.410156 16.71875 C 48.644531 16.8125 48.886719 16.863281 49.140625 16.863281 L 52.617188 16.863281 L 52.617188 20.339844 C 52.617188 20.589844 52.664062 20.832031 52.761719 21.066406 C 52.859375 21.300781 52.996094 21.503906 53.175781 21.683594 C 53.355469 21.863281 53.558594 22 53.792969 22.097656 C 54.027344 22.191406 54.269531 22.242188 54.523438 22.242188 C 54.773438 22.242188 55.019531 22.191406 55.25 22.097656 C 55.484375 22 55.691406 21.863281 55.871094 21.683594 C 56.046875 21.503906 56.1875 21.300781 56.28125 21.066406 C 56.378906 20.832031 56.429688 20.589844 56.429688 20.339844 L 56.429688 16.863281 L 59.90625 16.863281 C 60.15625 16.863281 60.398438 16.8125 60.632812 16.71875 C 60.867188 16.621094 61.074219 16.484375 61.253906 16.304688 C 61.429688 16.125 61.570312 15.917969 61.664062 15.683594 C 61.761719 15.453125 61.808594 15.207031 61.808594 14.957031 C 61.808594 14.703125 61.761719 14.460938 61.664062 14.226562 C 61.570312 13.992188 61.429688 13.785156 61.253906 13.609375 C 61.074219 13.429688 60.867188 13.292969 60.632812 13.195312 C 60.398438 13.097656 60.15625 13.050781 59.90625 13.050781 Z M 59.902344 13.050781 " fill-opacity="1" fill-rule="evenodd"/></svg>