<svg xmlns="http://www.w3.org/2000/svg" xmlns:xlink="http://www.w3.org/1999/xlink" width="100" zoomAndPan="magnify" viewBox="0 0 75 74.999997" height="100" preserveAspectRatio="xMidYMid meet" version="1.0"><defs><clipPath id="04b793cbb0"><path d="M 0 5.25 L 75 5.25 L 75 69.75 L 0 69.75 Z M 0 5.25 " clip-rule="nonzero"/></clipPath></defs><path fill="#cee0f8" d="M 44.109375 31.691406 C 44.109375 32.125 44.066406 32.554688 43.984375 32.980469 C 43.898438 33.40625 43.773438 33.820312 43.605469 34.21875 C 43.441406 34.621094 43.238281 35 42.996094 35.363281 C 42.753906 35.722656 42.480469 36.058594 42.175781 36.363281 C 41.867188 36.671875 41.535156 36.945312 41.171875 37.1875 C 40.8125 37.425781 40.429688 37.628906 40.03125 37.796875 C 39.628906 37.964844 39.214844 38.089844 38.789062 38.171875 C 38.363281 38.257812 37.933594 38.300781 37.5 38.300781 C 37.066406 38.300781 36.636719 38.257812 36.210938 38.171875 C 35.785156 38.089844 35.371094 37.964844 34.96875 37.796875 C 34.570312 37.628906 34.1875 37.425781 33.828125 37.1875 C 33.464844 36.945312 33.132812 36.671875 32.824219 36.363281 C 32.519531 36.058594 32.246094 35.722656 32.003906 35.363281 C 31.761719 35 31.558594 34.621094 31.394531 34.21875 C 31.226562 33.820312 31.101562 33.40625 31.015625 32.980469 C 30.933594 32.554688 30.890625 32.125 30.890625 31.691406 C 30.890625 31.257812 30.933594 30.824219 31.015625 30.402344 C 31.101562 29.976562 31.226562 29.5625 31.394531 29.160156 C 31.558594 28.757812 31.761719 28.378906 32.003906 28.019531 C 32.246094 27.65625 32.519531 27.324219 32.824219 27.015625 C 33.132812 26.710938 33.464844 26.433594 33.828125 26.195312 C 34.1875 25.953125 34.570312 25.75 34.96875 25.582031 C 35.371094 25.417969 35.785156 25.292969 36.210938 25.207031 C 36.636719 25.121094 37.066406 25.078125 37.5 25.078125 C 37.933594 25.078125 38.363281 25.121094 38.789062 25.207031 C 39.214844 25.292969 39.628906 25.417969 40.03125 25.582031 C 40.429688 25.75 40.8125 25.953125 41.171875 26.195312 C 41.535156 26.433594 41.867188 26.710938 42.175781 27.015625 C 42.480469 27.324219 42.753906 27.65625 42.996094 28.019531 C 43.238281 28.378906 43.441406 28.757812 43.605469 29.160156 C 43.773438 29.5625 43.898438 29.976562 43.984375 30.402344 C 44.066406 30.824219 44.109375 31.257812 44.109375 31.691406 Z M 44.109375 31.691406 " fill-opacity="1" fill-rule="nonzero"/><path fill="#cee0f8" d="M 61.738281 31.691406 C 61.738281 32.125 61.695312 32.554688 61.609375 32.980469 C 61.523438 33.40625 61.398438 33.820312 61.234375 34.21875 C 61.066406 34.621094 60.863281 35 60.625 35.363281 C 60.382812 35.722656 60.109375 36.058594 59.800781 36.363281 C 59.492188 36.671875 59.160156 36.945312 58.800781 37.1875 C 58.4375 37.425781 58.058594 37.628906 57.65625 37.796875 C 57.253906 37.964844 56.84375 38.089844 56.417969 38.171875 C 55.992188 38.257812 55.5625 38.300781 55.128906 38.300781 C 54.691406 38.300781 54.261719 38.257812 53.835938 38.171875 C 53.410156 38.089844 53 37.964844 52.597656 37.796875 C 52.195312 37.628906 51.816406 37.425781 51.453125 37.1875 C 51.09375 36.945312 50.761719 36.671875 50.453125 36.363281 C 50.144531 36.058594 49.871094 35.722656 49.628906 35.363281 C 49.390625 35 49.1875 34.621094 49.019531 34.21875 C 48.855469 33.820312 48.730469 33.40625 48.644531 32.980469 C 48.558594 32.554688 48.515625 32.125 48.515625 31.691406 C 48.515625 31.257812 48.558594 30.824219 48.644531 30.402344 C 48.730469 29.976562 48.855469 29.5625 49.019531 29.160156 C 49.1875 28.757812 49.390625 28.378906 49.628906 28.019531 C 49.871094 27.65625 50.144531 27.324219 50.453125 27.015625 C 50.761719 26.710938 51.09375 26.433594 51.453125 26.195312 C 51.816406 25.953125 52.195312 25.75 52.597656 25.582031 C 53 25.417969 53.410156 25.292969 53.835938 25.207031 C 54.261719 25.121094 54.691406 25.078125 55.128906 25.078125 C 55.5625 25.078125 55.992188 25.121094 56.417969 25.207031 C 56.84375 25.292969 57.253906 25.417969 57.65625 25.582031 C 58.058594 25.75 58.4375 25.953125 58.800781 26.195312 C 59.160156 26.433594 59.492188 26.710938 59.800781 27.015625 C 60.109375 27.324219 60.382812 27.65625 60.625 28.019531 C 60.863281 28.378906 61.066406 28.757812 61.234375 29.160156 C 61.398438 29.5625 61.523438 29.976562 61.609375 30.402344 C 61.695312 30.824219 61.738281 31.257812 61.738281 31.691406 Z M 61.738281 31.691406 " fill-opacity="1" fill-rule="nonzero"/><path fill="#cee0f8" d="M 26.484375 31.691406 C 26.484375 32.125 26.441406 32.554688 26.355469 32.980469 C 26.269531 33.40625 26.144531 33.820312 25.980469 34.21875 C 25.8125 34.621094 25.609375 35 25.371094 35.363281 C 25.128906 35.722656 24.855469 36.058594 24.546875 36.363281 C 24.238281 36.671875 23.90625 36.945312 23.546875 37.1875 C 23.183594 37.425781 22.804688 37.628906 22.402344 37.796875 C 22 37.964844 21.589844 38.089844 21.164062 38.171875 C 20.738281 38.257812 20.308594 38.300781 19.871094 38.300781 C 19.4375 38.300781 19.007812 38.257812 18.582031 38.171875 C 18.15625 38.089844 17.746094 37.964844 17.34375 37.796875 C 16.941406 37.628906 16.5625 37.425781 16.199219 37.1875 C 15.839844 36.945312 15.507812 36.671875 15.199219 36.363281 C 14.890625 36.058594 14.617188 35.722656 14.375 35.363281 C 14.136719 35 13.933594 34.621094 13.765625 34.21875 C 13.601562 33.820312 13.472656 33.40625 13.390625 32.980469 C 13.304688 32.554688 13.261719 32.125 13.261719 31.691406 C 13.261719 31.257812 13.304688 30.824219 13.390625 30.402344 C 13.472656 29.976562 13.601562 29.5625 13.765625 29.160156 C 13.933594 28.757812 14.136719 28.378906 14.375 28.019531 C 14.617188 27.65625 14.890625 27.324219 15.199219 27.015625 C 15.507812 26.710938 15.839844 26.433594 16.199219 26.195312 C 16.5625 25.953125 16.941406 25.75 17.34375 25.582031 C 17.746094 25.417969 18.15625 25.292969 18.582031 25.207031 C 19.007812 25.121094 19.4375 25.078125 19.871094 25.078125 C 20.308594 25.078125 20.738281 25.121094 21.164062 25.207031 C 21.589844 25.292969 22 25.417969 22.402344 25.582031 C 22.804688 25.75 23.183594 25.953125 23.546875 26.195312 C 23.90625 26.433594 24.238281 26.710938 24.546875 27.015625 C 24.855469 27.324219 25.128906 27.65625 25.367188 28.019531 C 25.609375 28.378906 25.8125 28.757812 25.980469 29.160156 C 26.144531 29.5625 26.269531 29.976562 26.355469 30.402344 C 26.441406 30.824219 26.484375 31.257812 26.484375 31.691406 Z M 26.484375 31.691406 " fill-opacity="1" fill-rule="nonzero"/><g clip-path="url(#04b793cbb0)"><path fill="#cee0f8" d="M 62.765625 5.25 L 12.234375 5.25 C 5.511719 5.25 0.0429688 10.71875 0.0429688 17.441406 L 0.0429688 45.9375 C 0.0429688 52.660156 5.511719 58.128906 12.234375 58.128906 L 19.871094 58.128906 L 19.871094 66.945312 C 19.871094 68.710938 21.847656 69.742188 23.296875 68.777344 L 39.269531 58.128906 L 62.765625 58.128906 C 69.488281 58.128906 74.957031 52.660156 74.957031 45.9375 L 74.957031 17.441406 C 74.957031 10.71875 69.488281 5.25 62.765625 5.25 Z M 70.550781 45.9375 C 70.550781 50.230469 67.058594 53.722656 62.765625 53.722656 L 38.601562 53.722656 C 38.167969 53.722656 37.742188 53.851562 37.378906 54.09375 L 24.28125 62.828125 L 24.28125 55.925781 C 24.28125 54.710938 23.292969 53.722656 22.078125 53.722656 L 12.234375 53.722656 C 7.941406 53.722656 4.449219 50.230469 4.449219 45.9375 L 4.449219 17.441406 C 4.449219 13.148438 7.941406 9.65625 12.234375 9.65625 L 62.765625 9.65625 C 67.058594 9.65625 70.550781 13.148438 70.550781 17.441406 Z M 70.550781 45.9375 " fill-opacity="1" fill-rule="nonzero"/></g></svg>