<svg xmlns="http://www.w3.org/2000/svg" xmlns:xlink="http://www.w3.org/1999/xlink" width="200" zoomAndPan="magnify" viewBox="0 0 150 149.999998" height="200" preserveAspectRatio="xMidYMid meet" version="1.0"><defs><filter x="0%" y="0%" width="100%" height="100%" id="8bed55ec79"><feColorMatrix values="0 0 0 0 1 0 0 0 0 1 0 0 0 0 1 0 0 0 1 0" color-interpolation-filters="sRGB"/></filter><mask id="99ab5f03d4"><g filter="url(#8bed55ec79)"><rect x="-15" width="180" fill="#000000" y="-15" height="179.999997" fill-opacity="0.05"/></g></mask><clipPath id="057c49e283"><path d="M 0.382812 0.800781 L 140 0.800781 L 140 128 L 0.382812 128 Z M 0.382812 0.800781 " clip-rule="nonzero"/></clipPath><clipPath id="2971f361e6"><path d="M 7.132812 0.800781 L 132.867188 0.800781 C 136.59375 0.800781 139.617188 3.820312 139.617188 7.550781 L 139.617188 121.25 C 139.617188 124.976562 136.59375 128 132.867188 128 L 7.132812 128 C 3.40625 128 0.382812 124.976562 0.382812 121.25 L 0.382812 7.550781 C 0.382812 3.820312 3.40625 0.800781 7.132812 0.800781 Z M 7.132812 0.800781 " clip-rule="nonzero"/></clipPath><clipPath id="b810b00e02"><path d="M 0.382812 0.800781 L 139.71875 0.800781 L 139.71875 128 L 0.382812 128 Z M 0.382812 0.800781 " clip-rule="nonzero"/></clipPath><clipPath id="14b5f539e2"><path d="M 7.132812 0.800781 L 132.867188 0.800781 C 136.59375 0.800781 139.617188 3.820312 139.617188 7.550781 L 139.617188 121.25 C 139.617188 124.976562 136.59375 128 132.867188 128 L 7.132812 128 C 3.40625 128 0.382812 124.976562 0.382812 121.25 L 0.382812 7.550781 C 0.382812 3.820312 3.40625 0.800781 7.132812 0.800781 Z M 7.132812 0.800781 " clip-rule="nonzero"/></clipPath><clipPath id="2a3a9add39"><rect x="0" width="140" y="0" height="128"/></clipPath><clipPath id="6646e84e6c"><rect x="0" width="141" y="0" height="129"/></clipPath><clipPath id="a10efaf2f0"><path d="M 50.488281 20.378906 L 73 20.378906 L 73 129.878906 L 50.488281 129.878906 Z M 50.488281 20.378906 " clip-rule="nonzero"/></clipPath><clipPath id="17144a6174"><path d="M 77 33 L 99.238281 33 L 99.238281 108 L 77 108 Z M 77 33 " clip-rule="nonzero"/></clipPath></defs><g mask="url(#99ab5f03d4)"><g transform="matrix(1, 0, 0, 1, 5, 7)"><g clip-path="url(#6646e84e6c)"><g clip-path="url(#057c49e283)"><g clip-path="url(#2971f361e6)"><g transform="matrix(1, 0, 0, 1, 0, -0.000000000000007105)"><g clip-path="url(#2a3a9add39)"><g clip-path="url(#b810b00e02)"><g clip-path="url(#14b5f539e2)"><path fill="#ffffff" d="M 0.382812 0.800781 L 139.507812 0.800781 L 139.507812 128 L 0.382812 128 Z M 0.382812 0.800781 " fill-opacity="1" fill-rule="nonzero"/></g></g></g></g></g></g></g></g></g><g clip-path="url(#a10efaf2f0)"><path fill="#ffffff" d="M 62.742188 33.578125 L 62.742188 20.4375 L 60.019531 20.4375 L 60.019531 33.578125 L 50.488281 33.578125 L 50.488281 116.417969 L 60.019531 116.417969 L 60.019531 129.558594 L 62.742188 129.558594 L 62.742188 116.417969 L 72.273438 116.417969 L 72.273438 33.578125 Z M 62.742188 33.578125 " fill-opacity="1" fill-rule="nonzero"/></g><g clip-path="url(#17144a6174)"><path fill="#ffffff" d="M 89.972656 41.234375 L 89.972656 33.578125 L 87.25 33.578125 L 87.25 41.234375 L 77.71875 41.234375 L 77.71875 91.832031 L 87.25 91.832031 L 87.25 107.65625 L 89.972656 107.65625 L 89.972656 91.832031 L 99.503906 91.832031 L 99.503906 41.234375 Z M 89.972656 41.234375 " fill-opacity="1" fill-rule="nonzero"/></g></svg>