<svg xmlns="http://www.w3.org/2000/svg" xmlns:xlink="http://www.w3.org/1999/xlink" width="200" zoomAndPan="magnify" viewBox="0 0 150 149.999998" height="200" preserveAspectRatio="xMidYMid meet" version="1.0"><defs><filter x="0%" y="0%" width="100%" height="100%" id="0a0f535111"><feColorMatrix values="0 0 0 0 1 0 0 0 0 1 0 0 0 0 1 0 0 0 1 0" color-interpolation-filters="sRGB"/></filter><mask id="55bb457ea0"><g filter="url(#0a0f535111)"><rect x="-15" width="180" fill="#000000" y="-15" height="179.999997" fill-opacity="0.05"/></g></mask><clipPath id="43dda0c191"><path d="M 0.382812 0.800781 L 140 0.800781 L 140 128 L 0.382812 128 Z M 0.382812 0.800781 " clip-rule="nonzero"/></clipPath><clipPath id="4fea54d702"><path d="M 7.132812 0.800781 L 132.867188 0.800781 C 136.59375 0.800781 139.617188 3.820312 139.617188 7.550781 L 139.617188 121.25 C 139.617188 124.976562 136.59375 128 132.867188 128 L 7.132812 128 C 3.40625 128 0.382812 124.976562 0.382812 121.25 L 0.382812 7.550781 C 0.382812 3.820312 3.40625 0.800781 7.132812 0.800781 Z M 7.132812 0.800781 " clip-rule="nonzero"/></clipPath><clipPath id="deb0840214"><path d="M 0.382812 0.800781 L 139.71875 0.800781 L 139.71875 128 L 0.382812 128 Z M 0.382812 0.800781 " clip-rule="nonzero"/></clipPath><clipPath id="9dbc5928b3"><path d="M 7.132812 0.800781 L 132.867188 0.800781 C 136.59375 0.800781 139.617188 3.820312 139.617188 7.550781 L 139.617188 121.25 C 139.617188 124.976562 136.59375 128 132.867188 128 L 7.132812 128 C 3.40625 128 0.382812 124.976562 0.382812 121.25 L 0.382812 7.550781 C 0.382812 3.820312 3.40625 0.800781 7.132812 0.800781 Z M 7.132812 0.800781 " clip-rule="nonzero"/></clipPath><clipPath id="1aa740728d"><rect x="0" width="140" y="0" height="128"/></clipPath><clipPath id="49a3bd5237"><rect x="0" width="141" y="0" height="129"/></clipPath><clipPath id="8c7ea6b12d"><path d="M 15 20.378906 L 37 20.378906 L 37 129.878906 L 15 129.878906 Z M 15 20.378906 " clip-rule="nonzero"/></clipPath><clipPath id="9108c7ee2b"><path d="M 42 33 L 63.75 33 L 63.75 108 L 42 108 Z M 42 33 " clip-rule="nonzero"/></clipPath><clipPath id="5f5534b37f"><path d="M 82.511719 20.378906 L 135 20.378906 L 135 129.878906 L 82.511719 129.878906 Z M 82.511719 20.378906 " clip-rule="nonzero"/></clipPath><clipPath id="a47eb146f6"><path d="M 84.011719 20.378906 L 133.5 20.378906 C 133.898438 20.378906 134.277344 20.535156 134.558594 20.816406 C 134.839844 21.097656 135 21.480469 135 21.878906 L 135 128.121094 C 135 128.515625 134.839844 128.898438 134.558594 129.179688 C 134.277344 129.460938 133.898438 129.621094 133.5 129.621094 L 84.011719 129.621094 C 83.613281 129.621094 83.234375 129.460938 82.953125 129.179688 C 82.671875 128.898438 82.511719 128.515625 82.511719 128.121094 L 82.511719 21.878906 C 82.511719 21.480469 82.671875 21.097656 82.953125 20.816406 C 83.234375 20.535156 83.613281 20.378906 84.011719 20.378906 Z M 84.011719 20.378906 " clip-rule="nonzero"/></clipPath></defs><g mask="url(#55bb457ea0)"><g transform="matrix(1, 0, 0, 1, 5, 7)"><g clip-path="url(#49a3bd5237)"><g clip-path="url(#43dda0c191)"><g clip-path="url(#4fea54d702)"><g transform="matrix(1, 0, 0, 1, 0, -0.000000000000007105)"><g clip-path="url(#1aa740728d)"><g clip-path="url(#deb0840214)"><g clip-path="url(#9dbc5928b3)"><path fill="#ffffff" d="M 0.382812 0.800781 L 139.507812 0.800781 L 139.507812 128 L 0.382812 128 Z M 0.382812 0.800781 " fill-opacity="1" fill-rule="nonzero"/></g></g></g></g></g></g></g></g></g><g clip-path="url(#8c7ea6b12d)"><path fill="#ffffff" d="M 27.253906 33.578125 L 27.253906 20.4375 L 24.53125 20.4375 L 24.53125 33.578125 L 15 33.578125 L 15 116.417969 L 24.53125 116.417969 L 24.53125 129.558594 L 27.253906 129.558594 L 27.253906 116.417969 L 36.785156 116.417969 L 36.785156 33.578125 Z M 27.253906 33.578125 " fill-opacity="1" fill-rule="nonzero"/></g><g clip-path="url(#9108c7ee2b)"><path fill="#ffffff" d="M 54.484375 41.234375 L 54.484375 33.578125 L 51.761719 33.578125 L 51.761719 41.234375 L 42.230469 41.234375 L 42.230469 91.832031 L 51.761719 91.832031 L 51.761719 107.65625 L 54.484375 107.65625 L 54.484375 91.832031 L 64.015625 91.832031 L 64.015625 41.234375 Z M 54.484375 41.234375 " fill-opacity="1" fill-rule="nonzero"/></g><g clip-path="url(#5f5534b37f)"><g clip-path="url(#a47eb146f6)"><path stroke-linecap="butt" transform="matrix(0.75, 0, 0, 0.75, 82.511941, 20.377268)" fill="none" stroke-linejoin="miter" d="M 1.999703 0.002184 L 67.984078 0.002184 C 68.515328 0.002184 69.020536 0.210517 69.395536 0.585517 C 69.770536 0.960517 69.984078 1.470934 69.984078 2.002184 L 69.984078 143.658433 C 69.984078 144.184475 69.770536 144.694892 69.395536 145.069892 C 69.020536 145.444892 68.515328 145.658433 67.984078 145.658433 L 1.999703 145.658433 C 1.468453 145.658433 0.963245 145.444892 0.588245 145.069892 C 0.213245 144.694892 -0.000296649 144.184475 -0.000296649 143.658433 L -0.000296649 2.002184 C -0.000296649 1.470934 0.213245 0.960517 0.588245 0.585517 C 0.963245 0.210517 1.468453 0.002184 1.999703 0.002184 Z M 1.999703 0.002184 " stroke="#ffffff" stroke-width="2" stroke-opacity="1" stroke-miterlimit="4"/></g></g></svg>