<svg xmlns="http://www.w3.org/2000/svg" xmlns:xlink="http://www.w3.org/1999/xlink" width="200" zoomAndPan="magnify" viewBox="0 0 150 149.999998" height="200" preserveAspectRatio="xMidYMid meet" version="1.0"><defs><clipPath id="25f88d6024"><path d="M 150 75 C 150 76.226562 149.96875 77.453125 149.910156 78.679688 C 149.847656 79.90625 149.757812 81.128906 149.640625 82.351562 C 149.519531 83.574219 149.367188 84.789062 149.1875 86.003906 C 149.007812 87.21875 148.796875 88.429688 148.558594 89.632812 C 148.320312 90.835938 148.050781 92.03125 147.753906 93.222656 C 147.453125 94.414062 147.125 95.597656 146.769531 96.769531 C 146.414062 97.945312 146.027344 99.109375 145.617188 100.265625 C 145.203125 101.421875 144.761719 102.566406 144.289062 103.703125 C 143.820312 104.835938 143.324219 105.957031 142.800781 107.066406 C 142.273438 108.175781 141.722656 109.273438 141.144531 110.355469 C 140.566406 111.4375 139.960938 112.503906 139.328125 113.558594 C 138.699219 114.609375 138.042969 115.648438 137.359375 116.667969 C 136.679688 117.6875 135.972656 118.691406 135.242188 119.675781 C 134.507812 120.664062 133.753906 121.628906 132.976562 122.578125 C 132.195312 123.527344 131.394531 124.457031 130.570312 125.367188 C 129.746094 126.277344 128.902344 127.164062 128.03125 128.03125 C 127.164062 128.902344 126.277344 129.746094 125.367188 130.570312 C 124.457031 131.394531 123.527344 132.195312 122.578125 132.976562 C 121.628906 133.753906 120.664062 134.507812 119.675781 135.242188 C 118.691406 135.972656 117.6875 136.679688 116.667969 137.359375 C 115.648438 138.042969 114.609375 138.699219 113.558594 139.328125 C 112.503906 139.960938 111.4375 140.566406 110.355469 141.144531 C 109.273438 141.722656 108.175781 142.273438 107.066406 142.800781 C 105.957031 143.324219 104.835938 143.820312 103.703125 144.289062 C 102.566406 144.761719 101.421875 145.203125 100.265625 145.617188 C 99.109375 146.03125 97.945312 146.414062 96.769531 146.769531 C 95.597656 147.125 94.414062 147.453125 93.222656 147.753906 C 92.03125 148.050781 90.835938 148.320312 89.632812 148.558594 C 88.429688 148.796875 87.21875 149.007812 86.003906 149.1875 C 84.789062 149.367188 83.574219 149.519531 82.351562 149.640625 C 81.128906 149.757812 79.90625 149.847656 78.679688 149.910156 C 77.453125 149.96875 76.226562 150 75 150 C 73.773438 150 72.546875 149.96875 71.320312 149.910156 C 70.09375 149.847656 68.871094 149.757812 67.648438 149.640625 C 66.425781 149.519531 65.210938 149.367188 63.996094 149.1875 C 62.78125 149.007812 61.570312 148.796875 60.367188 148.558594 C 59.164062 148.320312 57.96875 148.050781 56.777344 147.753906 C 55.585938 147.453125 54.402344 147.125 53.230469 146.769531 C 52.054688 146.414062 50.890625 146.027344 49.734375 145.617188 C 48.578125 145.203125 47.433594 144.761719 46.296875 144.289062 C 45.164062 143.820312 44.042969 143.324219 42.933594 142.800781 C 41.824219 142.273438 40.726562 141.722656 39.644531 141.144531 C 38.5625 140.566406 37.496094 139.960938 36.441406 139.328125 C 35.390625 138.699219 34.351562 138.042969 33.332031 137.359375 C 32.3125 136.679688 31.308594 135.972656 30.324219 135.242188 C 29.335938 134.507812 28.371094 133.753906 27.421875 132.976562 C 26.472656 132.195312 25.542969 131.394531 24.632812 130.570312 C 23.722656 129.746094 22.835938 128.902344 21.96875 128.03125 C 21.097656 127.164062 20.253906 126.277344 19.429688 125.367188 C 18.605469 124.457031 17.804688 123.527344 17.023438 122.578125 C 16.246094 121.628906 15.492188 120.664062 14.757812 119.675781 C 14.027344 118.691406 13.320312 117.6875 12.640625 116.667969 C 11.957031 115.648438 11.300781 114.609375 10.671875 113.558594 C 10.039062 112.503906 9.433594 111.4375 8.855469 110.355469 C 8.277344 109.273438 7.726562 108.175781 7.199219 107.066406 C 6.675781 105.957031 6.179688 104.835938 5.710938 103.703125 C 5.238281 102.566406 4.796875 101.421875 4.382812 100.265625 C 3.96875 99.109375 3.585938 97.945312 3.230469 96.769531 C 2.875 95.597656 2.546875 94.414062 2.246094 93.222656 C 1.949219 92.03125 1.679688 90.835938 1.441406 89.632812 C 1.203125 88.429688 0.992188 87.21875 0.8125 86.003906 C 0.632812 84.789062 0.480469 83.574219 0.359375 82.351562 C 0.242188 81.128906 0.152344 79.90625 0.0898438 78.679688 C 0.03125 77.453125 0 76.226562 0 75 C 0 73.773438 0.03125 72.546875 0.0898438 71.320312 C 0.152344 70.09375 0.242188 68.871094 0.359375 67.648438 C 0.480469 66.425781 0.632812 65.210938 0.8125 63.996094 C 0.992188 62.78125 1.203125 61.570312 1.441406 60.367188 C 1.679688 59.164062 1.949219 57.96875 2.246094 56.777344 C 2.546875 55.585938 2.875 54.402344 3.230469 53.230469 C 3.585938 52.054688 3.96875 50.890625 4.382812 49.734375 C 4.796875 48.578125 5.238281 47.433594 5.710938 46.296875 C 6.179688 45.164062 6.675781 44.042969 7.199219 42.933594 C 7.726562 41.824219 8.277344 40.726562 8.855469 39.644531 C 9.433594 38.5625 10.039062 37.496094 10.671875 36.441406 C 11.300781 35.390625 11.957031 34.351562 12.640625 33.332031 C 13.320312 32.3125 14.027344 31.308594 14.757812 30.324219 C 15.492188 29.335938 16.246094 28.371094 17.023438 27.421875 C 17.804688 26.472656 18.605469 25.542969 19.429688 24.632812 C 20.253906 23.722656 21.097656 22.835938 21.96875 21.96875 C 22.835938 21.097656 23.722656 20.253906 24.632812 19.429688 C 25.542969 18.605469 26.472656 17.804688 27.421875 17.023438 C 28.371094 16.246094 29.335938 15.492188 30.324219 14.757812 C 31.308594 14.027344 32.3125 13.320312 33.332031 12.640625 C 34.351562 11.957031 35.390625 11.300781 36.441406 10.671875 C 37.496094 10.039062 38.5625 9.433594 39.644531 8.855469 C 40.726562 8.277344 41.824219 7.726562 42.933594 7.199219 C 44.042969 6.675781 45.164062 6.179688 46.296875 5.710938 C 47.433594 5.238281 48.578125 4.796875 49.734375 4.382812 C 50.890625 3.96875 52.054688 3.585938 53.230469 3.230469 C 54.402344 2.875 55.585938 2.546875 56.777344 2.246094 C 57.96875 1.949219 59.164062 1.679688 60.367188 1.441406 C 61.570312 1.203125 62.78125 0.992188 63.996094 0.8125 C 65.210938 0.632812 66.425781 0.480469 67.648438 0.359375 C 68.871094 0.242188 70.09375 0.152344 71.320312 0.0898438 C 72.546875 0.03125 73.773438 0 75 0 C 76.226562 0 77.453125 0.03125 78.679688 0.0898438 C 79.90625 0.152344 81.128906 0.242188 82.351562 0.359375 C 83.574219 0.480469 84.789062 0.632812 86.003906 0.8125 C 87.21875 0.992188 88.429688 1.203125 89.632812 1.441406 C 90.835938 1.679688 92.03125 1.949219 93.222656 2.246094 C 94.414062 2.546875 95.597656 2.875 96.769531 3.230469 C 97.945312 3.585938 99.109375 3.96875 100.265625 4.382812 C 101.421875 4.796875 102.566406 5.238281 103.703125 5.710938 C 104.835938 6.179688 105.957031 6.675781 107.066406 7.199219 C 108.175781 7.726562 109.273438 8.277344 110.355469 8.855469 C 111.4375 9.433594 112.503906 10.039062 113.558594 10.671875 C 114.609375 11.300781 115.648438 11.957031 116.667969 12.640625 C 117.6875 13.320312 118.691406 14.027344 119.675781 14.757812 C 120.664062 15.492188 121.628906 16.246094 122.578125 17.023438 C 123.527344 17.804688 124.457031 18.605469 125.367188 19.429688 C 126.277344 20.253906 127.164062 21.097656 128.03125 21.96875 C 128.902344 22.835938 129.746094 23.722656 130.570312 24.632812 C 131.394531 25.542969 132.195312 26.472656 132.976562 27.421875 C 133.753906 28.371094 134.507812 29.335938 135.242188 30.324219 C 135.972656 31.308594 136.679688 32.3125 137.359375 33.332031 C 138.042969 34.351562 138.699219 35.390625 139.328125 36.441406 C 139.960938 37.496094 140.566406 38.5625 141.144531 39.644531 C 141.722656 40.726562 142.273438 41.824219 142.800781 42.933594 C 143.324219 44.042969 143.820312 45.164062 144.289062 46.296875 C 144.761719 47.433594 145.203125 48.578125 145.617188 49.734375 C 146.03125 50.890625 146.414062 52.054688 146.769531 53.230469 C 147.125 54.402344 147.453125 55.585938 147.753906 56.777344 C 148.050781 57.96875 148.320312 59.164062 148.558594 60.367188 C 148.796875 61.570312 149.007812 62.78125 149.1875 63.996094 C 149.367188 65.210938 149.519531 66.425781 149.640625 67.648438 C 149.757812 68.871094 149.847656 70.09375 149.910156 71.320312 C 149.96875 72.546875 150 73.773438 150 75 Z M 150 75 " clip-rule="nonzero"/></clipPath><linearGradient x1="875" gradientTransform="matrix(0.0857143, 0, 0, 0.0857143, 0.00000125, 0.000002)" y1="0" x2="875" gradientUnits="userSpaceOnUse" y2="1749.99988" id="d91fd21a22"><stop stop-opacity="1" stop-color="rgb(91.758728%, 93.728638%, 72.938538%)" offset="0"/><stop stop-opacity="1" stop-color="rgb(91.758728%, 93.728638%, 72.938538%)" offset="0.015625"/><stop stop-opacity="1" stop-color="rgb(91.638184%, 93.634033%, 72.900391%)" offset="0.0234375"/><stop stop-opacity="1" stop-color="rgb(91.242981%, 93.327332%, 72.773743%)" offset="0.0273438"/><stop stop-opacity="1" stop-color="rgb(90.968323%, 93.113708%, 72.686768%)" offset="0.03125"/><stop stop-opacity="1" stop-color="rgb(90.693665%, 92.900085%, 72.598267%)" offset="0.0351562"/><stop stop-opacity="1" stop-color="rgb(90.420532%, 92.686462%, 72.511292%)" offset="0.0390625"/><stop stop-opacity="1" stop-color="rgb(90.145874%, 92.471313%, 72.422791%)" offset="0.0429688"/><stop stop-opacity="1" stop-color="rgb(89.871216%, 92.25769%, 72.335815%)" offset="0.046875"/><stop stop-opacity="1" stop-color="rgb(89.596558%, 92.044067%, 72.247314%)" offset="0.0507812"/><stop stop-opacity="1" stop-color="rgb(89.321899%, 91.830444%, 72.160339%)" offset="0.0546875"/><stop stop-opacity="1" stop-color="rgb(89.047241%, 91.616821%, 72.071838%)" offset="0.0585938"/><stop stop-opacity="1" stop-color="rgb(88.772583%, 91.403198%, 71.984863%)" offset="0.0625"/><stop stop-opacity="1" stop-color="rgb(88.497925%, 91.188049%, 71.896362%)" offset="0.0664062"/><stop stop-opacity="1" stop-color="rgb(88.224792%, 90.974426%, 71.809387%)" offset="0.0703125"/><stop stop-opacity="1" stop-color="rgb(87.950134%, 90.760803%, 71.720886%)" offset="0.0742188"/><stop stop-opacity="1" stop-color="rgb(87.675476%, 90.54718%, 71.633911%)" offset="0.078125"/><stop stop-opacity="1" stop-color="rgb(87.400818%, 90.333557%, 71.54541%)" offset="0.0820312"/><stop stop-opacity="1" stop-color="rgb(87.12616%, 90.119934%, 71.458435%)" offset="0.0859375"/><stop stop-opacity="1" stop-color="rgb(86.851501%, 89.906311%, 71.369934%)" offset="0.0898438"/><stop stop-opacity="1" stop-color="rgb(86.576843%, 89.692688%, 71.281433%)" offset="0.09375"/><stop stop-opacity="1" stop-color="rgb(86.302185%, 89.477539%, 71.192932%)" offset="0.0976562"/><stop stop-opacity="1" stop-color="rgb(86.029053%, 89.263916%, 71.105957%)" offset="0.101562"/><stop stop-opacity="1" stop-color="rgb(85.754395%, 89.050293%, 71.017456%)" offset="0.105469"/><stop stop-opacity="1" stop-color="rgb(85.479736%, 88.83667%, 70.930481%)" offset="0.109375"/><stop stop-opacity="1" stop-color="rgb(85.205078%, 88.623047%, 70.84198%)" offset="0.113281"/><stop stop-opacity="1" stop-color="rgb(84.93042%, 88.409424%, 70.755005%)" offset="0.117188"/><stop stop-opacity="1" stop-color="rgb(84.655762%, 88.195801%, 70.666504%)" offset="0.121094"/><stop stop-opacity="1" stop-color="rgb(84.382629%, 87.982178%, 70.579529%)" offset="0.125"/><stop stop-opacity="1" stop-color="rgb(84.107971%, 87.767029%, 70.491028%)" offset="0.128906"/><stop stop-opacity="1" stop-color="rgb(83.833313%, 87.553406%, 70.404053%)" offset="0.132813"/><stop stop-opacity="1" stop-color="rgb(83.558655%, 87.339783%, 70.315552%)" offset="0.136719"/><stop stop-opacity="1" stop-color="rgb(83.283997%, 87.12616%, 70.228577%)" offset="0.140625"/><stop stop-opacity="1" stop-color="rgb(83.009338%, 86.912537%, 70.140076%)" offset="0.144531"/><stop stop-opacity="1" stop-color="rgb(82.73468%, 86.698914%, 70.053101%)" offset="0.148438"/><stop stop-opacity="1" stop-color="rgb(82.460022%, 86.485291%, 69.9646%)" offset="0.152344"/><stop stop-opacity="1" stop-color="rgb(82.18689%, 86.271667%, 69.877625%)" offset="0.15625"/><stop stop-opacity="1" stop-color="rgb(81.912231%, 86.056519%, 69.789124%)" offset="0.160156"/><stop stop-opacity="1" stop-color="rgb(81.637573%, 85.842896%, 69.702148%)" offset="0.164063"/><stop stop-opacity="1" stop-color="rgb(81.362915%, 85.629272%, 69.613647%)" offset="0.167969"/><stop stop-opacity="1" stop-color="rgb(81.088257%, 85.415649%, 69.526672%)" offset="0.171875"/><stop stop-opacity="1" stop-color="rgb(80.813599%, 85.202026%, 69.438171%)" offset="0.175781"/><stop stop-opacity="1" stop-color="rgb(80.53894%, 84.988403%, 69.351196%)" offset="0.179688"/><stop stop-opacity="1" stop-color="rgb(80.264282%, 84.773254%, 69.262695%)" offset="0.183594"/><stop stop-opacity="1" stop-color="rgb(79.99115%, 84.559631%, 69.17572%)" offset="0.1875"/><stop stop-opacity="1" stop-color="rgb(79.716492%, 84.346008%, 69.087219%)" offset="0.191406"/><stop stop-opacity="1" stop-color="rgb(79.441833%, 84.132385%, 69.000244%)" offset="0.195313"/><stop stop-opacity="1" stop-color="rgb(79.167175%, 83.918762%, 68.911743%)" offset="0.199219"/><stop stop-opacity="1" stop-color="rgb(78.892517%, 83.705139%, 68.824768%)" offset="0.203125"/><stop stop-opacity="1" stop-color="rgb(78.617859%, 83.491516%, 68.736267%)" offset="0.207031"/><stop stop-opacity="1" stop-color="rgb(78.343201%, 83.277893%, 68.649292%)" offset="0.210938"/><stop stop-opacity="1" stop-color="rgb(78.068542%, 83.062744%, 68.560791%)" offset="0.214844"/><stop stop-opacity="1" stop-color="rgb(77.79541%, 82.849121%, 68.473816%)" offset="0.21875"/><stop stop-opacity="1" stop-color="rgb(77.520752%, 82.635498%, 68.385315%)" offset="0.222656"/><stop stop-opacity="1" stop-color="rgb(77.246094%, 82.421875%, 68.29834%)" offset="0.226563"/><stop stop-opacity="1" stop-color="rgb(76.971436%, 82.208252%, 68.209839%)" offset="0.230469"/><stop stop-opacity="1" stop-color="rgb(76.696777%, 81.994629%, 68.122864%)" offset="0.234375"/><stop stop-opacity="1" stop-color="rgb(76.422119%, 81.781006%, 68.034363%)" offset="0.238281"/><stop stop-opacity="1" stop-color="rgb(76.148987%, 81.567383%, 67.947388%)" offset="0.242188"/><stop stop-opacity="1" stop-color="rgb(75.874329%, 81.352234%, 67.858887%)" offset="0.246094"/><stop stop-opacity="1" stop-color="rgb(75.59967%, 81.138611%, 67.771912%)" offset="0.25"/><stop stop-opacity="1" stop-color="rgb(75.325012%, 80.924988%, 67.683411%)" offset="0.253906"/><stop stop-opacity="1" stop-color="rgb(75.050354%, 80.711365%, 67.596436%)" offset="0.257812"/><stop stop-opacity="1" stop-color="rgb(74.775696%, 80.497742%, 67.507935%)" offset="0.261719"/><stop stop-opacity="1" stop-color="rgb(74.501038%, 80.284119%, 67.420959%)" offset="0.265625"/><stop stop-opacity="1" stop-color="rgb(74.226379%, 80.070496%, 67.332458%)" offset="0.269531"/><stop stop-opacity="1" stop-color="rgb(73.953247%, 79.856873%, 67.245483%)" offset="0.273438"/><stop stop-opacity="1" stop-color="rgb(73.678589%, 79.641724%, 67.156982%)" offset="0.277344"/><stop stop-opacity="1" stop-color="rgb(73.403931%, 79.428101%, 67.070007%)" offset="0.28125"/><stop stop-opacity="1" stop-color="rgb(73.129272%, 79.214478%, 66.981506%)" offset="0.285156"/><stop stop-opacity="1" stop-color="rgb(72.854614%, 79.000854%, 66.893005%)" offset="0.289062"/><stop stop-opacity="1" stop-color="rgb(72.579956%, 78.787231%, 66.804504%)" offset="0.292969"/><stop stop-opacity="1" stop-color="rgb(72.305298%, 78.573608%, 66.717529%)" offset="0.296875"/><stop stop-opacity="1" stop-color="rgb(72.03064%, 78.358459%, 66.629028%)" offset="0.300781"/><stop stop-opacity="1" stop-color="rgb(71.757507%, 78.144836%, 66.542053%)" offset="0.304688"/><stop stop-opacity="1" stop-color="rgb(71.482849%, 77.931213%, 66.453552%)" offset="0.308594"/><stop stop-opacity="1" stop-color="rgb(71.208191%, 77.71759%, 66.366577%)" offset="0.3125"/><stop stop-opacity="1" stop-color="rgb(70.933533%, 77.503967%, 66.278076%)" offset="0.316406"/><stop stop-opacity="1" stop-color="rgb(70.658875%, 77.290344%, 66.191101%)" offset="0.320312"/><stop stop-opacity="1" stop-color="rgb(70.384216%, 77.076721%, 66.1026%)" offset="0.324219"/><stop stop-opacity="1" stop-color="rgb(70.109558%, 76.863098%, 66.015625%)" offset="0.328125"/><stop stop-opacity="1" stop-color="rgb(69.8349%, 76.647949%, 65.927124%)" offset="0.332031"/><stop stop-opacity="1" stop-color="rgb(69.561768%, 76.434326%, 65.840149%)" offset="0.335938"/><stop stop-opacity="1" stop-color="rgb(69.287109%, 76.220703%, 65.751648%)" offset="0.339844"/><stop stop-opacity="1" stop-color="rgb(69.012451%, 76.00708%, 65.664673%)" offset="0.34375"/><stop stop-opacity="1" stop-color="rgb(68.737793%, 75.793457%, 65.576172%)" offset="0.347656"/><stop stop-opacity="1" stop-color="rgb(68.463135%, 75.579834%, 65.489197%)" offset="0.351562"/><stop stop-opacity="1" stop-color="rgb(68.188477%, 75.366211%, 65.400696%)" offset="0.355469"/><stop stop-opacity="1" stop-color="rgb(67.915344%, 75.152588%, 65.313721%)" offset="0.359375"/><stop stop-opacity="1" stop-color="rgb(67.640686%, 74.937439%, 65.22522%)" offset="0.363281"/><stop stop-opacity="1" stop-color="rgb(67.366028%, 74.723816%, 65.138245%)" offset="0.367188"/><stop stop-opacity="1" stop-color="rgb(67.09137%, 74.510193%, 65.049744%)" offset="0.371094"/><stop stop-opacity="1" stop-color="rgb(66.816711%, 74.29657%, 64.962769%)" offset="0.375"/><stop stop-opacity="1" stop-color="rgb(66.542053%, 74.082947%, 64.874268%)" offset="0.378906"/><stop stop-opacity="1" stop-color="rgb(66.267395%, 73.869324%, 64.787292%)" offset="0.382812"/><stop stop-opacity="1" stop-color="rgb(65.992737%, 73.655701%, 64.698792%)" offset="0.386719"/><stop stop-opacity="1" stop-color="rgb(65.719604%, 73.442078%, 64.611816%)" offset="0.390625"/><stop stop-opacity="1" stop-color="rgb(65.444946%, 73.226929%, 64.523315%)" offset="0.394531"/><stop stop-opacity="1" stop-color="rgb(65.170288%, 73.013306%, 64.43634%)" offset="0.398438"/><stop stop-opacity="1" stop-color="rgb(64.89563%, 72.799683%, 64.347839%)" offset="0.402344"/><stop stop-opacity="1" stop-color="rgb(64.620972%, 72.58606%, 64.260864%)" offset="0.40625"/><stop stop-opacity="1" stop-color="rgb(64.346313%, 72.372437%, 64.172363%)" offset="0.410156"/><stop stop-opacity="1" stop-color="rgb(64.071655%, 72.158813%, 64.085388%)" offset="0.414062"/><stop stop-opacity="1" stop-color="rgb(63.796997%, 71.943665%, 63.996887%)" offset="0.417969"/><stop stop-opacity="1" stop-color="rgb(63.523865%, 71.730042%, 63.909912%)" offset="0.421875"/><stop stop-opacity="1" stop-color="rgb(63.249207%, 71.516418%, 63.821411%)" offset="0.425781"/><stop stop-opacity="1" stop-color="rgb(62.974548%, 71.302795%, 63.734436%)" offset="0.429688"/><stop stop-opacity="1" stop-color="rgb(62.69989%, 71.089172%, 63.645935%)" offset="0.433594"/><stop stop-opacity="1" stop-color="rgb(62.425232%, 70.875549%, 63.55896%)" offset="0.4375"/><stop stop-opacity="1" stop-color="rgb(62.150574%, 70.661926%, 63.470459%)" offset="0.441406"/><stop stop-opacity="1" stop-color="rgb(61.875916%, 70.448303%, 63.383484%)" offset="0.445312"/><stop stop-opacity="1" stop-color="rgb(61.601257%, 70.233154%, 63.294983%)" offset="0.449219"/><stop stop-opacity="1" stop-color="rgb(61.328125%, 70.019531%, 63.208008%)" offset="0.453125"/><stop stop-opacity="1" stop-color="rgb(61.053467%, 69.805908%, 63.119507%)" offset="0.457031"/><stop stop-opacity="1" stop-color="rgb(60.778809%, 69.592285%, 63.032532%)" offset="0.460938"/><stop stop-opacity="1" stop-color="rgb(60.50415%, 69.378662%, 62.944031%)" offset="0.464844"/><stop stop-opacity="1" stop-color="rgb(60.229492%, 69.165039%, 62.857056%)" offset="0.46875"/><stop stop-opacity="1" stop-color="rgb(59.954834%, 68.951416%, 62.768555%)" offset="0.472656"/><stop stop-opacity="1" stop-color="rgb(59.681702%, 68.737793%, 62.68158%)" offset="0.476562"/><stop stop-opacity="1" stop-color="rgb(59.407043%, 68.522644%, 62.593079%)" offset="0.480469"/><stop stop-opacity="1" stop-color="rgb(59.132385%, 68.309021%, 62.504578%)" offset="0.484375"/><stop stop-opacity="1" stop-color="rgb(58.857727%, 68.095398%, 62.416077%)" offset="0.488281"/><stop stop-opacity="1" stop-color="rgb(58.583069%, 67.881775%, 62.329102%)" offset="0.492188"/><stop stop-opacity="1" stop-color="rgb(58.308411%, 67.668152%, 62.240601%)" offset="0.496094"/><stop stop-opacity="1" stop-color="rgb(58.033752%, 67.454529%, 62.153625%)" offset="0.5"/><stop stop-opacity="1" stop-color="rgb(57.759094%, 67.240906%, 62.065125%)" offset="0.503906"/><stop stop-opacity="1" stop-color="rgb(57.485962%, 67.027283%, 61.978149%)" offset="0.507812"/><stop stop-opacity="1" stop-color="rgb(57.211304%, 66.812134%, 61.889648%)" offset="0.511719"/><stop stop-opacity="1" stop-color="rgb(56.936646%, 66.598511%, 61.802673%)" offset="0.515625"/><stop stop-opacity="1" stop-color="rgb(56.661987%, 66.384888%, 61.714172%)" offset="0.519531"/><stop stop-opacity="1" stop-color="rgb(56.387329%, 66.171265%, 61.627197%)" offset="0.523438"/><stop stop-opacity="1" stop-color="rgb(56.112671%, 65.957642%, 61.538696%)" offset="0.527344"/><stop stop-opacity="1" stop-color="rgb(55.838013%, 65.744019%, 61.451721%)" offset="0.53125"/><stop stop-opacity="1" stop-color="rgb(55.563354%, 65.52887%, 61.36322%)" offset="0.535156"/><stop stop-opacity="1" stop-color="rgb(55.290222%, 65.315247%, 61.276245%)" offset="0.539062"/><stop stop-opacity="1" stop-color="rgb(55.015564%, 65.101624%, 61.187744%)" offset="0.542969"/><stop stop-opacity="1" stop-color="rgb(54.740906%, 64.888%, 61.100769%)" offset="0.546875"/><stop stop-opacity="1" stop-color="rgb(54.466248%, 64.674377%, 61.012268%)" offset="0.550781"/><stop stop-opacity="1" stop-color="rgb(54.191589%, 64.460754%, 60.925293%)" offset="0.554688"/><stop stop-opacity="1" stop-color="rgb(53.916931%, 64.247131%, 60.836792%)" offset="0.558594"/><stop stop-opacity="1" stop-color="rgb(53.642273%, 64.033508%, 60.749817%)" offset="0.5625"/><stop stop-opacity="1" stop-color="rgb(53.367615%, 63.818359%, 60.661316%)" offset="0.566406"/><stop stop-opacity="1" stop-color="rgb(53.094482%, 63.604736%, 60.574341%)" offset="0.570312"/><stop stop-opacity="1" stop-color="rgb(52.819824%, 63.391113%, 60.48584%)" offset="0.574219"/><stop stop-opacity="1" stop-color="rgb(52.545166%, 63.17749%, 60.398865%)" offset="0.578125"/><stop stop-opacity="1" stop-color="rgb(52.270508%, 62.963867%, 60.310364%)" offset="0.582031"/><stop stop-opacity="1" stop-color="rgb(51.99585%, 62.750244%, 60.223389%)" offset="0.585938"/><stop stop-opacity="1" stop-color="rgb(51.721191%, 62.536621%, 60.134888%)" offset="0.589844"/><stop stop-opacity="1" stop-color="rgb(51.448059%, 62.322998%, 60.047913%)" offset="0.59375"/><stop stop-opacity="1" stop-color="rgb(51.173401%, 62.107849%, 59.959412%)" offset="0.597656"/><stop stop-opacity="1" stop-color="rgb(50.898743%, 61.894226%, 59.872437%)" offset="0.601562"/><stop stop-opacity="1" stop-color="rgb(50.624084%, 61.680603%, 59.783936%)" offset="0.605469"/><stop stop-opacity="1" stop-color="rgb(50.349426%, 61.46698%, 59.69696%)" offset="0.609375"/><stop stop-opacity="1" stop-color="rgb(50.074768%, 61.253357%, 59.608459%)" offset="0.613281"/><stop stop-opacity="1" stop-color="rgb(49.80011%, 61.039734%, 59.521484%)" offset="0.617188"/><stop stop-opacity="1" stop-color="rgb(49.525452%, 60.826111%, 59.432983%)" offset="0.621094"/><stop stop-opacity="1" stop-color="rgb(49.252319%, 60.612488%, 59.346008%)" offset="0.625"/><stop stop-opacity="1" stop-color="rgb(48.977661%, 60.397339%, 59.257507%)" offset="0.628906"/><stop stop-opacity="1" stop-color="rgb(48.703003%, 60.183716%, 59.170532%)" offset="0.632812"/><stop stop-opacity="1" stop-color="rgb(48.428345%, 59.970093%, 59.082031%)" offset="0.636719"/><stop stop-opacity="1" stop-color="rgb(48.153687%, 59.75647%, 58.995056%)" offset="0.640625"/><stop stop-opacity="1" stop-color="rgb(47.879028%, 59.542847%, 58.906555%)" offset="0.644531"/><stop stop-opacity="1" stop-color="rgb(47.60437%, 59.329224%, 58.81958%)" offset="0.648438"/><stop stop-opacity="1" stop-color="rgb(47.329712%, 59.114075%, 58.731079%)" offset="0.652344"/><stop stop-opacity="1" stop-color="rgb(47.05658%, 58.900452%, 58.644104%)" offset="0.65625"/><stop stop-opacity="1" stop-color="rgb(46.781921%, 58.686829%, 58.555603%)" offset="0.660156"/><stop stop-opacity="1" stop-color="rgb(46.507263%, 58.473206%, 58.468628%)" offset="0.664062"/><stop stop-opacity="1" stop-color="rgb(46.232605%, 58.259583%, 58.380127%)" offset="0.667969"/><stop stop-opacity="1" stop-color="rgb(45.957947%, 58.045959%, 58.293152%)" offset="0.671875"/><stop stop-opacity="1" stop-color="rgb(45.683289%, 57.832336%, 58.204651%)" offset="0.675781"/><stop stop-opacity="1" stop-color="rgb(45.40863%, 57.618713%, 58.11615%)" offset="0.679688"/><stop stop-opacity="1" stop-color="rgb(45.133972%, 57.403564%, 58.027649%)" offset="0.683594"/><stop stop-opacity="1" stop-color="rgb(44.86084%, 57.189941%, 57.940674%)" offset="0.6875"/><stop stop-opacity="1" stop-color="rgb(44.586182%, 56.976318%, 57.852173%)" offset="0.691406"/><stop stop-opacity="1" stop-color="rgb(44.311523%, 56.762695%, 57.765198%)" offset="0.695312"/><stop stop-opacity="1" stop-color="rgb(44.036865%, 56.549072%, 57.676697%)" offset="0.699219"/><stop stop-opacity="1" stop-color="rgb(43.762207%, 56.335449%, 57.589722%)" offset="0.703125"/><stop stop-opacity="1" stop-color="rgb(43.487549%, 56.121826%, 57.501221%)" offset="0.707031"/><stop stop-opacity="1" stop-color="rgb(43.214417%, 55.908203%, 57.414246%)" offset="0.710938"/><stop stop-opacity="1" stop-color="rgb(42.939758%, 55.693054%, 57.325745%)" offset="0.714844"/><stop stop-opacity="1" stop-color="rgb(42.6651%, 55.479431%, 57.23877%)" offset="0.71875"/><stop stop-opacity="1" stop-color="rgb(42.390442%, 55.265808%, 57.150269%)" offset="0.722656"/><stop stop-opacity="1" stop-color="rgb(42.115784%, 55.052185%, 57.063293%)" offset="0.726562"/><stop stop-opacity="1" stop-color="rgb(41.841125%, 54.838562%, 56.974792%)" offset="0.730469"/><stop stop-opacity="1" stop-color="rgb(41.566467%, 54.624939%, 56.887817%)" offset="0.734375"/><stop stop-opacity="1" stop-color="rgb(41.291809%, 54.411316%, 56.799316%)" offset="0.738281"/><stop stop-opacity="1" stop-color="rgb(41.018677%, 54.197693%, 56.712341%)" offset="0.742188"/><stop stop-opacity="1" stop-color="rgb(40.744019%, 53.982544%, 56.62384%)" offset="0.746094"/><stop stop-opacity="1" stop-color="rgb(40.46936%, 53.768921%, 56.536865%)" offset="0.75"/><stop stop-opacity="1" stop-color="rgb(40.194702%, 53.555298%, 56.448364%)" offset="0.753906"/><stop stop-opacity="1" stop-color="rgb(39.920044%, 53.341675%, 56.361389%)" offset="0.757812"/><stop stop-opacity="1" stop-color="rgb(39.645386%, 53.128052%, 56.272888%)" offset="0.761719"/><stop stop-opacity="1" stop-color="rgb(39.370728%, 52.914429%, 56.185913%)" offset="0.765625"/><stop stop-opacity="1" stop-color="rgb(39.096069%, 52.69928%, 56.097412%)" offset="0.769531"/><stop stop-opacity="1" stop-color="rgb(38.822937%, 52.485657%, 56.010437%)" offset="0.773438"/><stop stop-opacity="1" stop-color="rgb(38.548279%, 52.272034%, 55.921936%)" offset="0.777344"/><stop stop-opacity="1" stop-color="rgb(38.273621%, 52.058411%, 55.834961%)" offset="0.78125"/><stop stop-opacity="1" stop-color="rgb(37.998962%, 51.844788%, 55.74646%)" offset="0.785156"/><stop stop-opacity="1" stop-color="rgb(37.724304%, 51.631165%, 55.659485%)" offset="0.789062"/><stop stop-opacity="1" stop-color="rgb(37.449646%, 51.417542%, 55.570984%)" offset="0.792969"/><stop stop-opacity="1" stop-color="rgb(37.174988%, 51.203918%, 55.484009%)" offset="0.796875"/><stop stop-opacity="1" stop-color="rgb(36.90033%, 50.98877%, 55.395508%)" offset="0.800781"/><stop stop-opacity="1" stop-color="rgb(36.627197%, 50.775146%, 55.308533%)" offset="0.804688"/><stop stop-opacity="1" stop-color="rgb(36.352539%, 50.561523%, 55.220032%)" offset="0.808594"/><stop stop-opacity="1" stop-color="rgb(36.077881%, 50.3479%, 55.133057%)" offset="0.8125"/><stop stop-opacity="1" stop-color="rgb(35.803223%, 50.134277%, 55.044556%)" offset="0.816406"/><stop stop-opacity="1" stop-color="rgb(35.528564%, 49.920654%, 54.957581%)" offset="0.820312"/><stop stop-opacity="1" stop-color="rgb(35.253906%, 49.707031%, 54.86908%)" offset="0.824219"/><stop stop-opacity="1" stop-color="rgb(34.980774%, 49.493408%, 54.782104%)" offset="0.828125"/><stop stop-opacity="1" stop-color="rgb(34.706116%, 49.278259%, 54.693604%)" offset="0.832031"/><stop stop-opacity="1" stop-color="rgb(34.431458%, 49.064636%, 54.606628%)" offset="0.835938"/><stop stop-opacity="1" stop-color="rgb(34.156799%, 48.851013%, 54.518127%)" offset="0.839844"/><stop stop-opacity="1" stop-color="rgb(33.882141%, 48.63739%, 54.431152%)" offset="0.84375"/><stop stop-opacity="1" stop-color="rgb(33.607483%, 48.423767%, 54.342651%)" offset="0.847656"/><stop stop-opacity="1" stop-color="rgb(33.332825%, 48.210144%, 54.255676%)" offset="0.851562"/><stop stop-opacity="1" stop-color="rgb(33.058167%, 47.996521%, 54.167175%)" offset="0.855469"/><stop stop-opacity="1" stop-color="rgb(32.785034%, 47.782898%, 54.0802%)" offset="0.859375"/><stop stop-opacity="1" stop-color="rgb(32.510376%, 47.567749%, 53.991699%)" offset="0.863281"/><stop stop-opacity="1" stop-color="rgb(32.235718%, 47.354126%, 53.904724%)" offset="0.867188"/><stop stop-opacity="1" stop-color="rgb(31.96106%, 47.140503%, 53.816223%)" offset="0.871094"/><stop stop-opacity="1" stop-color="rgb(31.686401%, 46.92688%, 53.727722%)" offset="0.875"/><stop stop-opacity="1" stop-color="rgb(31.411743%, 46.713257%, 53.639221%)" offset="0.878906"/><stop stop-opacity="1" stop-color="rgb(31.137085%, 46.499634%, 53.552246%)" offset="0.882812"/><stop stop-opacity="1" stop-color="rgb(30.862427%, 46.284485%, 53.463745%)" offset="0.886719"/><stop stop-opacity="1" stop-color="rgb(30.589294%, 46.070862%, 53.37677%)" offset="0.890625"/><stop stop-opacity="1" stop-color="rgb(30.314636%, 45.857239%, 53.288269%)" offset="0.894531"/><stop stop-opacity="1" stop-color="rgb(30.039978%, 45.643616%, 53.201294%)" offset="0.898438"/><stop stop-opacity="1" stop-color="rgb(29.76532%, 45.429993%, 53.112793%)" offset="0.902344"/><stop stop-opacity="1" stop-color="rgb(29.490662%, 45.21637%, 53.025818%)" offset="0.90625"/><stop stop-opacity="1" stop-color="rgb(29.216003%, 45.002747%, 52.937317%)" offset="0.910156"/><stop stop-opacity="1" stop-color="rgb(28.941345%, 44.789124%, 52.850342%)" offset="0.914062"/><stop stop-opacity="1" stop-color="rgb(28.666687%, 44.573975%, 52.761841%)" offset="0.917969"/><stop stop-opacity="1" stop-color="rgb(28.393555%, 44.360352%, 52.674866%)" offset="0.921875"/><stop stop-opacity="1" stop-color="rgb(28.118896%, 44.146729%, 52.586365%)" offset="0.925781"/><stop stop-opacity="1" stop-color="rgb(27.844238%, 43.933105%, 52.49939%)" offset="0.929688"/><stop stop-opacity="1" stop-color="rgb(27.56958%, 43.719482%, 52.410889%)" offset="0.933594"/><stop stop-opacity="1" stop-color="rgb(27.294922%, 43.505859%, 52.323914%)" offset="0.9375"/><stop stop-opacity="1" stop-color="rgb(27.020264%, 43.292236%, 52.235413%)" offset="0.941406"/><stop stop-opacity="1" stop-color="rgb(26.747131%, 43.078613%, 52.148438%)" offset="0.945312"/><stop stop-opacity="1" stop-color="rgb(26.472473%, 42.863464%, 52.059937%)" offset="0.949219"/><stop stop-opacity="1" stop-color="rgb(26.197815%, 42.649841%, 51.972961%)" offset="0.953125"/><stop stop-opacity="1" stop-color="rgb(25.923157%, 42.436218%, 51.88446%)" offset="0.957031"/><stop stop-opacity="1" stop-color="rgb(25.648499%, 42.222595%, 51.797485%)" offset="0.960938"/><stop stop-opacity="1" stop-color="rgb(25.37384%, 42.008972%, 51.708984%)" offset="0.964844"/><stop stop-opacity="1" stop-color="rgb(25.099182%, 41.795349%, 51.622009%)" offset="0.96875"/><stop stop-opacity="1" stop-color="rgb(24.824524%, 41.581726%, 51.533508%)" offset="0.972656"/><stop stop-opacity="1" stop-color="rgb(24.551392%, 41.368103%, 51.446533%)" offset="0.976562"/><stop stop-opacity="1" stop-color="rgb(24.429321%, 41.273499%, 51.40686%)" offset="0.984375"/><stop stop-opacity="1" stop-color="rgb(24.308777%, 41.178894%, 51.368713%)" offset="1"/></linearGradient></defs><g clip-path="url(#25f88d6024)"><rect x="-15" fill="url(#d91fd21a22)" width="180" y="-15" height="179.999997"/></g><path fill="#fefefe" d="M 115.113281 62.914062 L 34.886719 62.914062 C 34.457031 62.914062 34.027344 62.484375 34.027344 62.058594 L 34.027344 57.6875 C 34.027344 57.257812 34.457031 56.828125 34.886719 56.828125 L 115.113281 56.828125 C 115.542969 56.828125 115.972656 57.257812 115.972656 57.6875 L 115.972656 62.058594 C 115.972656 62.484375 115.542969 62.914062 115.113281 62.914062 Z M 35.742188 61.199219 L 114.257812 61.199219 L 114.257812 58.542969 L 35.742188 58.542969 Z M 35.742188 61.199219 " fill-opacity="1" fill-rule="evenodd"/><path fill="#fefefe" d="M 45.6875 65.914062 L 37.800781 65.914062 C 37.371094 65.914062 36.941406 65.570312 36.941406 65.058594 L 36.941406 62.058594 C 36.941406 61.542969 37.371094 61.199219 37.800781 61.199219 L 45.6875 61.199219 C 46.199219 61.199219 46.542969 61.542969 46.542969 62.058594 L 46.542969 65.058594 C 46.542969 65.570312 46.199219 65.914062 45.6875 65.914062 Z M 38.65625 64.199219 L 44.828125 64.199219 L 44.828125 62.914062 L 38.65625 62.914062 Z M 38.65625 64.199219 " fill-opacity="1" fill-rule="evenodd"/><path fill="#fefefe" d="M 43.542969 107.230469 L 40.027344 107.230469 C 39.515625 107.230469 39.171875 106.886719 39.171875 106.371094 L 39.171875 65.058594 C 39.171875 64.628906 39.515625 64.199219 40.027344 64.199219 L 43.542969 64.199219 C 43.972656 64.199219 44.398438 64.628906 44.398438 65.058594 L 44.398438 106.371094 C 44.398438 106.886719 43.972656 107.230469 43.542969 107.230469 Z M 40.886719 105.515625 L 42.6875 105.515625 L 42.6875 65.914062 L 40.886719 65.914062 Z M 40.886719 105.515625 " fill-opacity="1" fill-rule="evenodd"/><path fill="#fefefe" d="M 45.6875 110.3125 L 37.800781 110.3125 C 37.371094 110.3125 36.941406 109.886719 36.941406 109.457031 L 36.941406 106.371094 C 36.941406 105.941406 37.371094 105.515625 37.800781 105.515625 L 45.6875 105.515625 C 46.199219 105.515625 46.542969 105.941406 46.542969 106.371094 L 46.542969 109.457031 C 46.542969 109.886719 46.199219 110.3125 45.6875 110.3125 Z M 38.65625 108.601562 L 44.828125 108.601562 L 44.828125 107.230469 L 38.65625 107.230469 Z M 38.65625 108.601562 " fill-opacity="1" fill-rule="evenodd"/><path fill="#fefefe" d="M 58.972656 65.914062 L 51.085938 65.914062 C 50.65625 65.914062 50.230469 65.570312 50.230469 65.058594 L 50.230469 62.058594 C 50.230469 61.542969 50.65625 61.199219 51.085938 61.199219 L 58.972656 61.199219 C 59.484375 61.199219 59.828125 61.542969 59.828125 62.058594 L 59.828125 65.058594 C 59.828125 65.570312 59.484375 65.914062 58.972656 65.914062 Z M 51.941406 64.199219 L 58.113281 64.199219 L 58.113281 62.914062 L 51.941406 62.914062 Z M 51.941406 64.199219 " fill-opacity="1" fill-rule="evenodd"/><path fill="#fefefe" d="M 56.828125 107.230469 L 53.3125 107.230469 C 52.800781 107.230469 52.457031 106.886719 52.457031 106.371094 L 52.457031 65.058594 C 52.457031 64.628906 52.800781 64.199219 53.3125 64.199219 L 56.828125 64.199219 C 57.257812 64.199219 57.6875 64.628906 57.6875 65.058594 L 57.6875 106.371094 C 57.6875 106.886719 57.257812 107.230469 56.828125 107.230469 Z M 54.171875 105.515625 L 55.972656 105.515625 L 55.972656 65.914062 L 54.171875 65.914062 Z M 54.171875 105.515625 " fill-opacity="1" fill-rule="evenodd"/><path fill="#fefefe" d="M 58.972656 110.3125 L 51.085938 110.3125 C 50.65625 110.3125 50.230469 109.886719 50.230469 109.457031 L 50.230469 106.371094 C 50.230469 105.941406 50.65625 105.515625 51.085938 105.515625 L 58.972656 105.515625 C 59.484375 105.515625 59.828125 105.941406 59.828125 106.371094 L 59.828125 109.457031 C 59.828125 109.886719 59.484375 110.3125 58.972656 110.3125 Z M 51.941406 108.601562 L 58.113281 108.601562 L 58.113281 107.230469 L 51.941406 107.230469 Z M 51.941406 108.601562 " fill-opacity="1" fill-rule="evenodd"/><path fill="#fefefe" d="M 72.257812 65.914062 L 64.371094 65.914062 C 63.941406 65.914062 63.515625 65.570312 63.515625 65.058594 L 63.515625 62.058594 C 63.515625 61.542969 63.941406 61.199219 64.371094 61.199219 L 72.257812 61.199219 C 72.769531 61.199219 73.113281 61.542969 73.113281 62.058594 L 73.113281 65.058594 C 73.113281 65.570312 72.769531 65.914062 72.257812 65.914062 Z M 65.230469 64.199219 L 71.398438 64.199219 L 71.398438 62.914062 L 65.230469 62.914062 Z M 65.230469 64.199219 " fill-opacity="1" fill-rule="evenodd"/><path fill="#fefefe" d="M 70.113281 107.230469 L 66.601562 107.230469 C 66.085938 107.230469 65.742188 106.886719 65.742188 106.371094 L 65.742188 65.058594 C 65.742188 64.628906 66.085938 64.199219 66.601562 64.199219 L 70.113281 64.199219 C 70.542969 64.199219 70.972656 64.628906 70.972656 65.058594 L 70.972656 106.371094 C 70.972656 106.886719 70.542969 107.230469 70.113281 107.230469 Z M 67.457031 105.515625 L 69.257812 105.515625 L 69.257812 65.914062 L 67.457031 65.914062 Z M 67.457031 105.515625 " fill-opacity="1" fill-rule="evenodd"/><path fill="#fefefe" d="M 72.257812 110.3125 L 64.371094 110.3125 C 63.941406 110.3125 63.515625 109.886719 63.515625 109.457031 L 63.515625 106.371094 C 63.515625 105.941406 63.941406 105.515625 64.371094 105.515625 L 72.257812 105.515625 C 72.769531 105.515625 73.113281 105.941406 73.113281 106.371094 L 73.113281 109.457031 C 73.113281 109.886719 72.769531 110.3125 72.257812 110.3125 Z M 65.230469 108.601562 L 71.398438 108.601562 L 71.398438 107.230469 L 65.230469 107.230469 Z M 65.230469 108.601562 " fill-opacity="1" fill-rule="evenodd"/><path fill="#fefefe" d="M 85.628906 65.914062 L 77.742188 65.914062 C 77.230469 65.914062 76.886719 65.570312 76.886719 65.058594 L 76.886719 62.058594 C 76.886719 61.542969 77.230469 61.199219 77.742188 61.199219 L 85.628906 61.199219 C 86.058594 61.199219 86.484375 61.542969 86.484375 62.058594 L 86.484375 65.058594 C 86.484375 65.570312 86.058594 65.914062 85.628906 65.914062 Z M 78.601562 64.199219 L 84.769531 64.199219 L 84.769531 62.914062 L 78.601562 62.914062 Z M 78.601562 64.199219 " fill-opacity="1" fill-rule="evenodd"/><path fill="#fefefe" d="M 83.398438 107.230469 L 79.886719 107.230469 C 79.457031 107.230469 79.027344 106.886719 79.027344 106.371094 L 79.027344 65.058594 C 79.027344 64.628906 79.457031 64.199219 79.886719 64.199219 L 83.398438 64.199219 C 83.914062 64.199219 84.257812 64.628906 84.257812 65.058594 L 84.257812 106.371094 C 84.257812 106.886719 83.914062 107.230469 83.398438 107.230469 Z M 80.742188 105.515625 L 82.542969 105.515625 L 82.542969 65.914062 L 80.742188 65.914062 Z M 80.742188 105.515625 " fill-opacity="1" fill-rule="evenodd"/><path fill="#fefefe" d="M 85.628906 110.3125 L 77.742188 110.3125 C 77.230469 110.3125 76.886719 109.886719 76.886719 109.457031 L 76.886719 106.371094 C 76.886719 105.941406 77.230469 105.515625 77.742188 105.515625 L 85.628906 105.515625 C 86.058594 105.515625 86.484375 105.941406 86.484375 106.371094 L 86.484375 109.457031 C 86.484375 109.886719 86.058594 110.3125 85.628906 110.3125 Z M 78.601562 108.601562 L 84.769531 108.601562 L 84.769531 107.230469 L 78.601562 107.230469 Z M 78.601562 108.601562 " fill-opacity="1" fill-rule="evenodd"/><path fill="#fefefe" d="M 98.914062 65.914062 L 91.027344 65.914062 C 90.515625 65.914062 90.171875 65.570312 90.171875 65.058594 L 90.171875 62.058594 C 90.171875 61.542969 90.515625 61.199219 91.027344 61.199219 L 98.914062 61.199219 C 99.34375 61.199219 99.769531 61.542969 99.769531 62.058594 L 99.769531 65.058594 C 99.769531 65.570312 99.34375 65.914062 98.914062 65.914062 Z M 91.886719 64.199219 L 98.058594 64.199219 L 98.058594 62.914062 L 91.886719 62.914062 Z M 91.886719 64.199219 " fill-opacity="1" fill-rule="evenodd"/><path fill="#fefefe" d="M 96.6875 107.230469 L 93.171875 107.230469 C 92.742188 107.230469 92.3125 106.886719 92.3125 106.371094 L 92.3125 65.058594 C 92.3125 64.628906 92.742188 64.199219 93.171875 64.199219 L 96.6875 64.199219 C 97.199219 64.199219 97.542969 64.628906 97.542969 65.058594 L 97.542969 106.371094 C 97.542969 106.886719 97.199219 107.230469 96.6875 107.230469 Z M 94.027344 105.515625 L 95.828125 105.515625 L 95.828125 65.914062 L 94.027344 65.914062 Z M 94.027344 105.515625 " fill-opacity="1" fill-rule="evenodd"/><path fill="#fefefe" d="M 98.914062 110.3125 L 91.027344 110.3125 C 90.515625 110.3125 90.171875 109.886719 90.171875 109.457031 L 90.171875 106.371094 C 90.171875 105.941406 90.515625 105.515625 91.027344 105.515625 L 98.914062 105.515625 C 99.34375 105.515625 99.769531 105.941406 99.769531 106.371094 L 99.769531 109.457031 C 99.769531 109.886719 99.34375 110.3125 98.914062 110.3125 Z M 91.886719 108.601562 L 98.058594 108.601562 L 98.058594 107.230469 L 91.886719 107.230469 Z M 91.886719 108.601562 " fill-opacity="1" fill-rule="evenodd"/><path fill="#fefefe" d="M 112.199219 65.914062 L 104.3125 65.914062 C 103.800781 65.914062 103.457031 65.570312 103.457031 65.058594 L 103.457031 62.058594 C 103.457031 61.542969 103.800781 61.199219 104.3125 61.199219 L 112.199219 61.199219 C 112.628906 61.199219 113.058594 61.542969 113.058594 62.058594 L 113.058594 65.058594 C 113.058594 65.570312 112.628906 65.914062 112.199219 65.914062 Z M 105.171875 64.199219 L 111.34375 64.199219 L 111.34375 62.914062 L 105.171875 62.914062 Z M 105.171875 64.199219 " fill-opacity="1" fill-rule="evenodd"/><path fill="#fefefe" d="M 109.972656 107.230469 L 106.457031 107.230469 C 106.027344 107.230469 105.601562 106.886719 105.601562 106.371094 L 105.601562 65.058594 C 105.601562 64.628906 106.027344 64.199219 106.457031 64.199219 L 109.972656 64.199219 C 110.484375 64.199219 110.828125 64.628906 110.828125 65.058594 L 110.828125 106.371094 C 110.828125 106.886719 110.484375 107.230469 109.972656 107.230469 Z M 107.3125 105.515625 L 109.113281 105.515625 L 109.113281 65.914062 L 107.3125 65.914062 Z M 107.3125 105.515625 " fill-opacity="1" fill-rule="evenodd"/><path fill="#fefefe" d="M 112.199219 110.3125 L 104.3125 110.3125 C 103.800781 110.3125 103.457031 109.886719 103.457031 109.457031 L 103.457031 106.371094 C 103.457031 105.941406 103.800781 105.515625 104.3125 105.515625 L 112.199219 105.515625 C 112.628906 105.515625 113.058594 105.941406 113.058594 106.371094 L 113.058594 109.457031 C 113.058594 109.886719 112.628906 110.3125 112.199219 110.3125 Z M 105.171875 108.601562 L 111.34375 108.601562 L 111.34375 107.230469 L 105.171875 107.230469 Z M 105.171875 108.601562 " fill-opacity="1" fill-rule="evenodd"/><path fill="#fefefe" d="M 115.113281 114.601562 L 34.886719 114.601562 C 34.457031 114.601562 34.027344 114.171875 34.027344 113.742188 L 34.027344 109.457031 C 34.027344 108.941406 34.457031 108.601562 34.886719 108.601562 L 115.113281 108.601562 C 115.542969 108.601562 115.972656 108.941406 115.972656 109.457031 L 115.972656 113.742188 C 115.972656 114.171875 115.542969 114.601562 115.113281 114.601562 Z M 35.742188 112.886719 L 114.257812 112.886719 L 114.257812 110.3125 L 35.742188 110.3125 Z M 35.742188 112.886719 " fill-opacity="1" fill-rule="evenodd"/><path fill="#fefefe" d="M 117.601562 118.886719 L 32.398438 118.886719 C 31.972656 118.886719 31.542969 118.457031 31.542969 118.027344 L 31.542969 113.742188 C 31.542969 113.230469 31.972656 112.886719 32.398438 112.886719 L 117.601562 112.886719 C 118.027344 112.886719 118.457031 113.230469 118.457031 113.742188 L 118.457031 118.027344 C 118.457031 118.457031 118.027344 118.886719 117.601562 118.886719 Z M 33.257812 117.171875 L 116.742188 117.171875 L 116.742188 114.601562 L 33.257812 114.601562 Z M 33.257812 117.171875 " fill-opacity="1" fill-rule="evenodd"/><path fill="#fefefe" d="M 112.457031 49.972656 L 37.542969 49.972656 C 37.113281 49.972656 36.769531 49.714844 36.6875 49.285156 C 36.601562 48.941406 36.769531 48.515625 37.199219 48.34375 L 74.65625 31.199219 C 74.828125 31.113281 75.171875 31.113281 75.34375 31.199219 L 112.800781 48.34375 C 113.058594 48.429688 113.3125 48.769531 113.3125 49.113281 C 113.3125 49.628906 112.972656 49.972656 112.457031 49.972656 Z M 41.484375 48.257812 L 108.515625 48.257812 L 75 32.914062 Z M 41.484375 48.257812 " fill-opacity="1" fill-rule="evenodd"/><path fill="#fefefe" d="M 75 46.800781 C 72.257812 46.800781 70.113281 44.570312 70.113281 41.914062 C 70.113281 39.171875 72.257812 37.027344 75 37.027344 C 77.742188 37.027344 79.886719 39.171875 79.886719 41.914062 C 79.886719 44.570312 77.742188 46.800781 75 46.800781 Z M 75 38.742188 C 73.285156 38.742188 71.828125 40.113281 71.828125 41.914062 C 71.828125 43.628906 73.285156 45.085938 75 45.085938 C 76.714844 45.085938 78.171875 43.628906 78.171875 41.914062 C 78.171875 40.113281 76.714844 38.742188 75 38.742188 Z M 75 38.742188 " fill-opacity="1" fill-rule="evenodd"/><path fill="#fefefe" d="M 107.230469 58.542969 L 42.769531 58.542969 C 42.257812 58.542969 41.914062 58.199219 41.914062 57.6875 L 41.914062 49.113281 C 41.914062 48.6875 42.257812 48.257812 42.769531 48.257812 L 107.230469 48.257812 C 107.742188 48.257812 108.085938 48.6875 108.085938 49.113281 L 108.085938 57.6875 C 108.085938 58.199219 107.742188 58.542969 107.230469 58.542969 Z M 43.628906 56.828125 L 106.371094 56.828125 L 106.371094 49.972656 L 43.628906 49.972656 Z M 43.628906 56.828125 " fill-opacity="1" fill-rule="evenodd"/><path fill="#fefefe" d="M 51.171875 58.542969 C 50.65625 58.542969 50.3125 58.199219 50.3125 57.6875 L 50.3125 49.113281 C 50.3125 48.6875 50.65625 48.257812 51.171875 48.257812 C 51.601562 48.257812 52.027344 48.6875 52.027344 49.113281 L 52.027344 57.6875 C 52.027344 58.199219 51.601562 58.542969 51.171875 58.542969 Z M 51.171875 58.542969 " fill-opacity="1" fill-rule="evenodd"/><path fill="#fefefe" d="M 59.144531 58.542969 C 58.628906 58.542969 58.285156 58.199219 58.285156 57.6875 L 58.285156 49.113281 C 58.285156 48.6875 58.628906 48.257812 59.144531 48.257812 C 59.570312 48.257812 60 48.6875 60 49.113281 L 60 57.6875 C 60 58.199219 59.570312 58.542969 59.144531 58.542969 Z M 59.144531 58.542969 " fill-opacity="1" fill-rule="evenodd"/><path fill="#fefefe" d="M 67.027344 58.542969 C 66.601562 58.542969 66.171875 58.199219 66.171875 57.6875 L 66.171875 49.113281 C 66.171875 48.6875 66.601562 48.257812 67.027344 48.257812 C 67.542969 48.257812 67.886719 48.6875 67.886719 49.113281 L 67.886719 57.6875 C 67.886719 58.199219 67.542969 58.542969 67.027344 58.542969 Z M 67.027344 58.542969 " fill-opacity="1" fill-rule="evenodd"/><path fill="#fefefe" d="M 75 58.542969 C 74.484375 58.542969 74.144531 58.199219 74.144531 57.6875 L 74.144531 49.113281 C 74.144531 48.6875 74.484375 48.257812 75 48.257812 C 75.515625 48.257812 75.855469 48.6875 75.855469 49.113281 L 75.855469 57.6875 C 75.855469 58.199219 75.515625 58.542969 75 58.542969 Z M 75 58.542969 " fill-opacity="1" fill-rule="evenodd"/><path fill="#fefefe" d="M 82.972656 58.542969 C 82.457031 58.542969 82.113281 58.199219 82.113281 57.6875 L 82.113281 49.113281 C 82.113281 48.6875 82.457031 48.257812 82.972656 48.257812 C 83.398438 48.257812 83.828125 48.6875 83.828125 49.113281 L 83.828125 57.6875 C 83.828125 58.199219 83.398438 58.542969 82.972656 58.542969 Z M 82.972656 58.542969 " fill-opacity="1" fill-rule="evenodd"/><path fill="#fefefe" d="M 90.855469 58.542969 C 90.429688 58.542969 90 58.199219 90 57.6875 L 90 49.113281 C 90 48.6875 90.429688 48.257812 90.855469 48.257812 C 91.371094 48.257812 91.714844 48.6875 91.714844 49.113281 L 91.714844 57.6875 C 91.714844 58.199219 91.371094 58.542969 90.855469 58.542969 Z M 90.855469 58.542969 " fill-opacity="1" fill-rule="evenodd"/><path fill="#fefefe" d="M 98.828125 58.542969 C 98.398438 58.542969 97.972656 58.199219 97.972656 57.6875 L 97.972656 49.113281 C 97.972656 48.6875 98.398438 48.257812 98.828125 48.257812 C 99.34375 48.257812 99.6875 48.6875 99.6875 49.113281 L 99.6875 57.6875 C 99.6875 58.199219 99.34375 58.542969 98.828125 58.542969 Z M 98.828125 58.542969 " fill-opacity="1" fill-rule="evenodd"/></svg>