<svg width="45" height="44" viewBox="0 0 45 44" fill="none" xmlns="http://www.w3.org/2000/svg">
<path d="M28.9544 24.4422C27.648 24.3693 26.7084 23.29 26.7084 21.992C26.7084 20.6794 27.736 19.5127 29.0425 19.4544C29.2628 19.469 30.1728 19.4398 30.3931 19.4253C33.7254 19.0898 36.3238 16.2896 36.3238 12.8914C36.3238 9.25997 33.3731 6.41602 29.7178 6.41602C26.0625 6.41602 23.1119 9.34742 23.1119 12.979C23.1119 14.0436 23.3614 15.0062 23.8165 15.8667C23.9779 16.1729 24.1541 16.4209 24.2715 16.7417C24.389 17.0917 24.4624 17.4126 24.4624 17.7043C24.4624 19.0606 23.3467 20.169 21.9815 20.169C21.409 20.169 20.8512 20.0232 20.4401 19.7023C20.0291 19.3814 19.7942 18.871 19.6767 18.6668C18.5317 16.7271 16.4178 15.4291 13.9956 15.4291C10.3403 15.4291 7.38965 18.3605 7.38965 21.992C7.38965 25.6236 10.2522 28.38 13.9075 28.38C16.4471 28.38 18.6198 27.0528 19.7208 24.9818C19.7795 24.8651 19.9997 24.486 20.3374 24.2089C20.7924 23.8297 21.3503 23.7422 21.9962 23.7422C23.3614 23.7422 24.4624 24.836 24.4624 26.1924C24.4624 26.5132 24.1248 27.4758 24.0367 27.6654C23.5669 28.6862 23.1119 29.7947 23.1119 31.0197C23.1119 34.6513 26.0625 37.5827 29.7178 37.5827C33.3731 37.5827 36.2357 34.7387 36.2357 31.1073C36.2357 27.6945 33.6226 24.8214 30.2756 24.486C30.0554 24.4422 29.1306 24.4422 28.9544 24.4422Z" fill="url(#paint0_linear_1273_20949)"/>
<defs>
<linearGradient id="paint0_linear_1273_20949" x1="-3.93091" y1="21.8663" x2="28.2617" y2="49.4313" gradientUnits="userSpaceOnUse">
<stop offset="0.0153" stop-color="#00AAE4"/>
<stop offset="0.9958" stop-color="#006097"/>
</linearGradient>
</defs>
</svg>
