<svg width="45" height="44" viewBox="0 0 45 44" fill="none" xmlns="http://www.w3.org/2000/svg">
<path fill-rule="evenodd" clip-rule="evenodd" d="M17.6154 39.7838C27.4391 42.233 37.3878 36.2558 39.8367 26.4344C42.2856 16.6125 36.3083 6.66325 26.4852 4.21463C16.6643 1.76601 6.71569 7.74376 4.26793 17.5663C1.81788 27.3871 7.79575 37.3352 17.6154 39.7838ZM26.1035 14.7619C28.6435 15.6368 30.5011 16.9481 30.1361 19.3876C29.872 21.1733 28.8818 22.0378 27.5674 22.3409C29.3723 23.2805 30.2908 24.7214 29.4158 27.2193C28.3301 30.3216 25.7506 30.5834 22.3201 29.9343L21.4876 33.2703L19.4758 32.7691L20.2975 29.4777C19.7761 29.3482 19.2432 29.2107 18.6943 29.0617L17.8698 32.3686L15.8604 31.8673L16.6929 28.5249C16.5051 28.4769 16.3161 28.4276 16.1258 28.378C15.8399 28.3034 15.5511 28.2281 15.2588 28.1549L12.6408 27.5023L13.6395 25.1998C13.6395 25.1998 15.1218 25.594 15.1017 25.5647C15.6713 25.7056 15.924 25.3344 16.0236 25.0869L17.3392 19.8133C17.3886 19.8251 17.4369 19.8372 17.4837 19.8489L17.5518 19.866C17.4716 19.8339 17.3988 19.8133 17.3426 19.7989L18.2812 16.0343C18.3058 15.607 18.1585 15.0678 17.3438 14.8645C17.3753 14.8432 15.8827 14.5012 15.8827 14.5012L16.4179 12.3528L19.1922 13.0454L19.1899 13.0558C19.6071 13.1595 20.0368 13.258 20.4745 13.3577L21.299 10.0543L23.3097 10.5556L22.5017 13.7943C23.0414 13.9175 23.5847 14.0418 24.1135 14.1735L24.9157 10.9561L26.9274 11.4573L26.1035 14.7619ZM25.5397 25.8322C24.9694 28.124 21.3818 27.1765 19.7403 26.743C19.5928 26.704 19.4607 26.6691 19.3481 26.6412L20.4529 22.2132C20.5899 22.2474 20.7573 22.285 20.947 22.3275C22.6448 22.7084 26.1242 23.489 25.5397 25.8322ZM21.288 20.2726C22.6566 20.6378 25.6418 21.4344 26.1618 19.3516C26.6928 17.221 23.7914 16.5788 22.3744 16.2651C22.215 16.2299 22.0744 16.1988 21.9596 16.1702L20.958 20.1863C21.0526 20.2098 21.1637 20.2394 21.288 20.2726Z" fill="#F7931A"/>
</svg>
