<svg width="45" height="44" viewBox="0 0 45 44" fill="none" xmlns="http://www.w3.org/2000/svg">
<g clip-path="url(#clip0_1273_20914)">
<path fill-rule="evenodd" clip-rule="evenodd" d="M3.7993 16.8021C2.70323 16.132 1.4523 15.5931 0.0537109 15.2192L0.112299 14.9278H5.84727C6.6245 14.9584 7.25515 15.2192 7.46047 16.1391L8.70698 22.7646L9.08845 24.7586L12.579 14.9278H16.3482L10.7457 29.3289H6.97659L3.7993 16.8021ZM15.5424 29.3626L17.772 14.9458H21.3361L19.1065 29.3626H15.5424ZM32.0417 15.2804L31.5579 18.3937L31.2353 18.2406C30.5898 17.949 29.7391 17.6577 28.5804 17.6886C27.1725 17.6886 26.5419 18.3169 26.527 18.9305C26.527 19.6053 27.29 20.0504 28.5366 20.7098C30.5898 21.7371 31.543 22.9946 31.5284 24.6359C31.4993 27.6264 29.0645 29.5593 25.3245 29.5593C23.7259 29.5437 22.1859 29.1914 21.35 28.7925L21.8485 25.5563L22.3177 25.786C23.4766 26.3231 24.2392 26.5533 25.662 26.5533C26.6886 26.5533 27.7885 26.1083 27.803 25.142C27.803 24.5131 27.3337 24.0531 25.955 23.3475C24.6059 22.6573 22.8019 21.507 22.831 19.4366C22.846 16.6301 25.3245 14.667 28.8446 14.667C30.2232 14.667 31.338 14.9891 32.0417 15.2804ZM41.179 14.9278L44.0537 29.3446H40.7535C40.7535 29.3446 40.431 27.6879 40.3284 27.1819H35.7525C35.6203 27.5653 35.0043 29.3446 35.0043 29.3446H31.2644L36.5589 16.1241C36.9255 15.1886 37.571 14.9278 38.4217 14.9278H41.179ZM36.7791 24.237H39.7418C39.5951 23.5163 38.9205 20.0652 38.9205 20.0652L38.6711 18.8232C38.495 19.36 38.187 20.2341 38.2018 20.2034C38.2018 20.2034 37.0726 23.4089 36.7791 24.237Z" fill="#2D51FF"/>
</g>
<defs>
<clipPath id="clip0_1273_20914">
<rect width="44" height="44" fill="white" transform="translate(0.0537109)"/>
</clipPath>
</defs>
</svg>
