<svg width="45" height="44" viewBox="0 0 45 44" fill="none" xmlns="http://www.w3.org/2000/svg">
<path d="M10.3555 25.1523L22.0465 31.8546V41.2505L10.3555 25.1523Z" fill="white"/>
<path d="M22.0479 3.66602L10.1377 22.8961L22.0479 17.647V3.66602Z" fill="white"/>
<path d="M22.0479 29.674L10.1377 22.8966L22.0479 17.6475V29.674Z" fill="white"/>
<path d="M22.0459 3.66602L33.969 22.8961L22.0459 17.647V3.66602Z" fill="white"/>
<path d="M22.0459 29.674L33.969 22.8966L22.0459 17.6475V29.674Z" fill="white"/>
<path d="M33.737 25.1523L22.0459 31.8546V41.2505L33.737 25.1523Z" fill="white"/>
<path opacity="0.45" d="M10.1377 22.8961L22.0479 29.6737V17.647V3.66602L10.1377 22.8961Z" fill="#3C3C3D"/>
<path opacity="0.6" d="M22.0479 17.6475L10.1377 22.8966L22.0479 29.674L33.9709 22.8966L22.0479 17.6475Z" fill="#3C3C3D"/>
<path opacity="0.8" d="M22.0459 3.66602V17.647V29.6737L33.969 22.8961L22.0459 3.66602Z" fill="#3C3C3D"/>
<path opacity="0.45" d="M10.3555 25.1523L22.0465 31.8546V41.2505L10.3555 25.1523Z" fill="#3C3C3D"/>
<path opacity="0.8" d="M33.737 25.1523L22.0459 31.8546V41.2505L33.737 25.1523Z" fill="#3C3C3D"/>
</svg>
