<svg width="45" height="44" viewBox="0 0 45 44" fill="none" xmlns="http://www.w3.org/2000/svg">
<g clip-path="url(#clip0_1273_20916)">
<path d="M28.0041 11.1475H16.1064V32.4486H28.0041V11.1475Z" fill="#EB611D"/>
<path d="M16.8613 21.796C16.8613 17.4759 18.892 13.6255 22.0535 11.1471C19.7418 9.33203 16.8223 8.25 13.6519 8.25C6.14126 8.25 0.0546875 14.3154 0.0546875 21.796C0.0546875 29.2778 6.14126 35.3421 13.6519 35.3421C16.8234 35.3421 19.7429 34.2601 22.0546 32.4472C18.892 29.9655 16.8613 26.1196 16.8613 21.796Z" fill="#E41322"/>
<path d="M44.0558 21.796C44.0558 29.2778 37.9692 35.3421 30.4575 35.3421C27.2871 35.3421 24.3676 34.2601 22.0547 32.4472C25.2185 29.9644 27.2492 26.1185 27.2492 21.796C27.2492 17.4759 25.2185 13.6255 22.0547 11.1471C24.3687 9.33203 27.2871 8.25 30.4586 8.25C37.9703 8.25 44.0558 14.3154 44.0558 21.796Z" fill="#F59E21"/>
</g>
<defs>
<clipPath id="clip0_1273_20916">
<rect width="44" height="44" fill="white" transform="translate(0.0537109)"/>
</clipPath>
</defs>
</svg>
