<svg width="45" height="44" viewBox="0 0 45 44" fill="none" xmlns="http://www.w3.org/2000/svg">
<path d="M22.0511 40.3327C32.1763 40.3327 40.3844 32.1246 40.3844 21.9993C40.3844 11.8741 32.1763 3.66602 22.0511 3.66602C11.9259 3.66602 3.71777 11.8741 3.71777 21.9993C3.71777 32.1246 11.9259 40.3327 22.0511 40.3327Z" fill="#26A17B"/>
<path d="M24.0055 23.6914V23.6885C23.8788 23.6974 23.2244 23.7357 21.7684 23.7357C20.6041 23.7357 19.7877 23.7032 19.4988 23.6885V23.6914C15.0216 23.494 11.6821 22.7158 11.6821 21.7814C11.6821 20.8501 15.0246 20.069 19.4988 19.8715V22.9163C19.7907 22.9369 20.6307 22.987 21.789 22.987C23.1802 22.987 23.8759 22.928 24.0055 22.9163V19.8744C28.4739 20.0749 31.8046 20.853 31.8046 21.7844C31.8046 22.7158 28.471 23.494 24.0055 23.6943V23.6914ZM24.0055 19.5591V16.8356H30.2395V12.6826H13.2679V16.8356H19.5018V19.5591C14.4351 19.7919 10.627 20.7941 10.627 21.9967C10.627 23.1993 14.438 24.2014 19.5018 24.4371V33.1676H24.0085V24.4371C29.0663 24.2043 32.8686 23.2022 32.8686 21.9996C32.8686 20.8 29.0663 19.7948 24.0085 19.562" fill="white"/>
</svg>
