<svg xmlns="http://www.w3.org/2000/svg" xmlns:xlink="http://www.w3.org/1999/xlink" width="100" zoomAndPan="magnify" viewBox="0 0 75 74.999997" height="100" preserveAspectRatio="xMidYMid meet" version="1.0"><path fill="#225980" d="M 60 30 C 60 30.984375 59.953125 31.960938 59.855469 32.941406 C 59.757812 33.917969 59.613281 34.890625 59.421875 35.851562 C 59.230469 36.816406 58.992188 37.769531 58.707031 38.707031 C 58.421875 39.648438 58.09375 40.574219 57.714844 41.480469 C 57.339844 42.386719 56.921875 43.273438 56.457031 44.140625 C 55.996094 45.007812 55.488281 45.851562 54.945312 46.667969 C 54.398438 47.484375 53.8125 48.273438 53.191406 49.03125 C 52.566406 49.792969 51.90625 50.519531 51.214844 51.214844 C 50.519531 51.90625 49.792969 52.566406 49.03125 53.191406 C 48.273438 53.8125 47.484375 54.398438 46.667969 54.945312 C 45.851562 55.488281 45.007812 55.996094 44.140625 56.457031 C 43.273438 56.921875 42.386719 57.339844 41.480469 57.714844 C 40.574219 58.09375 39.648438 58.421875 38.707031 58.707031 C 37.769531 58.992188 36.816406 59.230469 35.851562 59.421875 C 34.890625 59.613281 33.917969 59.757812 32.941406 59.855469 C 31.960938 59.953125 30.984375 60 30 60 C 29.015625 60 28.039062 59.953125 27.058594 59.855469 C 26.082031 59.757812 25.109375 59.613281 24.148438 59.421875 C 23.183594 59.230469 22.230469 58.992188 21.292969 58.707031 C 20.351562 58.421875 19.425781 58.09375 18.519531 57.714844 C 17.613281 57.339844 16.726562 56.921875 15.859375 56.457031 C 14.992188 55.996094 14.148438 55.488281 13.332031 54.945312 C 12.515625 54.398438 11.726562 53.8125 10.96875 53.191406 C 10.207031 52.566406 9.480469 51.90625 8.785156 51.214844 C 8.09375 50.519531 7.433594 49.792969 6.808594 49.03125 C 6.1875 48.273438 5.601562 47.484375 5.054688 46.667969 C 4.511719 45.851562 4.003906 45.007812 3.542969 44.140625 C 3.078125 43.273438 2.660156 42.386719 2.285156 41.480469 C 1.90625 40.574219 1.578125 39.648438 1.292969 38.707031 C 1.007812 37.769531 0.769531 36.816406 0.578125 35.851562 C 0.382812 34.890625 0.242188 33.917969 0.144531 32.941406 C 0.046875 31.960938 0 30.984375 0 30 C 0 29.015625 0.046875 28.039062 0.144531 27.058594 C 0.242188 26.082031 0.382812 25.109375 0.578125 24.148438 C 0.769531 23.183594 1.007812 22.230469 1.292969 21.292969 C 1.578125 20.351562 1.90625 19.425781 2.285156 18.519531 C 2.660156 17.613281 3.078125 16.726562 3.542969 15.859375 C 4.003906 14.992188 4.511719 14.148438 5.054688 13.332031 C 5.601562 12.515625 6.1875 11.726562 6.808594 10.96875 C 7.433594 10.207031 8.09375 9.480469 8.785156 8.785156 C 9.480469 8.09375 10.207031 7.433594 10.96875 6.808594 C 11.726562 6.1875 12.515625 5.601562 13.332031 5.054688 C 14.148438 4.511719 14.992188 4.003906 15.859375 3.542969 C 16.726562 3.078125 17.613281 2.660156 18.519531 2.285156 C 19.425781 1.90625 20.351562 1.578125 21.292969 1.292969 C 22.230469 1.007812 23.183594 0.769531 24.148438 0.578125 C 25.109375 0.382812 26.082031 0.242188 27.058594 0.144531 C 28.039062 0.046875 29.015625 0 30 0 C 30.984375 0 31.960938 0.046875 32.941406 0.144531 C 33.917969 0.242188 34.890625 0.382812 35.851562 0.578125 C 36.816406 0.769531 37.769531 1.007812 38.707031 1.292969 C 39.648438 1.578125 40.574219 1.90625 41.480469 2.285156 C 42.386719 2.660156 43.273438 3.078125 44.140625 3.542969 C 45.007812 4.003906 45.851562 4.511719 46.667969 5.054688 C 47.484375 5.601562 48.273438 6.1875 49.03125 6.808594 C 49.792969 7.433594 50.519531 8.09375 51.214844 8.785156 C 51.90625 9.480469 52.566406 10.207031 53.191406 10.96875 C 53.8125 11.726562 54.398438 12.515625 54.945312 13.332031 C 55.488281 14.148438 55.996094 14.992188 56.457031 15.859375 C 56.921875 16.726562 57.339844 17.613281 57.714844 18.519531 C 58.09375 19.425781 58.421875 20.351562 58.707031 21.292969 C 58.992188 22.230469 59.230469 23.183594 59.421875 24.148438 C 59.613281 25.109375 59.757812 26.082031 59.855469 27.058594 C 59.953125 28.039062 60 29.015625 60 30 Z M 60 30 " fill-opacity="1" fill-rule="nonzero"/><path fill="#419bd7" d="M 56.171875 30 C 56.171875 30.855469 56.132812 31.710938 56.046875 32.566406 C 55.964844 33.417969 55.839844 34.265625 55.671875 35.105469 C 55.503906 35.945312 55.296875 36.777344 55.046875 37.597656 C 54.796875 38.417969 54.507812 39.222656 54.179688 40.015625 C 53.851562 40.808594 53.488281 41.582031 53.082031 42.339844 C 52.679688 43.09375 52.238281 43.828125 51.761719 44.542969 C 51.285156 45.253906 50.777344 45.941406 50.234375 46.605469 C 49.6875 47.265625 49.113281 47.902344 48.507812 48.507812 C 47.902344 49.113281 47.265625 49.6875 46.605469 50.234375 C 45.941406 50.777344 45.253906 51.285156 44.542969 51.761719 C 43.828125 52.238281 43.09375 52.679688 42.339844 53.082031 C 41.582031 53.488281 40.808594 53.851562 40.015625 54.179688 C 39.222656 54.507812 38.417969 54.796875 37.597656 55.046875 C 36.777344 55.296875 35.945312 55.503906 35.105469 55.671875 C 34.265625 55.839844 33.417969 55.964844 32.566406 56.046875 C 31.710938 56.132812 30.855469 56.171875 30 56.171875 C 29.144531 56.171875 28.289062 56.132812 27.433594 56.046875 C 26.582031 55.964844 25.734375 55.839844 24.894531 55.671875 C 24.054688 55.503906 23.222656 55.296875 22.402344 55.046875 C 21.582031 54.796875 20.777344 54.507812 19.984375 54.179688 C 19.191406 53.851562 18.417969 53.488281 17.660156 53.082031 C 16.90625 52.679688 16.171875 52.238281 15.457031 51.761719 C 14.746094 51.285156 14.058594 50.777344 13.394531 50.234375 C 12.734375 49.6875 12.097656 49.113281 11.492188 48.507812 C 10.886719 47.902344 10.3125 47.265625 9.765625 46.605469 C 9.222656 45.941406 8.714844 45.253906 8.238281 44.542969 C 7.761719 43.828125 7.320312 43.09375 6.917969 42.339844 C 6.511719 41.582031 6.148438 40.808594 5.820312 40.015625 C 5.492188 39.222656 5.203125 38.417969 4.953125 37.597656 C 4.703125 36.777344 4.496094 35.945312 4.328125 35.105469 C 4.160156 34.265625 4.035156 33.417969 3.953125 32.566406 C 3.867188 31.710938 3.828125 30.855469 3.828125 30 C 3.828125 29.144531 3.867188 28.289062 3.953125 27.433594 C 4.035156 26.582031 4.160156 25.734375 4.328125 24.894531 C 4.496094 24.054688 4.703125 23.222656 4.953125 22.402344 C 5.203125 21.582031 5.492188 20.777344 5.820312 19.984375 C 6.148438 19.191406 6.511719 18.417969 6.917969 17.660156 C 7.320312 16.90625 7.761719 16.171875 8.238281 15.457031 C 8.714844 14.746094 9.222656 14.058594 9.765625 13.394531 C 10.3125 12.734375 10.886719 12.097656 11.492188 11.492188 C 12.097656 10.886719 12.734375 10.3125 13.394531 9.765625 C 14.058594 9.222656 14.746094 8.714844 15.457031 8.238281 C 16.171875 7.761719 16.90625 7.320312 17.660156 6.917969 C 18.417969 6.511719 19.191406 6.148438 19.984375 5.820312 C 20.777344 5.492188 21.582031 5.203125 22.402344 4.953125 C 23.222656 4.703125 24.054688 4.496094 24.894531 4.328125 C 25.734375 4.160156 26.582031 4.035156 27.433594 3.953125 C 28.289062 3.867188 29.144531 3.828125 30 3.828125 C 30.855469 3.828125 31.710938 3.867188 32.566406 3.953125 C 33.417969 4.035156 34.265625 4.160156 35.105469 4.328125 C 35.945312 4.496094 36.777344 4.703125 37.597656 4.953125 C 38.417969 5.203125 39.222656 5.492188 40.015625 5.820312 C 40.808594 6.148438 41.582031 6.511719 42.339844 6.917969 C 43.09375 7.320312 43.828125 7.761719 44.542969 8.238281 C 45.253906 8.714844 45.941406 9.222656 46.605469 9.765625 C 47.265625 10.3125 47.902344 10.886719 48.507812 11.492188 C 49.113281 12.097656 49.6875 12.734375 50.234375 13.394531 C 50.777344 14.058594 51.285156 14.746094 51.761719 15.457031 C 52.238281 16.171875 52.679688 16.90625 53.082031 17.660156 C 53.488281 18.417969 53.851562 19.191406 54.179688 19.984375 C 54.507812 20.777344 54.796875 21.582031 55.046875 22.402344 C 55.296875 23.222656 55.503906 24.054688 55.671875 24.894531 C 55.839844 25.734375 55.964844 26.582031 56.046875 27.433594 C 56.132812 28.289062 56.171875 29.144531 56.171875 30 Z M 56.171875 30 " fill-opacity="1" fill-rule="nonzero"/><path fill="#26669e" d="M 55 30 C 55 30.820312 54.960938 31.636719 54.878906 32.449219 C 54.800781 33.265625 54.679688 34.074219 54.519531 34.878906 C 54.359375 35.679688 54.160156 36.472656 53.921875 37.257812 C 53.6875 38.039062 53.410156 38.8125 53.097656 39.566406 C 52.785156 40.324219 52.433594 41.0625 52.046875 41.785156 C 51.660156 42.507812 51.242188 43.207031 50.785156 43.890625 C 50.332031 44.570312 49.84375 45.226562 49.324219 45.859375 C 48.804688 46.492188 48.257812 47.097656 47.675781 47.675781 C 47.097656 48.257812 46.492188 48.804688 45.859375 49.324219 C 45.226562 49.84375 44.570312 50.332031 43.890625 50.785156 C 43.207031 51.242188 42.507812 51.660156 41.785156 52.046875 C 41.0625 52.433594 40.324219 52.785156 39.566406 53.097656 C 38.8125 53.410156 38.039062 53.6875 37.257812 53.921875 C 36.472656 54.160156 35.679688 54.359375 34.878906 54.519531 C 34.074219 54.679688 33.265625 54.800781 32.449219 54.878906 C 31.636719 54.960938 30.820312 55 30 55 C 29.179688 55 28.363281 54.960938 27.550781 54.878906 C 26.734375 54.800781 25.925781 54.679688 25.121094 54.519531 C 24.320312 54.359375 23.527344 54.160156 22.742188 53.921875 C 21.960938 53.6875 21.1875 53.410156 20.433594 53.097656 C 19.675781 52.785156 18.9375 52.433594 18.214844 52.046875 C 17.492188 51.660156 16.792969 51.242188 16.109375 50.785156 C 15.429688 50.332031 14.773438 49.84375 14.140625 49.324219 C 13.507812 48.804688 12.902344 48.257812 12.324219 47.675781 C 11.742188 47.097656 11.195312 46.492188 10.675781 45.859375 C 10.15625 45.226562 9.667969 44.570312 9.214844 43.890625 C 8.757812 43.207031 8.339844 42.507812 7.953125 41.785156 C 7.566406 41.0625 7.214844 40.324219 6.902344 39.566406 C 6.589844 38.8125 6.3125 38.039062 6.078125 37.257812 C 5.839844 36.472656 5.640625 35.679688 5.480469 34.878906 C 5.320312 34.074219 5.199219 33.265625 5.121094 32.449219 C 5.039062 31.636719 5 30.820312 5 30 C 5 29.179688 5.039062 28.363281 5.121094 27.550781 C 5.199219 26.734375 5.320312 25.925781 5.480469 25.121094 C 5.640625 24.320312 5.839844 23.527344 6.078125 22.742188 C 6.3125 21.960938 6.589844 21.1875 6.902344 20.433594 C 7.214844 19.675781 7.566406 18.9375 7.953125 18.214844 C 8.339844 17.492188 8.757812 16.792969 9.214844 16.109375 C 9.667969 15.429688 10.15625 14.773438 10.675781 14.140625 C 11.195312 13.507812 11.742188 12.902344 12.324219 12.324219 C 12.902344 11.742188 13.507812 11.195312 14.140625 10.675781 C 14.773438 10.15625 15.429688 9.667969 16.109375 9.214844 C 16.792969 8.757812 17.492188 8.339844 18.214844 7.953125 C 18.9375 7.566406 19.675781 7.214844 20.433594 6.902344 C 21.1875 6.589844 21.960938 6.3125 22.742188 6.078125 C 23.527344 5.839844 24.320312 5.640625 25.121094 5.480469 C 25.925781 5.320312 26.734375 5.199219 27.550781 5.121094 C 28.363281 5.039062 29.179688 5 30 5 C 30.820312 5 31.636719 5.039062 32.449219 5.121094 C 33.265625 5.199219 34.074219 5.320312 34.878906 5.480469 C 35.679688 5.640625 36.472656 5.839844 37.257812 6.078125 C 38.039062 6.3125 38.8125 6.589844 39.566406 6.902344 C 40.324219 7.214844 41.0625 7.566406 41.785156 7.953125 C 42.507812 8.339844 43.207031 8.757812 43.890625 9.214844 C 44.570312 9.667969 45.226562 10.15625 45.859375 10.675781 C 46.492188 11.195312 47.097656 11.742188 47.675781 12.324219 C 48.257812 12.902344 48.804688 13.507812 49.324219 14.140625 C 49.84375 14.773438 50.332031 15.429688 50.785156 16.109375 C 51.242188 16.792969 51.660156 17.492188 52.046875 18.214844 C 52.433594 18.9375 52.785156 19.675781 53.097656 20.433594 C 53.410156 21.1875 53.6875 21.960938 53.921875 22.742188 C 54.160156 23.527344 54.359375 24.320312 54.519531 25.121094 C 54.679688 25.925781 54.800781 26.734375 54.878906 27.550781 C 54.960938 28.363281 55 29.179688 55 30 Z M 55 30 " fill-opacity="1" fill-rule="nonzero"/><path fill="#18435e" d="M 12.578125 44.921875 C 12.574219 48.59375 13.179688 52.160156 14.390625 55.625 C 15.820312 56.496094 17.3125 57.242188 18.863281 57.863281 C 20.417969 58.484375 22.011719 58.972656 23.648438 59.324219 C 25.28125 59.679688 26.933594 59.894531 28.605469 59.972656 C 30.277344 60.050781 31.945312 59.992188 33.605469 59.789062 C 35.265625 59.589844 36.898438 59.25 38.503906 58.777344 C 40.109375 58.304688 41.660156 57.699219 43.164062 56.964844 C 44.667969 56.230469 46.101562 55.378906 47.460938 54.402344 C 48.820312 53.429688 50.09375 52.351562 51.273438 51.164062 C 52.453125 49.980469 53.523438 48.703125 54.492188 47.335938 C 55.457031 45.972656 56.304688 44.535156 57.03125 43.027344 C 57.757812 41.519531 58.351562 39.964844 58.820312 38.355469 C 59.285156 36.75 59.613281 35.113281 59.804688 33.453125 C 59.996094 31.792969 60.050781 30.125 59.964844 28.453125 C 59.878906 26.78125 59.652344 25.132812 59.289062 23.496094 C 58.925781 21.863281 58.429688 20.273438 57.800781 18.722656 C 57.171875 17.171875 56.417969 15.683594 55.539062 14.261719 C 54.933594 14.050781 54.320312 13.863281 53.699219 13.6875 C 53.082031 13.515625 52.457031 13.363281 51.828125 13.226562 C 51.203125 13.09375 50.570312 12.976562 49.933594 12.878906 C 49.300781 12.78125 48.660156 12.699219 48.023438 12.640625 C 47.382812 12.582031 46.742188 12.539062 46.097656 12.519531 C 45.457031 12.496094 44.816406 12.492188 44.171875 12.511719 C 43.53125 12.527344 42.890625 12.5625 42.25 12.617188 C 41.609375 12.671875 40.96875 12.746094 40.335938 12.835938 C 39.699219 12.929688 39.066406 13.039062 38.4375 13.171875 C 37.808594 13.300781 37.183594 13.449219 36.5625 13.617188 C 35.941406 13.785156 35.328125 13.96875 34.71875 14.171875 C 34.109375 14.375 33.503906 14.597656 32.910156 14.839844 C 32.3125 15.078125 31.722656 15.335938 31.144531 15.609375 C 30.5625 15.882812 29.992188 16.175781 29.425781 16.484375 C 28.863281 16.792969 28.308594 17.117188 27.765625 17.460938 C 27.222656 17.800781 26.6875 18.160156 26.164062 18.53125 C 25.640625 18.90625 25.128906 19.292969 24.628906 19.695312 C 24.128906 20.101562 23.640625 20.519531 23.167969 20.953125 C 22.691406 21.382812 22.230469 21.832031 21.78125 22.289062 C 21.332031 22.75 20.898438 23.222656 20.476562 23.710938 C 20.058594 24.195312 19.652344 24.695312 19.261719 25.203125 C 18.871094 25.714844 18.496094 26.234375 18.136719 26.765625 C 17.777344 27.300781 17.433594 27.84375 17.105469 28.394531 C 16.777344 28.949219 16.464844 29.511719 16.171875 30.082031 C 15.878906 30.652344 15.601562 31.230469 15.339844 31.820312 C 15.082031 32.40625 14.839844 33.003906 14.617188 33.605469 C 14.390625 34.207031 14.183594 34.816406 13.996094 35.429688 C 13.808594 36.042969 13.640625 36.664062 13.488281 37.289062 C 13.335938 37.914062 13.203125 38.539062 13.089844 39.171875 C 12.976562 39.804688 12.882812 40.441406 12.804688 41.078125 C 12.730469 41.714844 12.671875 42.355469 12.632812 42.996094 C 12.59375 43.640625 12.578125 44.28125 12.578125 44.921875 Z M 12.578125 44.921875 " fill-opacity="1" fill-rule="nonzero"/><path fill="#7fcdf2" d="M 12.5 28.75 L 21.25 28.75 L 21.25 31.25 L 12.5 31.25 Z M 12.5 28.75 " fill-opacity="1" fill-rule="nonzero"/><path fill="#7fcdf2" d="M 25 26.25 L 18.75 26.25 C 18.585938 26.25 18.425781 26.21875 18.273438 26.15625 C 18.117188 26.089844 17.984375 26 17.867188 25.882812 C 17.75 25.765625 17.660156 25.632812 17.59375 25.476562 C 17.53125 25.324219 17.5 25.164062 17.5 25 L 17.5 20 L 20 20 L 20 23.75 L 25 23.75 Z M 25 26.25 " fill-opacity="1" fill-rule="nonzero"/><path fill="#7fcdf2" d="M 28.75 13.75 L 31.25 13.75 L 31.25 22.5 L 28.75 22.5 Z M 28.75 13.75 " fill-opacity="1" fill-rule="nonzero"/><path fill="#f9d161" d="M 15 29.921875 C 15 30.253906 14.9375 30.574219 14.808594 30.878906 C 14.683594 31.1875 14.503906 31.457031 14.269531 31.691406 C 14.035156 31.925781 13.761719 32.105469 13.457031 32.234375 C 13.152344 32.359375 12.832031 32.421875 12.5 32.421875 C 12.167969 32.421875 11.847656 32.359375 11.542969 32.234375 C 11.238281 32.105469 10.964844 31.925781 10.730469 31.691406 C 10.496094 31.457031 10.316406 31.1875 10.191406 30.878906 C 10.0625 30.574219 10 30.253906 10 29.921875 C 10 29.59375 10.0625 29.273438 10.191406 28.96875 C 10.316406 28.660156 10.496094 28.390625 10.730469 28.15625 C 10.964844 27.921875 11.238281 27.742188 11.542969 27.613281 C 11.847656 27.488281 12.167969 27.421875 12.5 27.421875 C 12.832031 27.421875 13.152344 27.488281 13.457031 27.613281 C 13.761719 27.742188 14.035156 27.921875 14.269531 28.15625 C 14.503906 28.390625 14.683594 28.660156 14.808594 28.96875 C 14.9375 29.273438 15 29.59375 15 29.921875 Z M 15 29.921875 " fill-opacity="1" fill-rule="nonzero"/><path fill="#f9d161" d="M 32.5 12.421875 C 32.5 12.753906 32.4375 13.074219 32.308594 13.378906 C 32.183594 13.6875 32.003906 13.957031 31.769531 14.191406 C 31.535156 14.425781 31.261719 14.605469 30.957031 14.734375 C 30.652344 14.859375 30.332031 14.921875 30 14.921875 C 29.667969 14.921875 29.347656 14.859375 29.042969 14.734375 C 28.738281 14.605469 28.464844 14.425781 28.230469 14.191406 C 27.996094 13.957031 27.816406 13.6875 27.691406 13.378906 C 27.5625 13.074219 27.5 12.753906 27.5 12.421875 C 27.5 12.09375 27.5625 11.773438 27.691406 11.46875 C 27.816406 11.160156 27.996094 10.890625 28.230469 10.65625 C 28.464844 10.421875 28.738281 10.242188 29.042969 10.113281 C 29.347656 9.988281 29.667969 9.921875 30 9.921875 C 30.332031 9.921875 30.652344 9.988281 30.957031 10.113281 C 31.261719 10.242188 31.535156 10.421875 31.769531 10.65625 C 32.003906 10.890625 32.183594 11.160156 32.308594 11.46875 C 32.4375 11.773438 32.5 12.09375 32.5 12.421875 Z M 32.5 12.421875 " fill-opacity="1" fill-rule="nonzero"/><path fill="#f9d161" d="M 21.25 18.671875 C 21.25 19.003906 21.1875 19.324219 21.058594 19.628906 C 20.933594 19.9375 20.753906 20.207031 20.519531 20.441406 C 20.285156 20.675781 20.011719 20.855469 19.707031 20.984375 C 19.402344 21.109375 19.082031 21.171875 18.75 21.171875 C 18.417969 21.171875 18.097656 21.109375 17.792969 20.984375 C 17.488281 20.855469 17.214844 20.675781 16.980469 20.441406 C 16.746094 20.207031 16.566406 19.9375 16.441406 19.628906 C 16.3125 19.324219 16.25 19.003906 16.25 18.671875 C 16.25 18.34375 16.3125 18.023438 16.441406 17.71875 C 16.566406 17.410156 16.746094 17.140625 16.980469 16.90625 C 17.214844 16.671875 17.488281 16.492188 17.792969 16.363281 C 18.097656 16.238281 18.417969 16.171875 18.75 16.171875 C 19.082031 16.171875 19.402344 16.238281 19.707031 16.363281 C 20.011719 16.492188 20.285156 16.671875 20.519531 16.90625 C 20.753906 17.140625 20.933594 17.410156 21.058594 17.71875 C 21.1875 18.023438 21.25 18.34375 21.25 18.671875 Z M 21.25 18.671875 " fill-opacity="1" fill-rule="nonzero"/><path fill="#4aaee3" d="M 21.25 28.75 L 16.902344 28.75 C 16.433594 29.5625 16 30.394531 15.601562 31.25 L 21.25 31.25 Z M 21.25 28.75 " fill-opacity="1" fill-rule="nonzero"/><path fill="#4aaee3" d="M 25 26.25 L 25 23.75 L 20.457031 23.75 C 19.777344 24.535156 19.136719 25.355469 18.53125 26.207031 C 18.605469 26.226562 18.675781 26.242188 18.75 26.25 Z M 25 26.25 " fill-opacity="1" fill-rule="nonzero"/><path fill="#4aaee3" d="M 31.25 22.5 L 31.25 15.558594 C 30.394531 15.960938 29.5625 16.398438 28.75 16.871094 L 28.75 22.5 Z M 31.25 22.5 " fill-opacity="1" fill-rule="nonzero"/><path fill="#333333" d="M 75 45 C 75 45.984375 74.953125 46.960938 74.855469 47.941406 C 74.757812 48.917969 74.613281 49.890625 74.421875 50.851562 C 74.230469 51.816406 73.992188 52.769531 73.707031 53.707031 C 73.421875 54.648438 73.09375 55.574219 72.714844 56.480469 C 72.339844 57.386719 71.921875 58.273438 71.457031 59.140625 C 70.996094 60.007812 70.488281 60.851562 69.945312 61.667969 C 69.398438 62.484375 68.8125 63.273438 68.191406 64.03125 C 67.566406 64.792969 66.90625 65.519531 66.214844 66.214844 C 65.519531 66.90625 64.792969 67.566406 64.03125 68.191406 C 63.273438 68.8125 62.484375 69.398438 61.667969 69.945312 C 60.851562 70.488281 60.007812 70.996094 59.140625 71.457031 C 58.273438 71.921875 57.386719 72.339844 56.480469 72.714844 C 55.574219 73.09375 54.648438 73.421875 53.707031 73.707031 C 52.769531 73.992188 51.816406 74.230469 50.851562 74.421875 C 49.890625 74.613281 48.917969 74.757812 47.941406 74.855469 C 46.960938 74.953125 45.984375 75 45 75 C 44.015625 75 43.039062 74.953125 42.058594 74.855469 C 41.082031 74.757812 40.109375 74.613281 39.148438 74.421875 C 38.183594 74.230469 37.230469 73.992188 36.292969 73.707031 C 35.351562 73.421875 34.425781 73.09375 33.519531 72.714844 C 32.613281 72.339844 31.726562 71.921875 30.859375 71.457031 C 29.992188 70.996094 29.148438 70.488281 28.332031 69.945312 C 27.515625 69.398438 26.726562 68.8125 25.96875 68.191406 C 25.207031 67.566406 24.480469 66.90625 23.785156 66.214844 C 23.09375 65.519531 22.433594 64.792969 21.808594 64.03125 C 21.1875 63.273438 20.601562 62.484375 20.054688 61.667969 C 19.511719 60.851562 19.003906 60.007812 18.542969 59.140625 C 18.078125 58.273438 17.660156 57.386719 17.285156 56.480469 C 16.90625 55.574219 16.578125 54.648438 16.292969 53.707031 C 16.007812 52.769531 15.769531 51.816406 15.578125 50.851562 C 15.382812 49.890625 15.242188 48.917969 15.144531 47.941406 C 15.046875 46.960938 15 45.984375 15 45 C 15 44.015625 15.046875 43.039062 15.144531 42.058594 C 15.242188 41.082031 15.382812 40.109375 15.578125 39.148438 C 15.769531 38.183594 16.007812 37.230469 16.292969 36.292969 C 16.578125 35.351562 16.90625 34.425781 17.285156 33.519531 C 17.660156 32.613281 18.078125 31.726562 18.542969 30.859375 C 19.003906 29.992188 19.511719 29.148438 20.054688 28.332031 C 20.601562 27.515625 21.1875 26.726562 21.808594 25.96875 C 22.433594 25.207031 23.09375 24.480469 23.785156 23.785156 C 24.480469 23.09375 25.207031 22.433594 25.96875 21.808594 C 26.726562 21.1875 27.515625 20.601562 28.332031 20.054688 C 29.148438 19.511719 29.992188 19.003906 30.859375 18.542969 C 31.726562 18.078125 32.613281 17.660156 33.519531 17.285156 C 34.425781 16.90625 35.351562 16.578125 36.292969 16.292969 C 37.230469 16.007812 38.183594 15.769531 39.148438 15.578125 C 40.109375 15.382812 41.082031 15.242188 42.058594 15.144531 C 43.039062 15.046875 44.015625 15 45 15 C 45.984375 15 46.960938 15.046875 47.941406 15.144531 C 48.917969 15.242188 49.890625 15.382812 50.851562 15.578125 C 51.816406 15.769531 52.769531 16.007812 53.707031 16.292969 C 54.648438 16.578125 55.574219 16.90625 56.480469 17.285156 C 57.386719 17.660156 58.273438 18.078125 59.140625 18.542969 C 60.007812 19.003906 60.851562 19.511719 61.667969 20.054688 C 62.484375 20.601562 63.273438 21.1875 64.03125 21.808594 C 64.792969 22.433594 65.519531 23.09375 66.214844 23.785156 C 66.90625 24.480469 67.566406 25.207031 68.191406 25.96875 C 68.8125 26.726562 69.398438 27.515625 69.945312 28.332031 C 70.488281 29.148438 70.996094 29.992188 71.457031 30.859375 C 71.921875 31.726562 72.339844 32.613281 72.714844 33.519531 C 73.09375 34.425781 73.421875 35.351562 73.707031 36.292969 C 73.992188 37.230469 74.230469 38.183594 74.421875 39.148438 C 74.613281 40.109375 74.757812 41.082031 74.855469 42.058594 C 74.953125 43.039062 75 44.015625 75 45 Z M 75 45 " fill-opacity="1" fill-rule="nonzero"/><path fill="#808080" d="M 71.171875 45 C 71.171875 45.855469 71.132812 46.710938 71.046875 47.566406 C 70.964844 48.417969 70.839844 49.265625 70.671875 50.105469 C 70.503906 50.945312 70.296875 51.777344 70.046875 52.597656 C 69.796875 53.417969 69.507812 54.222656 69.179688 55.015625 C 68.851562 55.808594 68.488281 56.582031 68.082031 57.339844 C 67.679688 58.09375 67.238281 58.828125 66.761719 59.542969 C 66.285156 60.253906 65.777344 60.941406 65.234375 61.605469 C 64.6875 62.265625 64.113281 62.902344 63.507812 63.507812 C 62.902344 64.113281 62.265625 64.6875 61.605469 65.234375 C 60.941406 65.777344 60.253906 66.285156 59.542969 66.761719 C 58.828125 67.238281 58.09375 67.679688 57.339844 68.082031 C 56.582031 68.488281 55.808594 68.851562 55.015625 69.179688 C 54.222656 69.507812 53.417969 69.796875 52.597656 70.046875 C 51.777344 70.296875 50.945312 70.503906 50.105469 70.671875 C 49.265625 70.839844 48.417969 70.964844 47.566406 71.046875 C 46.710938 71.132812 45.855469 71.171875 45 71.171875 C 44.144531 71.171875 43.289062 71.132812 42.433594 71.046875 C 41.582031 70.964844 40.734375 70.839844 39.894531 70.671875 C 39.054688 70.503906 38.222656 70.296875 37.402344 70.046875 C 36.582031 69.796875 35.777344 69.507812 34.984375 69.179688 C 34.191406 68.851562 33.417969 68.488281 32.660156 68.082031 C 31.90625 67.679688 31.171875 67.238281 30.457031 66.761719 C 29.746094 66.285156 29.058594 65.777344 28.394531 65.234375 C 27.734375 64.6875 27.097656 64.113281 26.492188 63.507812 C 25.886719 62.902344 25.3125 62.265625 24.765625 61.605469 C 24.222656 60.941406 23.714844 60.253906 23.238281 59.542969 C 22.761719 58.828125 22.320312 58.09375 21.917969 57.339844 C 21.511719 56.582031 21.148438 55.808594 20.820312 55.015625 C 20.492188 54.222656 20.203125 53.417969 19.953125 52.597656 C 19.703125 51.777344 19.496094 50.945312 19.328125 50.105469 C 19.160156 49.265625 19.035156 48.417969 18.953125 47.566406 C 18.867188 46.710938 18.828125 45.855469 18.828125 45 C 18.828125 44.144531 18.867188 43.289062 18.953125 42.433594 C 19.035156 41.582031 19.160156 40.734375 19.328125 39.894531 C 19.496094 39.054688 19.703125 38.222656 19.953125 37.402344 C 20.203125 36.582031 20.492188 35.777344 20.820312 34.984375 C 21.148438 34.191406 21.511719 33.417969 21.917969 32.660156 C 22.320312 31.90625 22.761719 31.171875 23.238281 30.457031 C 23.714844 29.746094 24.222656 29.058594 24.765625 28.394531 C 25.3125 27.734375 25.886719 27.097656 26.492188 26.492188 C 27.097656 25.886719 27.734375 25.3125 28.394531 24.765625 C 29.058594 24.222656 29.746094 23.714844 30.457031 23.238281 C 31.171875 22.761719 31.90625 22.320312 32.660156 21.917969 C 33.417969 21.511719 34.191406 21.148438 34.984375 20.820312 C 35.777344 20.492188 36.582031 20.203125 37.402344 19.953125 C 38.222656 19.703125 39.054688 19.496094 39.894531 19.328125 C 40.734375 19.160156 41.582031 19.035156 42.433594 18.953125 C 43.289062 18.867188 44.144531 18.828125 45 18.828125 C 45.855469 18.828125 46.710938 18.867188 47.566406 18.953125 C 48.417969 19.035156 49.265625 19.160156 50.105469 19.328125 C 50.945312 19.496094 51.777344 19.703125 52.597656 19.953125 C 53.417969 20.203125 54.222656 20.492188 55.015625 20.820312 C 55.808594 21.148438 56.582031 21.511719 57.339844 21.917969 C 58.09375 22.320312 58.828125 22.761719 59.542969 23.238281 C 60.253906 23.714844 60.941406 24.222656 61.605469 24.765625 C 62.265625 25.3125 62.902344 25.886719 63.507812 26.492188 C 64.113281 27.097656 64.6875 27.734375 65.234375 28.394531 C 65.777344 29.058594 66.285156 29.746094 66.761719 30.457031 C 67.238281 31.171875 67.679688 31.90625 68.082031 32.660156 C 68.488281 33.417969 68.851562 34.191406 69.179688 34.984375 C 69.507812 35.777344 69.796875 36.582031 70.046875 37.402344 C 70.296875 38.222656 70.503906 39.054688 70.671875 39.894531 C 70.839844 40.734375 70.964844 41.582031 71.046875 42.433594 C 71.132812 43.289062 71.171875 44.144531 71.171875 45 Z M 71.171875 45 " fill-opacity="1" fill-rule="nonzero"/><path fill="#ffffff" d="M 70 45 C 70 45.820312 69.960938 46.636719 69.878906 47.449219 C 69.800781 48.265625 69.679688 49.074219 69.519531 49.878906 C 69.359375 50.679688 69.160156 51.472656 68.921875 52.257812 C 68.6875 53.039062 68.410156 53.8125 68.097656 54.566406 C 67.785156 55.324219 67.433594 56.0625 67.046875 56.785156 C 66.660156 57.507812 66.242188 58.207031 65.785156 58.890625 C 65.332031 59.570312 64.84375 60.226562 64.324219 60.859375 C 63.804688 61.492188 63.257812 62.097656 62.675781 62.675781 C 62.097656 63.257812 61.492188 63.804688 60.859375 64.324219 C 60.226562 64.84375 59.570312 65.332031 58.890625 65.785156 C 58.207031 66.242188 57.507812 66.660156 56.785156 67.046875 C 56.0625 67.433594 55.324219 67.785156 54.566406 68.097656 C 53.8125 68.410156 53.039062 68.6875 52.257812 68.921875 C 51.472656 69.160156 50.679688 69.359375 49.878906 69.519531 C 49.074219 69.679688 48.265625 69.800781 47.449219 69.878906 C 46.636719 69.960938 45.820312 70 45 70 C 44.179688 70 43.363281 69.960938 42.550781 69.878906 C 41.734375 69.800781 40.925781 69.679688 40.121094 69.519531 C 39.320312 69.359375 38.527344 69.160156 37.742188 68.921875 C 36.960938 68.6875 36.1875 68.410156 35.433594 68.097656 C 34.675781 67.785156 33.9375 67.433594 33.214844 67.046875 C 32.492188 66.660156 31.792969 66.242188 31.109375 65.785156 C 30.429688 65.332031 29.773438 64.84375 29.140625 64.324219 C 28.507812 63.804688 27.902344 63.257812 27.324219 62.675781 C 26.742188 62.097656 26.195312 61.492188 25.675781 60.859375 C 25.15625 60.226562 24.667969 59.570312 24.214844 58.890625 C 23.757812 58.207031 23.339844 57.507812 22.953125 56.785156 C 22.566406 56.0625 22.214844 55.324219 21.902344 54.566406 C 21.589844 53.8125 21.3125 53.039062 21.078125 52.257812 C 20.839844 51.472656 20.640625 50.679688 20.480469 49.878906 C 20.320312 49.074219 20.199219 48.265625 20.121094 47.449219 C 20.039062 46.636719 20 45.820312 20 45 C 20 44.179688 20.039062 43.363281 20.121094 42.550781 C 20.199219 41.734375 20.320312 40.925781 20.480469 40.121094 C 20.640625 39.320312 20.839844 38.527344 21.078125 37.742188 C 21.3125 36.960938 21.589844 36.1875 21.902344 35.433594 C 22.214844 34.675781 22.566406 33.9375 22.953125 33.214844 C 23.339844 32.492188 23.757812 31.792969 24.214844 31.109375 C 24.667969 30.429688 25.15625 29.773438 25.675781 29.140625 C 26.195312 28.507812 26.742188 27.902344 27.324219 27.324219 C 27.902344 26.742188 28.507812 26.195312 29.140625 25.675781 C 29.773438 25.15625 30.429688 24.667969 31.109375 24.214844 C 31.792969 23.757812 32.492188 23.339844 33.214844 22.953125 C 33.9375 22.566406 34.675781 22.214844 35.433594 21.902344 C 36.1875 21.589844 36.960938 21.3125 37.742188 21.078125 C 38.527344 20.839844 39.320312 20.640625 40.121094 20.480469 C 40.925781 20.320312 41.734375 20.199219 42.550781 20.121094 C 43.363281 20.039062 44.179688 20 45 20 C 45.820312 20 46.636719 20.039062 47.449219 20.121094 C 48.265625 20.199219 49.074219 20.320312 49.878906 20.480469 C 50.679688 20.640625 51.472656 20.839844 52.257812 21.078125 C 53.039062 21.3125 53.8125 21.589844 54.566406 21.902344 C 55.324219 22.214844 56.0625 22.566406 56.785156 22.953125 C 57.507812 23.339844 58.207031 23.757812 58.890625 24.214844 C 59.570312 24.667969 60.226562 25.15625 60.859375 25.675781 C 61.492188 26.195312 62.097656 26.742188 62.675781 27.324219 C 63.257812 27.902344 63.804688 28.507812 64.324219 29.140625 C 64.84375 29.773438 65.332031 30.429688 65.785156 31.109375 C 66.242188 31.792969 66.660156 32.492188 67.046875 33.214844 C 67.433594 33.9375 67.785156 34.675781 68.097656 35.433594 C 68.410156 36.1875 68.6875 36.960938 68.921875 37.742188 C 69.160156 38.527344 69.359375 39.320312 69.519531 40.121094 C 69.679688 40.925781 69.800781 41.734375 69.878906 42.550781 C 69.960938 43.363281 70 44.179688 70 45 Z M 70 45 " fill-opacity="1" fill-rule="nonzero"/><path fill="#000000" d="M 37.5 53.75 L 31.523438 58.011719 C 30.820312 57.285156 30.179688 56.507812 29.601562 55.675781 C 29.019531 54.84375 28.515625 53.96875 28.078125 53.054688 C 27.640625 52.140625 27.28125 51.199219 26.996094 50.226562 C 26.714844 49.253906 26.511719 48.265625 26.386719 47.261719 C 26.265625 46.253906 26.222656 45.246094 26.265625 44.234375 C 26.304688 43.222656 26.429688 42.21875 26.632812 41.226562 C 26.835938 40.234375 27.121094 39.265625 27.480469 38.320312 C 27.84375 37.375 28.277344 36.464844 28.789062 35.585938 L 36.25 46.25 L 33.75 50 Z M 37.5 53.75 " fill-opacity="1" fill-rule="nonzero"/><path fill="#000000" d="M 55.363281 29.375 L 43.75 37.5 L 40 35 L 36.25 38.75 L 31.460938 32.050781 C 32.214844 31.261719 33.03125 30.542969 33.910156 29.894531 C 34.789062 29.25 35.714844 28.683594 36.695312 28.199219 C 37.671875 27.714844 38.683594 27.316406 39.730469 27.007812 C 40.777344 26.703125 41.84375 26.488281 42.925781 26.367188 C 44.011719 26.246094 45.097656 26.21875 46.1875 26.289062 C 47.273438 26.355469 48.347656 26.519531 49.410156 26.773438 C 50.46875 27.03125 51.5 27.378906 52.5 27.816406 C 53.5 28.25 54.453125 28.769531 55.363281 29.375 Z M 55.363281 29.375 " fill-opacity="1" fill-rule="nonzero"/><path fill="#000000" d="M 63.75 45 C 63.757812 48.367188 62.910156 51.503906 61.210938 54.414062 L 53.75 43.75 L 56.25 40 L 52.5 36.25 L 58.476562 31.988281 C 60.171875 33.726562 61.476562 35.722656 62.390625 37.976562 C 63.300781 40.226562 63.757812 42.570312 63.75 45 Z M 63.75 45 " fill-opacity="1" fill-rule="nonzero"/><path fill="#000000" d="M 58.539062 57.949219 C 57.785156 58.738281 56.96875 59.457031 56.089844 60.105469 C 55.210938 60.75 54.285156 61.316406 53.304688 61.800781 C 52.328125 62.285156 51.316406 62.683594 50.269531 62.992188 C 49.222656 63.296875 48.15625 63.511719 47.074219 63.632812 C 45.988281 63.753906 44.902344 63.78125 43.8125 63.710938 C 42.726562 63.644531 41.652344 63.480469 40.589844 63.226562 C 39.53125 62.96875 38.5 62.621094 37.5 62.183594 C 36.5 61.75 35.546875 61.226562 34.636719 60.625 L 46.25 52.5 L 50 55 L 53.75 51.25 Z M 58.539062 57.949219 " fill-opacity="1" fill-rule="nonzero"/></svg>