<svg xmlns="http://www.w3.org/2000/svg" xmlns:xlink="http://www.w3.org/1999/xlink" width="100" zoomAndPan="magnify" viewBox="0 0 75 74.999997" height="100" preserveAspectRatio="xMidYMid meet" version="1.0"><defs><clipPath id="8758ddf2e1"><path d="M 0 0.320312 L 75 0.320312 L 75 75 L 0 75 Z M 0 0.320312 " clip-rule="nonzero"/></clipPath><clipPath id="f3c03713fe"><path d="M 37.5 75.320312 C 58.15625 75.320312 75 58.472656 75 37.820312 C 75 17.164062 58.15625 0.320312 37.5 0.320312 C 16.847656 0.320312 0 17.164062 0 37.820312 C 0 58.472656 16.847656 75.320312 37.5 75.320312 Z M 37.5 75.320312 " clip-rule="evenodd"/></clipPath><linearGradient x1="0" gradientTransform="matrix(0.146484, 0, 0, 0.146484, 0.0000015, 0.318748)" y1="256" x2="511.999926" gradientUnits="userSpaceOnUse" y2="256" id="c5dc1ed27c"><stop stop-opacity="1" stop-color="rgb(10.5896%, 63.529968%, 84.709167%)" offset="0"/><stop stop-opacity="1" stop-color="rgb(10.777283%, 63.362122%, 84.765625%)" offset="0.0078125"/><stop stop-opacity="1" stop-color="rgb(11.154175%, 63.027954%, 84.87854%)" offset="0.015625"/><stop stop-opacity="1" stop-color="rgb(11.529541%, 62.693787%, 84.992981%)" offset="0.0234375"/><stop stop-opacity="1" stop-color="rgb(11.906433%, 62.359619%, 85.105896%)" offset="0.03125"/><stop stop-opacity="1" stop-color="rgb(12.283325%, 62.025452%, 85.218811%)" offset="0.0390625"/><stop stop-opacity="1" stop-color="rgb(12.660217%, 61.691284%, 85.331726%)" offset="0.046875"/><stop stop-opacity="1" stop-color="rgb(13.037109%, 61.358643%, 85.446167%)" offset="0.0546875"/><stop stop-opacity="1" stop-color="rgb(13.414001%, 61.024475%, 85.559082%)" offset="0.0625"/><stop stop-opacity="1" stop-color="rgb(13.790894%, 60.690308%, 85.671997%)" offset="0.0703125"/><stop stop-opacity="1" stop-color="rgb(14.167786%, 60.35614%, 85.786438%)" offset="0.078125"/><stop stop-opacity="1" stop-color="rgb(14.544678%, 60.021973%, 85.899353%)" offset="0.0859375"/><stop stop-opacity="1" stop-color="rgb(14.92157%, 59.687805%, 86.012268%)" offset="0.09375"/><stop stop-opacity="1" stop-color="rgb(15.298462%, 59.353638%, 86.125183%)" offset="0.101562"/><stop stop-opacity="1" stop-color="rgb(15.675354%, 59.01947%, 86.239624%)" offset="0.109375"/><stop stop-opacity="1" stop-color="rgb(16.052246%, 58.685303%, 86.352539%)" offset="0.117188"/><stop stop-opacity="1" stop-color="rgb(16.429138%, 58.352661%, 86.465454%)" offset="0.125"/><stop stop-opacity="1" stop-color="rgb(16.80603%, 58.018494%, 86.579895%)" offset="0.132812"/><stop stop-opacity="1" stop-color="rgb(17.182922%, 57.684326%, 86.69281%)" offset="0.140625"/><stop stop-opacity="1" stop-color="rgb(17.559814%, 57.350159%, 86.805725%)" offset="0.148438"/><stop stop-opacity="1" stop-color="rgb(17.935181%, 57.015991%, 86.920166%)" offset="0.15625"/><stop stop-opacity="1" stop-color="rgb(18.312073%, 56.681824%, 87.033081%)" offset="0.164063"/><stop stop-opacity="1" stop-color="rgb(18.688965%, 56.347656%, 87.145996%)" offset="0.171875"/><stop stop-opacity="1" stop-color="rgb(19.065857%, 56.013489%, 87.258911%)" offset="0.179688"/><stop stop-opacity="1" stop-color="rgb(19.442749%, 55.680847%, 87.373352%)" offset="0.1875"/><stop stop-opacity="1" stop-color="rgb(19.819641%, 55.34668%, 87.486267%)" offset="0.195312"/><stop stop-opacity="1" stop-color="rgb(20.196533%, 55.012512%, 87.599182%)" offset="0.203125"/><stop stop-opacity="1" stop-color="rgb(20.573425%, 54.678345%, 87.713623%)" offset="0.210938"/><stop stop-opacity="1" stop-color="rgb(20.950317%, 54.344177%, 87.826538%)" offset="0.21875"/><stop stop-opacity="1" stop-color="rgb(21.327209%, 54.01001%, 87.939453%)" offset="0.226563"/><stop stop-opacity="1" stop-color="rgb(21.704102%, 53.675842%, 88.052368%)" offset="0.234375"/><stop stop-opacity="1" stop-color="rgb(22.080994%, 53.341675%, 88.166809%)" offset="0.242188"/><stop stop-opacity="1" stop-color="rgb(22.457886%, 53.007507%, 88.279724%)" offset="0.25"/><stop stop-opacity="1" stop-color="rgb(22.834778%, 52.674866%, 88.392639%)" offset="0.257812"/><stop stop-opacity="1" stop-color="rgb(23.21167%, 52.340698%, 88.50708%)" offset="0.265625"/><stop stop-opacity="1" stop-color="rgb(23.588562%, 52.006531%, 88.619995%)" offset="0.273438"/><stop stop-opacity="1" stop-color="rgb(23.963928%, 51.672363%, 88.73291%)" offset="0.28125"/><stop stop-opacity="1" stop-color="rgb(24.34082%, 51.338196%, 88.847351%)" offset="0.289062"/><stop stop-opacity="1" stop-color="rgb(24.717712%, 51.004028%, 88.960266%)" offset="0.296875"/><stop stop-opacity="1" stop-color="rgb(25.094604%, 50.669861%, 89.073181%)" offset="0.304688"/><stop stop-opacity="1" stop-color="rgb(25.471497%, 50.335693%, 89.186096%)" offset="0.3125"/><stop stop-opacity="1" stop-color="rgb(25.848389%, 50.003052%, 89.300537%)" offset="0.320312"/><stop stop-opacity="1" stop-color="rgb(26.225281%, 49.668884%, 89.413452%)" offset="0.328125"/><stop stop-opacity="1" stop-color="rgb(26.602173%, 49.334717%, 89.526367%)" offset="0.335938"/><stop stop-opacity="1" stop-color="rgb(26.979065%, 49.000549%, 89.640808%)" offset="0.34375"/><stop stop-opacity="1" stop-color="rgb(27.355957%, 48.666382%, 89.753723%)" offset="0.351563"/><stop stop-opacity="1" stop-color="rgb(27.732849%, 48.332214%, 89.866638%)" offset="0.359375"/><stop stop-opacity="1" stop-color="rgb(28.109741%, 47.998047%, 89.979553%)" offset="0.367188"/><stop stop-opacity="1" stop-color="rgb(28.486633%, 47.663879%, 90.093994%)" offset="0.375"/><stop stop-opacity="1" stop-color="rgb(28.863525%, 47.329712%, 90.206909%)" offset="0.382812"/><stop stop-opacity="1" stop-color="rgb(29.240417%, 46.99707%, 90.319824%)" offset="0.390625"/><stop stop-opacity="1" stop-color="rgb(29.61731%, 46.662903%, 90.434265%)" offset="0.398438"/><stop stop-opacity="1" stop-color="rgb(29.994202%, 46.328735%, 90.54718%)" offset="0.40625"/><stop stop-opacity="1" stop-color="rgb(30.369568%, 45.994568%, 90.660095%)" offset="0.414062"/><stop stop-opacity="1" stop-color="rgb(30.74646%, 45.6604%, 90.77301%)" offset="0.421875"/><stop stop-opacity="1" stop-color="rgb(31.123352%, 45.326233%, 90.887451%)" offset="0.429688"/><stop stop-opacity="1" stop-color="rgb(31.500244%, 44.992065%, 91.000366%)" offset="0.4375"/><stop stop-opacity="1" stop-color="rgb(31.877136%, 44.657898%, 91.113281%)" offset="0.445313"/><stop stop-opacity="1" stop-color="rgb(32.254028%, 44.32373%, 91.227722%)" offset="0.453125"/><stop stop-opacity="1" stop-color="rgb(32.63092%, 43.991089%, 91.340637%)" offset="0.460938"/><stop stop-opacity="1" stop-color="rgb(33.007812%, 43.656921%, 91.453552%)" offset="0.46875"/><stop stop-opacity="1" stop-color="rgb(33.384705%, 43.322754%, 91.567993%)" offset="0.476563"/><stop stop-opacity="1" stop-color="rgb(33.761597%, 42.988586%, 91.680908%)" offset="0.484375"/><stop stop-opacity="1" stop-color="rgb(34.138489%, 42.654419%, 91.793823%)" offset="0.492188"/><stop stop-opacity="1" stop-color="rgb(34.515381%, 42.320251%, 91.906738%)" offset="0.5"/><stop stop-opacity="1" stop-color="rgb(34.892273%, 41.986084%, 92.021179%)" offset="0.507812"/><stop stop-opacity="1" stop-color="rgb(35.269165%, 41.651917%, 92.134094%)" offset="0.515625"/><stop stop-opacity="1" stop-color="rgb(35.646057%, 41.319275%, 92.247009%)" offset="0.523438"/><stop stop-opacity="1" stop-color="rgb(36.022949%, 40.985107%, 92.36145%)" offset="0.53125"/><stop stop-opacity="1" stop-color="rgb(36.399841%, 40.65094%, 92.474365%)" offset="0.539062"/><stop stop-opacity="1" stop-color="rgb(36.775208%, 40.316772%, 92.58728%)" offset="0.546875"/><stop stop-opacity="1" stop-color="rgb(37.1521%, 39.982605%, 92.700195%)" offset="0.554688"/><stop stop-opacity="1" stop-color="rgb(37.528992%, 39.648438%, 92.814636%)" offset="0.5625"/><stop stop-opacity="1" stop-color="rgb(37.905884%, 39.31427%, 92.927551%)" offset="0.570313"/><stop stop-opacity="1" stop-color="rgb(38.282776%, 38.980103%, 93.040466%)" offset="0.578125"/><stop stop-opacity="1" stop-color="rgb(38.659668%, 38.645935%, 93.154907%)" offset="0.585938"/><stop stop-opacity="1" stop-color="rgb(39.03656%, 38.313293%, 93.267822%)" offset="0.59375"/><stop stop-opacity="1" stop-color="rgb(39.413452%, 37.979126%, 93.380737%)" offset="0.601563"/><stop stop-opacity="1" stop-color="rgb(39.790344%, 37.644958%, 93.493652%)" offset="0.609375"/><stop stop-opacity="1" stop-color="rgb(40.167236%, 37.310791%, 93.608093%)" offset="0.617188"/><stop stop-opacity="1" stop-color="rgb(40.544128%, 36.976624%, 93.721008%)" offset="0.625"/><stop stop-opacity="1" stop-color="rgb(40.921021%, 36.642456%, 93.833923%)" offset="0.632812"/><stop stop-opacity="1" stop-color="rgb(41.297913%, 36.308289%, 93.948364%)" offset="0.640625"/><stop stop-opacity="1" stop-color="rgb(41.674805%, 35.974121%, 94.061279%)" offset="0.648437"/><stop stop-opacity="1" stop-color="rgb(42.051697%, 35.641479%, 94.174194%)" offset="0.65625"/><stop stop-opacity="1" stop-color="rgb(42.428589%, 35.307312%, 94.288635%)" offset="0.664062"/><stop stop-opacity="1" stop-color="rgb(42.805481%, 34.973145%, 94.40155%)" offset="0.671875"/><stop stop-opacity="1" stop-color="rgb(43.180847%, 34.638977%, 94.514465%)" offset="0.679688"/><stop stop-opacity="1" stop-color="rgb(43.557739%, 34.30481%, 94.62738%)" offset="0.6875"/><stop stop-opacity="1" stop-color="rgb(43.934631%, 33.970642%, 94.741821%)" offset="0.695312"/><stop stop-opacity="1" stop-color="rgb(44.311523%, 33.636475%, 94.854736%)" offset="0.703125"/><stop stop-opacity="1" stop-color="rgb(44.688416%, 33.302307%, 94.967651%)" offset="0.710938"/><stop stop-opacity="1" stop-color="rgb(45.065308%, 32.96814%, 95.082092%)" offset="0.71875"/><stop stop-opacity="1" stop-color="rgb(45.4422%, 32.635498%, 95.195007%)" offset="0.726562"/><stop stop-opacity="1" stop-color="rgb(45.819092%, 32.301331%, 95.307922%)" offset="0.734375"/><stop stop-opacity="1" stop-color="rgb(46.195984%, 31.967163%, 95.420837%)" offset="0.742188"/><stop stop-opacity="1" stop-color="rgb(46.572876%, 31.632996%, 95.535278%)" offset="0.75"/><stop stop-opacity="1" stop-color="rgb(46.949768%, 31.298828%, 95.648193%)" offset="0.757813"/><stop stop-opacity="1" stop-color="rgb(47.32666%, 30.964661%, 95.761108%)" offset="0.765625"/><stop stop-opacity="1" stop-color="rgb(47.703552%, 30.630493%, 95.875549%)" offset="0.773438"/><stop stop-opacity="1" stop-color="rgb(48.080444%, 30.296326%, 95.988464%)" offset="0.78125"/><stop stop-opacity="1" stop-color="rgb(48.457336%, 29.963684%, 96.101379%)" offset="0.789063"/><stop stop-opacity="1" stop-color="rgb(48.834229%, 29.629517%, 96.214294%)" offset="0.796875"/><stop stop-opacity="1" stop-color="rgb(49.211121%, 29.295349%, 96.328735%)" offset="0.804688"/><stop stop-opacity="1" stop-color="rgb(49.586487%, 28.961182%, 96.44165%)" offset="0.8125"/><stop stop-opacity="1" stop-color="rgb(49.963379%, 28.627014%, 96.554565%)" offset="0.820313"/><stop stop-opacity="1" stop-color="rgb(50.340271%, 28.292847%, 96.669006%)" offset="0.828125"/><stop stop-opacity="1" stop-color="rgb(50.717163%, 27.958679%, 96.781921%)" offset="0.835938"/><stop stop-opacity="1" stop-color="rgb(51.094055%, 27.624512%, 96.894836%)" offset="0.84375"/><stop stop-opacity="1" stop-color="rgb(51.470947%, 27.290344%, 97.009277%)" offset="0.851563"/><stop stop-opacity="1" stop-color="rgb(51.847839%, 26.957703%, 97.122192%)" offset="0.859375"/><stop stop-opacity="1" stop-color="rgb(52.224731%, 26.623535%, 97.235107%)" offset="0.867188"/><stop stop-opacity="1" stop-color="rgb(52.601624%, 26.289368%, 97.348022%)" offset="0.875"/><stop stop-opacity="1" stop-color="rgb(52.978516%, 25.9552%, 97.462463%)" offset="0.882813"/><stop stop-opacity="1" stop-color="rgb(53.355408%, 25.621033%, 97.575378%)" offset="0.890625"/><stop stop-opacity="1" stop-color="rgb(53.7323%, 25.286865%, 97.688293%)" offset="0.898438"/><stop stop-opacity="1" stop-color="rgb(54.109192%, 24.952698%, 97.802734%)" offset="0.90625"/><stop stop-opacity="1" stop-color="rgb(54.486084%, 24.61853%, 97.915649%)" offset="0.914062"/><stop stop-opacity="1" stop-color="rgb(54.862976%, 24.285889%, 98.028564%)" offset="0.921875"/><stop stop-opacity="1" stop-color="rgb(55.239868%, 23.951721%, 98.141479%)" offset="0.929688"/><stop stop-opacity="1" stop-color="rgb(55.615234%, 23.617554%, 98.25592%)" offset="0.9375"/><stop stop-opacity="1" stop-color="rgb(55.992126%, 23.283386%, 98.368835%)" offset="0.945312"/><stop stop-opacity="1" stop-color="rgb(56.369019%, 22.949219%, 98.48175%)" offset="0.953125"/><stop stop-opacity="1" stop-color="rgb(56.745911%, 22.615051%, 98.596191%)" offset="0.960938"/><stop stop-opacity="1" stop-color="rgb(57.122803%, 22.280884%, 98.709106%)" offset="0.96875"/><stop stop-opacity="1" stop-color="rgb(57.499695%, 21.946716%, 98.822021%)" offset="0.976563"/><stop stop-opacity="1" stop-color="rgb(57.876587%, 21.612549%, 98.934937%)" offset="0.984375"/><stop stop-opacity="1" stop-color="rgb(58.253479%, 21.279907%, 99.049377%)" offset="0.992188"/><stop stop-opacity="1" stop-color="rgb(58.630371%, 20.94574%, 99.162292%)" offset="1"/></linearGradient></defs><g clip-path="url(#8758ddf2e1)"><g clip-path="url(#f3c03713fe)"><path fill="url(#c5dc1ed27c)" d="M 0 0.320312 L 0 75 L 75 75 L 75 0.320312 Z M 0 0.320312 " fill-rule="nonzero"/></g></g><path fill="#ffffff" d="M 60.140625 47.300781 L 52.640625 35.3125 C 52.394531 34.925781 52.050781 34.679688 51.601562 34.582031 C 51.148438 34.480469 50.726562 34.554688 50.332031 34.808594 L 46.695312 37.152344 C 46.511719 37.269531 46.359375 37.421875 46.234375 37.601562 C 46.109375 37.78125 46.023438 37.980469 45.976562 38.195312 C 45.929688 38.410156 45.925781 38.625 45.960938 38.839844 C 46 39.058594 46.078125 39.257812 46.191406 39.445312 L 46.472656 39.886719 C 44.519531 40.253906 43.433594 40.160156 40.371094 39.292969 C 40.140625 39.230469 39.929688 39.167969 39.738281 39.109375 C 37.71875 38.515625 37.109375 38.488281 35.5 39.917969 C 33.632812 39.511719 31.128906 39.070312 28.746094 39.15625 C 28.832031 38.804688 28.804688 38.460938 28.667969 38.125 C 28.527344 37.792969 28.304688 37.53125 27.996094 37.34375 L 24.296875 35.101562 C 23.898438 34.859375 23.472656 34.796875 23.023438 34.910156 C 22.578125 35.019531 22.234375 35.269531 22.003906 35.667969 L 14.835938 47.855469 C 14.722656 48.046875 14.652344 48.25 14.621094 48.46875 C 14.589844 48.683594 14.597656 48.898438 14.652344 49.113281 C 14.703125 49.328125 14.796875 49.523438 14.925781 49.699219 C 15.054688 49.875 15.210938 50.023438 15.398438 50.136719 L 19.101562 52.378906 C 19.363281 52.542969 19.648438 52.621094 19.960938 52.621094 C 20.097656 52.621094 20.234375 52.605469 20.367188 52.570312 C 20.617188 52.511719 20.835938 52.398438 21.03125 52.234375 C 21.351562 52.554688 21.710938 52.886719 22.125 53.234375 C 22.085938 53.554688 22.109375 53.867188 22.195312 54.179688 C 22.28125 54.488281 22.421875 54.769531 22.621094 55.023438 C 22.816406 55.277344 23.054688 55.484375 23.335938 55.644531 C 23.613281 55.804688 23.914062 55.90625 24.234375 55.949219 C 24.34375 55.960938 24.449219 55.96875 24.5625 55.96875 C 24.621094 55.96875 24.679688 55.964844 24.738281 55.960938 C 24.777344 56.257812 24.863281 56.539062 25 56.804688 C 25.140625 57.070312 25.320312 57.300781 25.546875 57.5 C 25.769531 57.699219 26.023438 57.851562 26.300781 57.957031 C 26.582031 58.0625 26.871094 58.113281 27.171875 58.113281 C 27.175781 58.113281 27.183594 58.113281 27.1875 58.113281 C 27.183594 58.304688 27.199219 58.496094 27.238281 58.683594 C 27.277344 58.875 27.339844 59.054688 27.421875 59.230469 C 27.503906 59.402344 27.609375 59.566406 27.730469 59.714844 C 27.851562 59.867188 27.988281 60 28.140625 60.117188 C 28.292969 60.234375 28.457031 60.332031 28.632812 60.410156 C 28.808594 60.488281 28.992188 60.546875 29.179688 60.582031 C 29.371094 60.617188 29.5625 60.628906 29.753906 60.621094 C 29.945312 60.609375 30.136719 60.578125 30.320312 60.523438 C 30.382812 60.9375 30.542969 61.308594 30.796875 61.636719 C 30.996094 61.894531 31.234375 62.105469 31.515625 62.265625 C 31.796875 62.429688 32.097656 62.53125 32.417969 62.574219 C 32.738281 62.617188 33.058594 62.597656 33.371094 62.515625 C 33.683594 62.433594 33.96875 62.292969 34.226562 62.097656 L 34.230469 62.09375 L 35.453125 61.15625 L 38.445312 62.917969 C 38.902344 63.277344 39.417969 63.453125 40 63.453125 C 40.085938 63.453125 40.171875 63.449219 40.253906 63.441406 C 40.535156 63.414062 40.804688 63.339844 41.0625 63.222656 C 41.320312 63.105469 41.550781 62.949219 41.757812 62.753906 C 41.960938 62.558594 42.128906 62.335938 42.257812 62.085938 C 42.390625 61.835938 42.472656 61.570312 42.515625 61.289062 C 42.703125 61.351562 42.894531 61.390625 43.09375 61.410156 C 43.289062 61.425781 43.488281 61.421875 43.683594 61.394531 C 43.878906 61.363281 44.070312 61.3125 44.253906 61.242188 C 44.4375 61.167969 44.609375 61.074219 44.773438 60.960938 C 44.933594 60.847656 45.082031 60.71875 45.210938 60.570312 C 45.34375 60.421875 45.457031 60.261719 45.550781 60.085938 C 45.644531 59.910156 45.71875 59.726562 45.769531 59.535156 C 45.820312 59.34375 45.847656 59.152344 45.851562 58.953125 C 46.027344 58.972656 46.199219 58.972656 46.375 58.953125 C 46.714844 58.921875 47.03125 58.824219 47.332031 58.660156 C 47.632812 58.5 47.890625 58.285156 48.105469 58.019531 C 48.316406 57.753906 48.472656 57.457031 48.566406 57.128906 C 48.65625 56.800781 48.683594 56.46875 48.644531 56.128906 C 48.667969 56.128906 48.691406 56.125 48.714844 56.125 C 49.0625 56.089844 49.386719 55.988281 49.691406 55.820312 C 49.996094 55.652344 50.253906 55.433594 50.46875 55.15625 C 50.683594 54.882812 50.832031 54.578125 50.921875 54.242188 C 51.007812 53.90625 51.023438 53.566406 50.972656 53.222656 C 51.945312 52.691406 52.882812 52.078125 53.597656 51.277344 L 53.695312 51.433594 C 53.9375 51.824219 54.285156 52.066406 54.734375 52.164062 C 54.855469 52.191406 54.976562 52.207031 55.101562 52.207031 C 55.429688 52.207031 55.726562 52.117188 56.003906 51.941406 L 59.636719 49.597656 C 59.820312 49.476562 59.976562 49.324219 60.101562 49.144531 C 60.226562 48.964844 60.3125 48.765625 60.359375 48.550781 C 60.40625 48.335938 60.410156 48.121094 60.375 47.90625 C 60.335938 47.6875 60.257812 47.488281 60.140625 47.300781 Z M 20.183594 51.097656 C 20.148438 51.15625 20.097656 51.195312 20.027344 51.210938 C 19.957031 51.230469 19.890625 51.21875 19.828125 51.183594 L 16.125 48.9375 C 16.0625 48.898438 16.023438 48.84375 16.007812 48.769531 C 15.992188 48.699219 16.003906 48.632812 16.042969 48.570312 L 23.210938 36.378906 C 23.246094 36.320312 23.296875 36.285156 23.363281 36.269531 C 23.386719 36.265625 23.40625 36.261719 23.429688 36.261719 C 23.480469 36.261719 23.523438 36.273438 23.566406 36.300781 L 27.269531 38.542969 C 27.332031 38.582031 27.371094 38.640625 27.386719 38.710938 C 27.402344 38.78125 27.390625 38.847656 27.351562 38.910156 Z M 25.050781 54.441406 C 24.863281 54.542969 24.664062 54.582031 24.453125 54.5625 C 24.242188 54.542969 24.054688 54.464844 23.890625 54.332031 C 23.726562 54.195312 23.613281 54.027344 23.550781 53.824219 C 23.492188 53.621094 23.492188 53.417969 23.554688 53.214844 C 23.5625 53.195312 23.570312 53.175781 23.574219 53.160156 C 23.644531 52.96875 23.757812 52.816406 23.917969 52.691406 L 26.015625 51.085938 C 26.203125 50.941406 26.410156 50.871094 26.644531 50.871094 C 26.695312 50.871094 26.742188 50.875 26.789062 50.878906 C 26.925781 50.898438 27.054688 50.941406 27.175781 51.011719 C 27.292969 51.082031 27.394531 51.171875 27.480469 51.28125 C 27.5625 51.390625 27.625 51.511719 27.660156 51.644531 C 27.695312 51.78125 27.703125 51.914062 27.683594 52.050781 C 27.675781 52.105469 27.664062 52.160156 27.648438 52.214844 L 25.675781 53.722656 C 25.421875 53.921875 25.210938 54.160156 25.050781 54.441406 Z M 27.804688 56.496094 C 27.625 56.632812 27.421875 56.707031 27.195312 56.710938 C 26.96875 56.71875 26.761719 56.65625 26.574219 56.527344 C 26.386719 56.398438 26.257812 56.226562 26.183594 56.015625 C 26.105469 55.800781 26.101562 55.585938 26.167969 55.367188 L 28.136719 53.855469 C 28.394531 53.660156 28.605469 53.417969 28.769531 53.136719 C 29.007812 53.007812 29.261719 52.976562 29.523438 53.046875 C 29.789062 53.113281 29.992188 53.261719 30.140625 53.488281 C 30.289062 53.71875 30.339844 53.964844 30.292969 54.234375 C 30.246094 54.503906 30.117188 54.71875 29.902344 54.886719 Z M 30.945312 58.488281 L 30.269531 59.003906 C 30.160156 59.089844 30.035156 59.152344 29.902344 59.1875 C 29.769531 59.226562 29.632812 59.234375 29.492188 59.21875 C 29.355469 59.199219 29.226562 59.15625 29.105469 59.085938 C 28.984375 59.015625 28.882812 58.925781 28.796875 58.816406 C 28.714844 58.707031 28.652344 58.582031 28.617188 58.449219 C 28.582031 58.3125 28.574219 58.179688 28.59375 58.039062 C 28.609375 57.902344 28.65625 57.773438 28.726562 57.652344 C 28.796875 57.53125 28.886719 57.429688 29 57.347656 L 31.09375 55.738281 C 31.304688 55.578125 31.539062 55.507812 31.800781 55.527344 C 32.0625 55.542969 32.285156 55.644531 32.46875 55.832031 C 32.65625 56.019531 32.753906 56.242188 32.773438 56.503906 C 32.789062 56.765625 32.714844 57 32.558594 57.207031 L 31.25 58.207031 C 31.140625 58.292969 31.039062 58.386719 30.945312 58.488281 Z M 35.871094 58.679688 C 35.835938 58.964844 35.703125 59.195312 35.472656 59.371094 L 34.984375 59.746094 L 34.980469 59.75 L 33.378906 60.980469 C 33.167969 61.140625 32.933594 61.210938 32.671875 61.195312 C 32.410156 61.175781 32.1875 61.074219 32 60.886719 C 31.816406 60.703125 31.714844 60.476562 31.699219 60.214844 C 31.679688 59.953125 31.753906 59.71875 31.914062 59.511719 L 32.390625 59.144531 C 32.417969 59.128906 32.441406 59.109375 32.464844 59.089844 L 33.21875 58.511719 C 33.332031 58.425781 33.433594 58.332031 33.527344 58.230469 L 34.199219 57.714844 C 34.386719 57.570312 34.597656 57.5 34.835938 57.5 C 34.882812 57.5 34.929688 57.503906 34.976562 57.507812 C 35.113281 57.527344 35.242188 57.570312 35.359375 57.636719 C 35.480469 57.707031 35.582031 57.796875 35.667969 57.90625 C 35.75 58.015625 35.8125 58.136719 35.847656 58.273438 C 35.882812 58.40625 35.890625 58.539062 35.871094 58.679688 Z M 49.34375 54.320312 C 49.148438 54.554688 48.898438 54.6875 48.597656 54.722656 C 48.296875 54.761719 48.023438 54.6875 47.78125 54.503906 C 47.765625 54.492188 47.75 54.476562 47.734375 54.464844 L 47.488281 54.261719 C 47.480469 54.261719 47.476562 54.257812 47.472656 54.253906 L 41.667969 49.417969 C 41.519531 49.296875 41.347656 49.242188 41.15625 49.261719 C 40.964844 49.28125 40.808594 49.363281 40.683594 49.511719 C 40.5625 49.660156 40.507812 49.828125 40.523438 50.019531 C 40.542969 50.210938 40.621094 50.371094 40.769531 50.492188 L 46.722656 55.453125 C 46.726562 55.457031 46.734375 55.460938 46.742188 55.46875 L 46.859375 55.5625 L 46.886719 55.585938 C 47.054688 55.734375 47.167969 55.917969 47.222656 56.136719 C 47.28125 56.355469 47.277344 56.570312 47.207031 56.785156 C 47.132812 56.996094 47.011719 57.175781 46.835938 57.316406 C 46.660156 57.457031 46.460938 57.535156 46.234375 57.558594 C 45.921875 57.589844 45.644531 57.507812 45.402344 57.304688 L 44.925781 56.917969 L 38.976562 51.960938 C 38.828125 51.835938 38.65625 51.785156 38.464844 51.800781 C 38.269531 51.820312 38.113281 51.902344 37.988281 52.050781 C 37.867188 52.199219 37.8125 52.371094 37.828125 52.5625 C 37.847656 52.753906 37.929688 52.914062 38.078125 53.039062 L 44.035156 58 L 44.035156 58.003906 C 44.152344 58.097656 44.25 58.214844 44.320312 58.347656 C 44.390625 58.480469 44.433594 58.621094 44.449219 58.769531 C 44.464844 58.921875 44.449219 59.066406 44.40625 59.210938 C 44.363281 59.355469 44.292969 59.488281 44.195312 59.605469 C 44.101562 59.722656 43.988281 59.816406 43.851562 59.886719 C 43.71875 59.957031 43.578125 60 43.429688 60.011719 C 43.277344 60.027344 43.128906 60.011719 42.984375 59.96875 C 42.839844 59.925781 42.710938 59.855469 42.59375 59.757812 L 41.617188 58.957031 L 35.664062 53.996094 C 35.515625 53.871094 35.34375 53.816406 35.152344 53.832031 C 34.957031 53.851562 34.800781 53.933594 34.675781 54.082031 C 34.550781 54.234375 34.496094 54.402344 34.515625 54.597656 C 34.53125 54.792969 34.617188 54.949219 34.765625 55.074219 L 40.71875 60.035156 L 40.722656 60.035156 L 40.726562 60.039062 C 40.839844 60.136719 40.933594 60.25 41.003906 60.382812 C 41.078125 60.515625 41.121094 60.65625 41.132812 60.808594 C 41.148438 60.957031 41.132812 61.105469 41.089844 61.246094 C 41.046875 61.390625 40.976562 61.523438 40.882812 61.640625 C 40.785156 61.753906 40.671875 61.847656 40.539062 61.917969 C 40.40625 61.988281 40.265625 62.03125 40.117188 62.046875 C 39.964844 62.058594 39.820312 62.046875 39.675781 62.003906 C 39.53125 61.960938 39.402344 61.890625 39.285156 61.796875 C 39.257812 61.773438 39.226562 61.753906 39.199219 61.734375 L 36.621094 60.21875 C 36.804688 60.019531 36.953125 59.800781 37.0625 59.558594 C 37.175781 59.3125 37.242188 59.058594 37.269531 58.789062 C 37.296875 58.523438 37.28125 58.257812 37.21875 57.996094 C 37.160156 57.734375 37.058594 57.492188 36.917969 57.261719 C 36.777344 57.035156 36.605469 56.835938 36.398438 56.664062 C 36.191406 56.492188 35.964844 56.359375 35.714844 56.261719 C 35.464844 56.164062 35.203125 56.109375 34.9375 56.097656 C 34.667969 56.089844 34.40625 56.121094 34.148438 56.195312 C 34.085938 55.785156 33.925781 55.414062 33.671875 55.082031 C 33.4375 54.777344 33.148438 54.539062 32.804688 54.371094 C 32.460938 54.203125 32.09375 54.121094 31.710938 54.125 C 31.726562 53.546875 31.5625 53.027344 31.207031 52.570312 C 30.957031 52.242188 30.640625 51.992188 30.261719 51.824219 C 29.886719 51.65625 29.488281 51.585938 29.078125 51.621094 C 29.023438 51.183594 28.863281 50.789062 28.601562 50.441406 C 28.335938 50.089844 28 49.832031 27.597656 49.660156 C 27.191406 49.488281 26.773438 49.433594 26.335938 49.488281 C 25.902344 49.542969 25.507812 49.707031 25.160156 49.972656 L 23.0625 51.578125 C 22.9375 51.675781 22.824219 51.78125 22.722656 51.898438 C 22.386719 51.601562 22.09375 51.320312 21.839844 51.046875 L 27.976562 40.613281 C 30.070312 40.402344 32.40625 40.726562 34.296875 41.101562 C 34.0625 41.363281 33.839844 41.632812 33.621094 41.898438 C 33.273438 42.316406 32.949219 42.714844 32.582031 43.082031 C 32.375 43.292969 32.171875 43.480469 31.992188 43.644531 C 31.425781 44.15625 30.9375 44.601562 31.011719 45.273438 C 31.078125 45.90625 31.632812 46.347656 32.4375 46.808594 C 33.136719 47.222656 33.890625 47.425781 34.699219 47.425781 C 36.726562 47.425781 38.621094 46.089844 39.996094 45.121094 L 40.074219 45.0625 C 41.316406 45.980469 43.289062 47.511719 45.128906 49.046875 L 48.957031 52.515625 C 49.160156 52.730469 49.351562 52.957031 49.523438 53.199219 C 49.679688 53.605469 49.617188 53.980469 49.34375 54.320312 Z M 50.386719 51.941406 C 50.296875 51.835938 50.195312 51.738281 50.089844 51.648438 L 49.917969 51.492188 C 47.46875 48.886719 41.636719 44.460938 40.496094 43.632812 C 40.230469 43.4375 39.960938 43.4375 39.6875 43.625 C 39.527344 43.734375 39.363281 43.851562 39.1875 43.972656 C 37.414062 45.226562 35.207031 46.785156 33.140625 45.59375 C 32.898438 45.464844 32.671875 45.3125 32.464844 45.132812 C 32.570312 45.011719 32.769531 44.832031 32.9375 44.679688 C 33.128906 44.503906 33.347656 44.304688 33.582031 44.070312 C 33.992188 43.65625 34.351562 43.214844 34.703125 42.792969 C 35.078125 42.316406 35.484375 41.863281 35.917969 41.4375 C 36.828125 40.578125 37.28125 40.242188 37.644531 40.152344 C 37.996094 40.066406 38.417969 40.183594 39.34375 40.457031 C 39.539062 40.515625 39.753906 40.578125 39.988281 40.644531 C 43.371094 41.601562 44.597656 41.707031 47.265625 41.15625 L 52.8125 50.019531 C 52.242188 50.804688 51.34375 51.414062 50.386719 51.941406 Z M 58.878906 48.414062 L 55.242188 50.757812 C 55.179688 50.800781 55.113281 50.8125 55.039062 50.792969 C 54.972656 50.78125 54.917969 50.746094 54.882812 50.6875 L 54.246094 49.667969 C 54.238281 49.65625 54.230469 49.644531 54.222656 49.632812 L 47.382812 38.699219 C 47.339844 38.640625 47.328125 38.570312 47.34375 38.5 C 47.355469 38.429688 47.394531 38.371094 47.453125 38.332031 L 51.09375 35.984375 C 51.15625 35.945312 51.222656 35.933594 51.296875 35.949219 C 51.363281 35.964844 51.414062 36 51.453125 36.058594 L 58.953125 48.046875 C 58.996094 48.109375 59.007812 48.175781 58.992188 48.246094 C 58.976562 48.316406 58.941406 48.375 58.878906 48.414062 Z M 32.25 36.910156 C 33.324219 37.199219 34.414062 37.34375 35.527344 37.34375 C 37.769531 37.339844 39.859375 36.777344 41.796875 35.652344 C 42.417969 35.289062 43.007812 34.878906 43.5625 34.417969 C 43.878906 34.71875 44.195312 35.011719 44.5 35.289062 C 44.921875 35.679688 45.289062 36.015625 45.570312 36.300781 C 45.707031 36.4375 45.875 36.503906 46.066406 36.503906 C 46.261719 36.503906 46.425781 36.4375 46.5625 36.300781 C 46.847656 36.019531 47.210938 35.679688 47.632812 35.292969 C 49.609375 33.472656 52.074219 31.207031 52.074219 29.210938 C 52.074219 28.699219 51.972656 28.207031 51.777344 27.738281 C 51.582031 27.265625 51.304688 26.851562 50.941406 26.488281 C 50.582031 26.128906 50.164062 25.851562 49.695312 25.65625 C 49.222656 25.460938 48.730469 25.363281 48.222656 25.359375 C 48.171875 25.359375 48.121094 25.363281 48.074219 25.367188 C 48.199219 22.902344 47.640625 20.601562 46.402344 18.46875 C 46.144531 18.023438 45.859375 17.59375 45.550781 17.183594 C 45.238281 16.773438 44.90625 16.382812 44.546875 16.011719 C 44.1875 15.640625 43.808594 15.292969 43.40625 14.972656 C 43.007812 14.648438 42.585938 14.347656 42.148438 14.078125 C 41.710938 13.804688 41.261719 13.5625 40.792969 13.34375 C 40.324219 13.128906 39.847656 12.941406 39.355469 12.785156 C 38.863281 12.625 38.367188 12.5 37.859375 12.402344 C 37.355469 12.304688 36.84375 12.242188 36.332031 12.207031 C 35.816406 12.171875 35.300781 12.171875 34.789062 12.199219 C 34.273438 12.230469 33.761719 12.292969 33.257812 12.382812 C 32.75 12.476562 32.25 12.597656 31.757812 12.753906 C 31.265625 12.90625 30.785156 13.089844 30.316406 13.300781 C 29.847656 13.515625 29.394531 13.753906 28.953125 14.023438 C 28.511719 14.292969 28.09375 14.585938 27.6875 14.90625 C 27.285156 15.226562 26.902344 15.570312 26.542969 15.9375 C 26.179688 16.304688 25.84375 16.691406 25.527344 17.101562 C 25.214844 17.511719 24.925781 17.9375 24.667969 18.378906 C 24.40625 18.824219 24.171875 19.28125 23.96875 19.753906 C 23.761719 20.226562 23.585938 20.710938 23.441406 21.207031 C 23.296875 21.699219 23.179688 22.203125 23.097656 22.710938 C 23.011719 23.21875 22.960938 23.730469 22.941406 24.242188 C 22.917969 24.757812 22.929688 25.273438 22.972656 25.785156 C 23.011719 26.300781 23.085938 26.808594 23.191406 27.3125 C 23.296875 27.816406 23.429688 28.3125 23.597656 28.800781 C 23.761719 29.289062 23.957031 29.765625 24.179688 30.230469 C 24.40625 30.691406 24.65625 31.140625 24.933594 31.574219 C 25.214844 32.007812 25.519531 32.421875 25.847656 32.816406 C 26.179688 33.214844 26.53125 33.585938 26.90625 33.9375 C 27.285156 34.292969 27.679688 34.621094 28.097656 34.921875 C 28.511719 35.226562 28.945312 35.503906 29.394531 35.753906 C 29.847656 36.003906 30.308594 36.226562 30.789062 36.417969 C 31.265625 36.613281 31.753906 36.777344 32.25 36.910156 Z M 41.09375 34.4375 C 40.554688 34.75 39.992188 35.011719 39.410156 35.230469 C 38.824219 35.449219 38.226562 35.617188 37.613281 35.734375 C 37 35.851562 36.382812 35.917969 35.761719 35.929688 C 35.136719 35.945312 34.515625 35.90625 33.902344 35.820312 C 33.285156 35.730469 32.679688 35.589844 32.085938 35.398438 C 31.492188 35.207031 30.917969 34.96875 30.363281 34.683594 C 29.808594 34.394531 29.285156 34.066406 28.785156 33.691406 C 28.289062 33.316406 27.824219 32.902344 27.394531 32.449219 C 27.75 31.355469 28.34375 30.410156 29.175781 29.613281 C 30.003906 28.816406 30.972656 28.257812 32.082031 27.945312 C 32.554688 28.316406 33.074219 28.601562 33.640625 28.796875 C 34.210938 28.992188 34.796875 29.089844 35.394531 29.089844 C 35.996094 29.089844 36.582031 28.992188 37.152344 28.796875 C 37.71875 28.601562 38.238281 28.316406 38.710938 27.945312 C 39.210938 28.082031 39.6875 28.277344 40.140625 28.527344 C 40.097656 28.753906 40.078125 28.980469 40.078125 29.210938 C 40.078125 30.574219 41.210938 32.050781 42.554688 33.433594 C 42.09375 33.804688 41.609375 34.140625 41.09375 34.4375 Z M 31.28125 23.40625 C 31.28125 21.050781 33.128906 19.128906 35.394531 19.128906 C 37.664062 19.128906 39.507812 21.046875 39.507812 23.40625 C 39.507812 25.765625 37.664062 27.6875 35.394531 27.6875 C 33.128906 27.6875 31.28125 25.769531 31.28125 23.40625 Z M 48.222656 26.761719 C 48.546875 26.761719 48.859375 26.824219 49.15625 26.949219 C 49.457031 27.074219 49.722656 27.25 49.953125 27.480469 C 50.183594 27.710938 50.359375 27.972656 50.484375 28.273438 C 50.609375 28.574219 50.671875 28.886719 50.671875 29.210938 C 50.671875 30.589844 48.175781 32.886719 46.683594 34.261719 C 46.460938 34.464844 46.257812 34.65625 46.066406 34.832031 C 45.875 34.648438 45.664062 34.457031 45.449219 34.261719 C 43.964844 32.890625 41.480469 30.597656 41.480469 29.210938 C 41.480469 28.722656 41.613281 28.277344 41.878906 27.867188 C 42.148438 27.460938 42.503906 27.160156 42.953125 26.964844 C 43.398438 26.773438 43.863281 26.714844 44.34375 26.796875 C 44.824219 26.878906 45.242188 27.085938 45.597656 27.417969 C 45.730469 27.542969 45.890625 27.605469 46.074219 27.605469 C 46.257812 27.605469 46.417969 27.542969 46.550781 27.417969 C 47.023438 26.980469 47.578125 26.761719 48.222656 26.761719 Z M 24.710938 21.867188 C 24.890625 21.199219 25.128906 20.550781 25.429688 19.925781 C 25.730469 19.304688 26.082031 18.710938 26.492188 18.152344 C 26.902344 17.597656 27.359375 17.082031 27.863281 16.605469 C 28.367188 16.132812 28.910156 15.710938 29.496094 15.339844 C 30.078125 14.964844 30.691406 14.652344 31.332031 14.390625 C 31.976562 14.132812 32.636719 13.9375 33.316406 13.800781 C 33.992188 13.664062 34.679688 13.59375 35.371094 13.585938 C 36.0625 13.574219 36.75 13.632812 37.429688 13.75 C 38.113281 13.871094 38.777344 14.050781 39.425781 14.292969 C 40.074219 14.535156 40.695312 14.835938 41.289062 15.195312 C 41.878906 15.550781 42.433594 15.960938 42.949219 16.421875 C 43.464844 16.882812 43.9375 17.386719 44.359375 17.933594 C 44.78125 18.484375 45.148438 19.066406 45.464844 19.683594 C 45.777344 20.300781 46.035156 20.9375 46.230469 21.601562 C 46.425781 22.265625 46.558594 22.941406 46.628906 23.632812 C 46.695312 24.320312 46.703125 25.007812 46.644531 25.699219 C 46.445312 25.789062 46.253906 25.890625 46.074219 26.011719 C 45.859375 25.867188 45.628906 25.746094 45.390625 25.648438 C 45.148438 25.550781 44.902344 25.476562 44.648438 25.429688 C 44.390625 25.378906 44.132812 25.355469 43.875 25.359375 C 43.613281 25.363281 43.359375 25.394531 43.105469 25.449219 C 42.851562 25.507812 42.605469 25.585938 42.367188 25.691406 C 42.128906 25.796875 41.90625 25.925781 41.691406 26.074219 C 41.480469 26.226562 41.289062 26.398438 41.109375 26.585938 C 40.933594 26.777344 40.777344 26.984375 40.640625 27.203125 C 40.367188 27.0625 40.085938 26.9375 39.796875 26.828125 C 40.542969 25.808594 40.914062 24.667969 40.910156 23.40625 C 40.910156 20.273438 38.4375 17.726562 35.394531 17.726562 C 32.355469 17.726562 29.878906 20.273438 29.878906 23.40625 C 29.875 24.667969 30.246094 25.808594 30.992188 26.824219 C 29.960938 27.21875 29.046875 27.796875 28.25 28.554688 C 27.449219 29.316406 26.824219 30.199219 26.378906 31.207031 C 26.183594 30.929688 26 30.644531 25.828125 30.347656 C 25.082031 29.0625 24.613281 27.6875 24.421875 26.21875 C 24.226562 24.75 24.324219 23.296875 24.710938 21.867188 Z M 24.710938 21.867188 " fill-opacity="1" fill-rule="nonzero"/></svg>