<svg xmlns="http://www.w3.org/2000/svg" xmlns:xlink="http://www.w3.org/1999/xlink" width="100" zoomAndPan="magnify" viewBox="0 0 75 74.999997" height="100" preserveAspectRatio="xMidYMid meet" version="1.0"><defs><clipPath id="75b48b584d"><path d="M 0.824219 0.824219 L 74.324219 0.824219 L 74.324219 74.324219 L 0.824219 74.324219 Z M 0.824219 0.824219 " clip-rule="nonzero"/></clipPath><clipPath id="7714cb261f"><path d="M 58.296875 74.316406 L 16.855469 74.316406 C 8.035156 74.316406 0.824219 67.105469 0.824219 58.289062 L 0.824219 16.863281 C 0.824219 8.042969 8.035156 0.832031 16.855469 0.832031 L 58.28125 0.832031 C 67.097656 0.832031 74.308594 8.042969 74.308594 16.863281 L 74.308594 58.289062 C 74.324219 67.105469 67.113281 74.316406 58.296875 74.316406 Z M 58.296875 74.316406 " clip-rule="nonzero"/></clipPath><linearGradient x1="275" gradientTransform="matrix(0.153093, 0, 0, -0.153093, -4.533257, -149.621124)" y1="-982.760063" x2="275" gradientUnits="userSpaceOnUse" y2="-1462.760068" id="52038b4132"><stop stop-opacity="1" stop-color="rgb(36.468506%, 56.858826%, 97.648621%)" offset="0"/><stop stop-opacity="1" stop-color="rgb(36.631775%, 56.689453%, 97.657776%)" offset="0.0078125"/><stop stop-opacity="1" stop-color="rgb(36.959839%, 56.35376%, 97.676086%)" offset="0.015625"/><stop stop-opacity="1" stop-color="rgb(37.287903%, 56.016541%, 97.694397%)" offset="0.0234375"/><stop stop-opacity="1" stop-color="rgb(37.615967%, 55.679321%, 97.714233%)" offset="0.03125"/><stop stop-opacity="1" stop-color="rgb(37.944031%, 55.342102%, 97.732544%)" offset="0.0390625"/><stop stop-opacity="1" stop-color="rgb(38.272095%, 55.004883%, 97.750854%)" offset="0.046875"/><stop stop-opacity="1" stop-color="rgb(38.598633%, 54.667664%, 97.769165%)" offset="0.0546875"/><stop stop-opacity="1" stop-color="rgb(38.926697%, 54.33197%, 97.787476%)" offset="0.0625"/><stop stop-opacity="1" stop-color="rgb(39.254761%, 53.994751%, 97.805786%)" offset="0.0703125"/><stop stop-opacity="1" stop-color="rgb(39.582825%, 53.657532%, 97.824097%)" offset="0.078125"/><stop stop-opacity="1" stop-color="rgb(39.910889%, 53.320312%, 97.842407%)" offset="0.0859375"/><stop stop-opacity="1" stop-color="rgb(40.238953%, 52.983093%, 97.860718%)" offset="0.09375"/><stop stop-opacity="1" stop-color="rgb(40.567017%, 52.6474%, 97.879028%)" offset="0.101563"/><stop stop-opacity="1" stop-color="rgb(40.893555%, 52.310181%, 97.897339%)" offset="0.109375"/><stop stop-opacity="1" stop-color="rgb(41.221619%, 51.972961%, 97.915649%)" offset="0.117188"/><stop stop-opacity="1" stop-color="rgb(41.549683%, 51.635742%, 97.93396%)" offset="0.125"/><stop stop-opacity="1" stop-color="rgb(41.877747%, 51.298523%, 97.952271%)" offset="0.132813"/><stop stop-opacity="1" stop-color="rgb(42.205811%, 50.961304%, 97.970581%)" offset="0.140625"/><stop stop-opacity="1" stop-color="rgb(42.533875%, 50.62561%, 97.988892%)" offset="0.148438"/><stop stop-opacity="1" stop-color="rgb(42.860413%, 50.288391%, 98.007202%)" offset="0.15625"/><stop stop-opacity="1" stop-color="rgb(43.188477%, 49.951172%, 98.025513%)" offset="0.164063"/><stop stop-opacity="1" stop-color="rgb(43.516541%, 49.613953%, 98.043823%)" offset="0.171875"/><stop stop-opacity="1" stop-color="rgb(43.844604%, 49.276733%, 98.062134%)" offset="0.179688"/><stop stop-opacity="1" stop-color="rgb(44.172668%, 48.939514%, 98.080444%)" offset="0.1875"/><stop stop-opacity="1" stop-color="rgb(44.500732%, 48.603821%, 98.098755%)" offset="0.195313"/><stop stop-opacity="1" stop-color="rgb(44.827271%, 48.266602%, 98.117065%)" offset="0.203125"/><stop stop-opacity="1" stop-color="rgb(45.155334%, 47.929382%, 98.135376%)" offset="0.210938"/><stop stop-opacity="1" stop-color="rgb(45.483398%, 47.592163%, 98.153687%)" offset="0.21875"/><stop stop-opacity="1" stop-color="rgb(45.811462%, 47.254944%, 98.171997%)" offset="0.226563"/><stop stop-opacity="1" stop-color="rgb(46.139526%, 46.917725%, 98.190308%)" offset="0.234375"/><stop stop-opacity="1" stop-color="rgb(46.46759%, 46.582031%, 98.208618%)" offset="0.242188"/><stop stop-opacity="1" stop-color="rgb(46.794128%, 46.244812%, 98.226929%)" offset="0.25"/><stop stop-opacity="1" stop-color="rgb(47.122192%, 45.907593%, 98.245239%)" offset="0.257812"/><stop stop-opacity="1" stop-color="rgb(47.450256%, 45.570374%, 98.26355%)" offset="0.265625"/><stop stop-opacity="1" stop-color="rgb(47.77832%, 45.233154%, 98.28186%)" offset="0.273438"/><stop stop-opacity="1" stop-color="rgb(48.106384%, 44.897461%, 98.301697%)" offset="0.28125"/><stop stop-opacity="1" stop-color="rgb(48.434448%, 44.560242%, 98.320007%)" offset="0.289063"/><stop stop-opacity="1" stop-color="rgb(48.760986%, 44.223022%, 98.338318%)" offset="0.296875"/><stop stop-opacity="1" stop-color="rgb(49.08905%, 43.885803%, 98.356628%)" offset="0.304688"/><stop stop-opacity="1" stop-color="rgb(49.417114%, 43.548584%, 98.374939%)" offset="0.3125"/><stop stop-opacity="1" stop-color="rgb(49.745178%, 43.211365%, 98.39325%)" offset="0.320313"/><stop stop-opacity="1" stop-color="rgb(50.073242%, 42.875671%, 98.41156%)" offset="0.328125"/><stop stop-opacity="1" stop-color="rgb(50.401306%, 42.538452%, 98.429871%)" offset="0.335938"/><stop stop-opacity="1" stop-color="rgb(50.727844%, 42.201233%, 98.448181%)" offset="0.34375"/><stop stop-opacity="1" stop-color="rgb(51.055908%, 41.864014%, 98.466492%)" offset="0.351563"/><stop stop-opacity="1" stop-color="rgb(51.383972%, 41.526794%, 98.484802%)" offset="0.359375"/><stop stop-opacity="1" stop-color="rgb(51.712036%, 41.189575%, 98.503113%)" offset="0.367188"/><stop stop-opacity="1" stop-color="rgb(52.0401%, 40.853882%, 98.521423%)" offset="0.375"/><stop stop-opacity="1" stop-color="rgb(52.368164%, 40.516663%, 98.539734%)" offset="0.382813"/><stop stop-opacity="1" stop-color="rgb(52.694702%, 40.179443%, 98.558044%)" offset="0.390625"/><stop stop-opacity="1" stop-color="rgb(53.022766%, 39.842224%, 98.576355%)" offset="0.398438"/><stop stop-opacity="1" stop-color="rgb(53.35083%, 39.505005%, 98.594666%)" offset="0.40625"/><stop stop-opacity="1" stop-color="rgb(53.678894%, 39.169312%, 98.612976%)" offset="0.414063"/><stop stop-opacity="1" stop-color="rgb(54.006958%, 38.832092%, 98.631287%)" offset="0.421875"/><stop stop-opacity="1" stop-color="rgb(54.335022%, 38.494873%, 98.649597%)" offset="0.429688"/><stop stop-opacity="1" stop-color="rgb(54.66156%, 38.157654%, 98.667908%)" offset="0.4375"/><stop stop-opacity="1" stop-color="rgb(54.989624%, 37.820435%, 98.686218%)" offset="0.445313"/><stop stop-opacity="1" stop-color="rgb(55.317688%, 37.483215%, 98.704529%)" offset="0.453125"/><stop stop-opacity="1" stop-color="rgb(55.645752%, 37.147522%, 98.722839%)" offset="0.460938"/><stop stop-opacity="1" stop-color="rgb(55.973816%, 36.810303%, 98.74115%)" offset="0.46875"/><stop stop-opacity="1" stop-color="rgb(56.30188%, 36.473083%, 98.75946%)" offset="0.476563"/><stop stop-opacity="1" stop-color="rgb(56.628418%, 36.135864%, 98.777771%)" offset="0.484375"/><stop stop-opacity="1" stop-color="rgb(56.956482%, 35.798645%, 98.796082%)" offset="0.492188"/><stop stop-opacity="1" stop-color="rgb(57.284546%, 35.461426%, 98.814392%)" offset="0.5"/><stop stop-opacity="1" stop-color="rgb(57.61261%, 35.125732%, 98.832703%)" offset="0.507812"/><stop stop-opacity="1" stop-color="rgb(57.940674%, 34.788513%, 98.851013%)" offset="0.515625"/><stop stop-opacity="1" stop-color="rgb(58.268738%, 34.451294%, 98.87085%)" offset="0.523438"/><stop stop-opacity="1" stop-color="rgb(58.595276%, 34.114075%, 98.88916%)" offset="0.53125"/><stop stop-opacity="1" stop-color="rgb(58.92334%, 33.776855%, 98.907471%)" offset="0.539062"/><stop stop-opacity="1" stop-color="rgb(59.251404%, 33.439636%, 98.925781%)" offset="0.546875"/><stop stop-opacity="1" stop-color="rgb(59.579468%, 33.103943%, 98.944092%)" offset="0.554688"/><stop stop-opacity="1" stop-color="rgb(59.907532%, 32.766724%, 98.962402%)" offset="0.5625"/><stop stop-opacity="1" stop-color="rgb(60.235596%, 32.429504%, 98.980713%)" offset="0.570313"/><stop stop-opacity="1" stop-color="rgb(60.562134%, 32.092285%, 98.999023%)" offset="0.578125"/><stop stop-opacity="1" stop-color="rgb(60.890198%, 31.755066%, 99.017334%)" offset="0.585938"/><stop stop-opacity="1" stop-color="rgb(61.218262%, 31.419373%, 99.035645%)" offset="0.59375"/><stop stop-opacity="1" stop-color="rgb(61.546326%, 31.082153%, 99.053955%)" offset="0.601563"/><stop stop-opacity="1" stop-color="rgb(61.87439%, 30.744934%, 99.072266%)" offset="0.609375"/><stop stop-opacity="1" stop-color="rgb(62.202454%, 30.407715%, 99.090576%)" offset="0.617188"/><stop stop-opacity="1" stop-color="rgb(62.528992%, 30.070496%, 99.108887%)" offset="0.625"/><stop stop-opacity="1" stop-color="rgb(62.857056%, 29.733276%, 99.127197%)" offset="0.632813"/><stop stop-opacity="1" stop-color="rgb(63.18512%, 29.397583%, 99.145508%)" offset="0.640625"/><stop stop-opacity="1" stop-color="rgb(63.513184%, 29.060364%, 99.163818%)" offset="0.648438"/><stop stop-opacity="1" stop-color="rgb(63.841248%, 28.723145%, 99.182129%)" offset="0.65625"/><stop stop-opacity="1" stop-color="rgb(64.169312%, 28.385925%, 99.200439%)" offset="0.664063"/><stop stop-opacity="1" stop-color="rgb(64.49585%, 28.048706%, 99.21875%)" offset="0.671875"/><stop stop-opacity="1" stop-color="rgb(64.823914%, 27.711487%, 99.237061%)" offset="0.679688"/><stop stop-opacity="1" stop-color="rgb(65.151978%, 27.375793%, 99.255371%)" offset="0.6875"/><stop stop-opacity="1" stop-color="rgb(65.480042%, 27.038574%, 99.273682%)" offset="0.695313"/><stop stop-opacity="1" stop-color="rgb(65.808105%, 26.701355%, 99.291992%)" offset="0.703125"/><stop stop-opacity="1" stop-color="rgb(66.136169%, 26.364136%, 99.310303%)" offset="0.710938"/><stop stop-opacity="1" stop-color="rgb(66.462708%, 26.026917%, 99.328613%)" offset="0.71875"/><stop stop-opacity="1" stop-color="rgb(66.790771%, 25.689697%, 99.346924%)" offset="0.726563"/><stop stop-opacity="1" stop-color="rgb(67.118835%, 25.354004%, 99.365234%)" offset="0.734375"/><stop stop-opacity="1" stop-color="rgb(67.446899%, 25.016785%, 99.383545%)" offset="0.742188"/><stop stop-opacity="1" stop-color="rgb(67.774963%, 24.679565%, 99.401855%)" offset="0.75"/><stop stop-opacity="1" stop-color="rgb(68.103027%, 24.342346%, 99.420166%)" offset="0.757813"/><stop stop-opacity="1" stop-color="rgb(68.429565%, 24.005127%, 99.440002%)" offset="0.765625"/><stop stop-opacity="1" stop-color="rgb(68.757629%, 23.669434%, 99.458313%)" offset="0.773438"/><stop stop-opacity="1" stop-color="rgb(69.085693%, 23.332214%, 99.476624%)" offset="0.78125"/><stop stop-opacity="1" stop-color="rgb(69.413757%, 22.994995%, 99.494934%)" offset="0.789063"/><stop stop-opacity="1" stop-color="rgb(69.741821%, 22.657776%, 99.513245%)" offset="0.796875"/><stop stop-opacity="1" stop-color="rgb(70.069885%, 22.320557%, 99.531555%)" offset="0.804688"/><stop stop-opacity="1" stop-color="rgb(70.397949%, 21.983337%, 99.549866%)" offset="0.8125"/><stop stop-opacity="1" stop-color="rgb(70.724487%, 21.647644%, 99.568176%)" offset="0.820313"/><stop stop-opacity="1" stop-color="rgb(71.052551%, 21.310425%, 99.586487%)" offset="0.828125"/><stop stop-opacity="1" stop-color="rgb(71.380615%, 20.973206%, 99.604797%)" offset="0.835938"/><stop stop-opacity="1" stop-color="rgb(71.708679%, 20.635986%, 99.623108%)" offset="0.84375"/><stop stop-opacity="1" stop-color="rgb(72.036743%, 20.298767%, 99.641418%)" offset="0.851563"/><stop stop-opacity="1" stop-color="rgb(72.364807%, 19.961548%, 99.659729%)" offset="0.859375"/><stop stop-opacity="1" stop-color="rgb(72.691345%, 19.625854%, 99.67804%)" offset="0.867188"/><stop stop-opacity="1" stop-color="rgb(73.019409%, 19.288635%, 99.69635%)" offset="0.875"/><stop stop-opacity="1" stop-color="rgb(73.347473%, 18.951416%, 99.714661%)" offset="0.882812"/><stop stop-opacity="1" stop-color="rgb(73.675537%, 18.614197%, 99.732971%)" offset="0.890625"/><stop stop-opacity="1" stop-color="rgb(74.003601%, 18.276978%, 99.751282%)" offset="0.898438"/><stop stop-opacity="1" stop-color="rgb(74.331665%, 17.939758%, 99.769592%)" offset="0.90625"/><stop stop-opacity="1" stop-color="rgb(74.658203%, 17.604065%, 99.787903%)" offset="0.914062"/><stop stop-opacity="1" stop-color="rgb(74.986267%, 17.266846%, 99.806213%)" offset="0.921875"/><stop stop-opacity="1" stop-color="rgb(75.314331%, 16.929626%, 99.824524%)" offset="0.929688"/><stop stop-opacity="1" stop-color="rgb(75.642395%, 16.592407%, 99.842834%)" offset="0.9375"/><stop stop-opacity="1" stop-color="rgb(75.970459%, 16.255188%, 99.861145%)" offset="0.945312"/><stop stop-opacity="1" stop-color="rgb(76.298523%, 15.919495%, 99.879456%)" offset="0.953125"/><stop stop-opacity="1" stop-color="rgb(76.625061%, 15.582275%, 99.897766%)" offset="0.960938"/><stop stop-opacity="1" stop-color="rgb(76.953125%, 15.245056%, 99.916077%)" offset="0.96875"/><stop stop-opacity="1" stop-color="rgb(77.281189%, 14.907837%, 99.934387%)" offset="0.976562"/><stop stop-opacity="1" stop-color="rgb(77.609253%, 14.570618%, 99.952698%)" offset="0.984375"/><stop stop-opacity="1" stop-color="rgb(77.937317%, 14.233398%, 99.971008%)" offset="0.992188"/><stop stop-opacity="1" stop-color="rgb(78.265381%, 13.897705%, 99.989319%)" offset="1"/></linearGradient></defs><g clip-path="url(#75b48b584d)"><g clip-path="url(#7714cb261f)"><path fill="url(#52038b4132)" d="M 0.824219 74.316406 L 0.824219 0.832031 L 74.324219 0.832031 L 74.324219 74.316406 Z M 0.824219 74.316406 " fill-rule="nonzero"/></g></g><path fill="#ffffff" d="M 25.933594 67.199219 L 14.328125 67.199219 C 13.960938 67.199219 13.652344 66.890625 13.652344 66.523438 L 13.652344 44.832031 C 13.652344 44.464844 13.960938 44.15625 14.328125 44.15625 L 25.933594 44.15625 C 26.300781 44.15625 26.605469 44.464844 26.605469 44.832031 L 26.605469 66.507812 C 26.605469 66.890625 26.300781 67.199219 25.933594 67.199219 Z M 15 65.835938 L 25.242188 65.835938 L 25.242188 45.503906 L 15 45.503906 Z M 15 65.835938 " fill-opacity="1" fill-rule="nonzero"/><path fill="#ffffff" d="M 37.519531 67.199219 L 25.933594 67.199219 C 25.566406 67.199219 25.257812 66.890625 25.257812 66.523438 L 25.257812 35.96875 C 25.257812 35.601562 25.566406 35.292969 25.933594 35.292969 L 37.535156 35.292969 C 37.902344 35.292969 38.210938 35.601562 38.210938 35.96875 L 38.210938 66.507812 C 38.210938 66.890625 37.902344 67.199219 37.519531 67.199219 Z M 26.605469 65.835938 L 36.847656 65.835938 L 36.847656 36.640625 L 26.605469 36.640625 Z M 26.605469 65.835938 " fill-opacity="1" fill-rule="nonzero"/><path fill="#ffffff" d="M 49.125 67.199219 L 37.519531 67.199219 C 37.152344 67.199219 36.847656 66.890625 36.847656 66.523438 L 36.847656 44.832031 C 36.847656 44.464844 37.152344 44.15625 37.519531 44.15625 L 49.125 44.15625 C 49.492188 44.15625 49.800781 44.464844 49.800781 44.832031 L 49.800781 66.507812 C 49.800781 66.890625 49.507812 67.199219 49.125 67.199219 Z M 38.210938 65.835938 L 48.453125 65.835938 L 48.453125 45.503906 L 38.210938 45.503906 Z M 38.210938 65.835938 " fill-opacity="1" fill-rule="nonzero"/><path fill="#ffffff" d="M 60.730469 67.199219 L 49.125 67.199219 C 48.757812 67.199219 48.453125 66.890625 48.453125 66.523438 L 48.453125 26.980469 C 48.453125 26.613281 48.757812 26.308594 49.125 26.308594 L 60.808594 26.308594 C 60.992188 26.308594 61.160156 26.382812 61.28125 26.507812 C 61.402344 26.628906 61.480469 26.8125 61.480469 26.980469 L 61.402344 41.707031 L 61.402344 66.507812 C 61.402344 66.890625 61.097656 67.199219 60.730469 67.199219 Z M 49.800781 65.835938 L 60.042969 65.835938 L 60.042969 41.707031 L 60.117188 27.65625 L 49.800781 27.65625 Z M 49.800781 65.835938 " fill-opacity="1" fill-rule="nonzero"/><path fill="#ffffff" d="M 40.550781 26.324219 C 40.492188 26.324219 40.414062 26.308594 40.355469 26.292969 L 33.738281 24.179688 C 33.386719 24.070312 33.1875 23.691406 33.296875 23.320312 C 33.402344 22.96875 33.785156 22.769531 34.152344 22.878906 L 40.75 24.992188 C 41.105469 25.097656 41.304688 25.480469 41.195312 25.847656 C 41.105469 26.140625 40.84375 26.324219 40.550781 26.324219 Z M 40.550781 26.324219 " fill-opacity="1" fill-rule="nonzero"/><path fill="#ffffff" d="M 44.625 24.976562 C 44.457031 24.976562 44.304688 24.914062 44.164062 24.808594 C 43.890625 24.5625 43.859375 24.132812 44.121094 23.84375 L 53.949219 12.867188 C 54.191406 12.589844 54.621094 12.558594 54.914062 12.820312 C 55.1875 13.066406 55.21875 13.492188 54.957031 13.785156 L 45.128906 24.761719 C 44.992188 24.898438 44.808594 24.976562 44.625 24.976562 Z M 44.625 24.976562 " fill-opacity="1" fill-rule="nonzero"/><path fill="#ffffff" d="M 21.445312 29.613281 C 21.21875 29.613281 21.003906 29.507812 20.878906 29.308594 C 20.679688 28.988281 20.773438 28.574219 21.09375 28.375 L 28.824219 23.445312 C 29.148438 23.246094 29.5625 23.335938 29.757812 23.660156 C 29.957031 23.980469 29.867188 24.394531 29.546875 24.59375 L 21.796875 29.507812 C 21.691406 29.582031 21.570312 29.613281 21.445312 29.613281 Z M 21.445312 29.613281 " fill-opacity="1" fill-rule="nonzero"/><path fill="#ffffff" d="M 31.472656 26.140625 C 29.699219 26.140625 28.242188 24.683594 28.242188 22.910156 C 28.242188 21.132812 29.699219 19.679688 31.472656 19.679688 C 33.25 19.679688 34.703125 21.132812 34.703125 22.910156 C 34.703125 24.683594 33.265625 26.140625 31.472656 26.140625 Z M 31.472656 21.039062 C 30.449219 21.039062 29.605469 21.882812 29.605469 22.910156 C 29.605469 23.933594 30.449219 24.777344 31.472656 24.777344 C 32.5 24.777344 33.34375 23.933594 33.34375 22.910156 C 33.34375 21.882812 32.515625 21.039062 31.472656 21.039062 Z M 31.472656 21.039062 " fill-opacity="1" fill-rule="nonzero"/><path fill="#ffffff" d="M 19.289062 33.546875 C 17.511719 33.546875 16.058594 32.09375 16.058594 30.320312 C 16.058594 28.542969 17.511719 27.089844 19.289062 27.089844 C 21.0625 27.089844 22.519531 28.542969 22.519531 30.320312 C 22.519531 32.09375 21.0625 33.546875 19.289062 33.546875 Z M 19.289062 28.433594 C 18.261719 28.433594 17.421875 29.277344 17.421875 30.304688 C 17.421875 31.328125 18.261719 32.171875 19.289062 32.171875 C 20.3125 32.171875 21.15625 31.328125 21.15625 30.304688 C 21.15625 29.277344 20.328125 28.433594 19.289062 28.433594 Z M 19.289062 28.433594 " fill-opacity="1" fill-rule="nonzero"/><path fill="#ffffff" d="M 55.847656 14.410156 C 54.070312 14.410156 52.617188 12.957031 52.617188 11.183594 C 52.617188 9.40625 54.070312 7.953125 55.847656 7.953125 C 57.621094 7.953125 59.078125 9.40625 59.078125 11.183594 C 59.078125 12.957031 57.621094 14.410156 55.847656 14.410156 Z M 55.847656 9.3125 C 54.820312 9.3125 53.980469 10.15625 53.980469 11.183594 C 53.980469 12.207031 54.820312 13.050781 55.847656 13.050781 C 56.871094 13.050781 57.714844 12.207031 57.714844 11.183594 C 57.714844 10.15625 56.871094 9.3125 55.847656 9.3125 Z M 55.847656 9.3125 " fill-opacity="1" fill-rule="nonzero"/><path fill="#ffffff" d="M 43.015625 29.507812 C 41.242188 29.507812 39.789062 28.050781 39.789062 26.277344 C 39.789062 24.5 41.242188 23.046875 43.015625 23.046875 C 44.792969 23.046875 46.246094 24.5 46.246094 26.277344 C 46.246094 28.050781 44.808594 29.507812 43.015625 29.507812 Z M 43.015625 24.410156 C 41.992188 24.410156 41.148438 25.25 41.148438 26.277344 C 41.148438 27.300781 41.992188 28.144531 43.015625 28.144531 C 44.042969 28.144531 44.886719 27.300781 44.886719 26.277344 C 44.902344 25.25 44.058594 24.410156 43.015625 24.410156 Z M 43.015625 24.410156 " fill-opacity="1" fill-rule="nonzero"/></svg>