<svg width="95" height="96" viewBox="0 0 95 96" fill="none" xmlns="http://www.w3.org/2000/svg">
<path d="M95 47.625C95 49.1823 94.9219 50.7396 94.7708 52.2917C94.6198 53.8438 94.3906 55.3854 94.0885 56.9167C93.7813 58.4427 93.4063 59.9583 92.9531 61.4479C92.5052 62.9427 91.9792 64.4063 91.3854 65.849C90.7865 67.2917 90.125 68.6979 89.3906 70.0729C88.6563 71.4479 87.8594 72.7865 86.9948 74.0833C86.1302 75.3802 85.2031 76.6302 84.2188 77.8385C83.2292 79.0417 82.1875 80.1979 81.0885 81.3021C79.9896 82.401 78.8385 83.4479 77.6354 84.4375C76.4323 85.4271 75.1823 86.3542 73.8906 87.224C72.5938 88.0885 71.2656 88.8906 69.8906 89.625C68.5208 90.3594 67.1146 91.026 65.6771 91.625C64.2396 92.2188 62.776 92.7448 61.2865 93.1979C59.8021 93.651 58.2917 94.0313 56.7656 94.3333C55.2396 94.6354 53.7031 94.8646 52.1563 95.0208C50.6094 95.1719 49.0573 95.25 47.5 95.25C45.9427 95.25 44.3906 95.1719 42.8438 95.0208C41.2969 94.8646 39.7604 94.6354 38.2344 94.3333C36.7083 94.0313 35.1979 93.651 33.7135 93.1979C32.224 92.7448 30.7604 92.2188 29.3229 91.625C27.8854 91.026 26.4792 90.3594 25.1094 89.625C23.7344 88.8906 22.4063 88.0885 21.1094 87.224C19.8177 86.3542 18.5677 85.4271 17.3646 84.4375C16.1615 83.4479 15.0104 82.401 13.9115 81.3021C12.8125 80.1979 11.7708 79.0417 10.7813 77.8385C9.79688 76.6302 8.86979 75.3802 8.00521 74.0833C7.14063 72.7865 6.34375 71.4479 5.60937 70.0729C4.875 68.6979 4.21354 67.2917 3.61458 65.849C3.02083 64.4063 2.49479 62.9427 2.04687 61.4479C1.59375 59.9583 1.21875 58.4427 0.911459 56.9167C0.609375 55.3854 0.380208 53.8438 0.229167 52.2917C0.0781253 50.7396 0 49.1823 0 47.625C0 46.0625 0.0781253 44.5104 0.229167 42.9583C0.380208 41.401 0.609375 39.8646 0.911459 38.3333C1.21875 36.8021 1.59375 35.2917 2.04687 33.7969C2.49479 32.3073 3.02083 30.8385 3.61458 29.401C4.21354 27.9583 4.875 26.5469 5.60937 25.1719C6.34375 23.7969 7.14063 22.4635 8.00521 21.1667C8.86979 19.8698 9.79688 18.6146 10.7813 17.4115C11.7708 16.2031 12.8125 15.0521 13.9115 13.9479C15.0104 12.8438 16.1615 11.7969 17.3646 10.8073C18.5677 9.81771 19.8177 8.89063 21.1094 8.02604C22.4063 7.15625 23.7344 6.35938 25.1094 5.61979C26.4792 4.88542 27.8854 4.21875 29.3229 3.625C30.7604 3.02604 32.224 2.5 33.7135 2.05208C35.1979 1.59896 36.7083 1.21875 38.2344 0.911458C39.7604 0.609375 41.2969 0.380209 42.8438 0.229167C44.3906 0.0729167 45.9427 0 47.5 0C49.0573 0 50.6094 0.0729167 52.1563 0.229167C53.7031 0.380209 55.2396 0.609375 56.7656 0.911458C58.2917 1.21875 59.8021 1.59896 61.2865 2.05208C62.776 2.5 64.2396 3.02604 65.6771 3.625C67.1146 4.21875 68.5208 4.88542 69.8906 5.61979C71.2656 6.35938 72.5938 7.15625 73.8906 8.02604C75.1823 8.89063 76.4323 9.81771 77.6354 10.8073C78.8385 11.7969 79.9896 12.8438 81.0885 13.9479C82.1875 15.0521 83.2292 16.2031 84.2188 17.4115C85.2031 18.6146 86.1302 19.8698 86.9948 21.1667C87.8594 22.4635 88.6563 23.7969 89.3906 25.1719C90.125 26.5469 90.7865 27.9583 91.3854 29.401C91.9792 30.8385 92.5052 32.3073 92.9531 33.7969C93.4063 35.2917 93.7813 36.8021 94.0885 38.3333C94.3906 39.8646 94.6198 41.401 94.7708 42.9583C94.9219 44.5104 95 46.0625 95 47.625Z" fill="#ABABAB"/>
<path d="M81.0938 81.3021C81.6823 80.7135 82.25 80.1042 82.8229 79.474C82.724 79.3802 82.651 79.2865 82.5573 79.1875C82.5 79.1302 82.4219 79.0729 82.3646 79.0156C82.25 78.9219 82.1354 78.8073 82.0208 78.7135C81.9479 78.6562 81.8698 78.599 81.8125 78.5417C81.6979 78.4479 81.5885 78.349 81.474 78.276C81.3958 78.2187 81.3177 78.1615 81.224 78.1042C81.1094 78.026 80.9792 77.9323 80.8646 77.8542C80.7865 77.7969 80.6927 77.7396 80.599 77.7031C80.4635 77.625 80.349 77.5521 80.2188 77.474C80.125 77.4167 80.026 77.3802 79.9323 77.3229C79.8021 77.2448 79.6667 77.1875 79.5365 77.1146C79.4375 77.0573 79.3438 77.0156 79.25 76.9792C79.1146 76.9219 78.9844 76.849 78.849 76.7917C78.7552 76.75 78.6406 76.6927 78.5469 76.6562C78.4115 76.599 78.2604 76.5417 78.1302 76.4844C78.0313 76.4479 77.9167 76.4062 77.8229 76.3698C77.6719 76.3125 77.5365 76.2552 77.3854 76.2187C77.2708 76.1823 77.1771 76.1406 77.0625 76.1042C76.9115 76.0469 76.7813 76.0104 76.625 75.9531C76.5104 75.9115 76.401 75.875 76.3021 75.8542C76.151 75.8177 76 75.7604 75.849 75.724C75.7344 75.6823 75.6198 75.6667 75.5052 75.625C75.3542 75.5885 75.2031 75.5521 75.0521 75.5104C74.9375 75.4948 74.8229 75.4583 74.7083 75.4375C74.5573 75.401 74.4063 75.3594 74.25 75.3229C74.1354 75.3021 74.026 75.2656 73.9115 75.2448C73.7604 75.2083 73.6042 75.1875 73.4375 75.151C73.3229 75.1302 73.2083 75.1146 73.0938 75.0937C72.9427 75.0573 72.7865 75.0365 72.6198 75.0156C72.5052 75 72.3906 74.9792 72.276 74.9583C72.125 74.9427 71.974 74.901 71.8021 74.8854C71.6875 74.8646 71.5729 74.8437 71.4375 74.8281C71.2865 74.8073 71.1354 74.7917 70.9635 74.7708C70.849 74.75 70.7396 74.7344 70.6042 74.7344C70.4531 74.7135 70.3021 74.6927 70.1458 74.6771C70.0365 74.6562 69.9219 74.6562 69.8073 74.6354C69.6563 74.6198 69.5 74.599 69.349 74.599C69.2344 74.5781 69.1198 74.5781 69.0104 74.5625C68.8542 74.5417 68.7031 74.5417 68.5521 74.5208C68.4375 74.5052 68.3229 74.5052 68.2083 74.5052C68.0573 74.4844 67.9271 74.4844 67.7708 74.4635C67.6615 74.4635 67.5469 74.4479 67.4323 74.4479C67.2813 74.4479 67.1458 74.4271 67.0156 74.4271C66.901 74.4271 66.7865 74.4062 66.6719 74.4062C66.5365 74.4062 66.4063 74.3906 66.2552 74.3906C66.1406 74.3906 66.026 74.3698 65.9115 74.3698C65.776 74.3698 65.6458 74.349 65.5313 74.349C65.4167 74.349 65.3021 74.349 65.1875 74.3333C65.0729 74.3333 64.9427 74.3333 64.8281 74.3125C64.7135 74.3125 64.599 74.3125 64.4844 74.3125C64.3698 74.3125 64.276 74.3125 64.1615 74.3125C64.0469 74.3125 63.9167 74.3125 63.8021 74.3125C63.7083 74.3125 63.6146 74.3125 63.5365 74.3125C63.401 74.3125 63.2865 74.3125 63.1563 74.3125C63.0781 74.3125 63.0208 74.3125 62.9479 74.3125C62.8125 74.3125 62.6823 74.3125 62.5469 74.3125C62.5104 74.3125 62.4531 74.3125 62.4167 74.3125C62.0938 74.3125 61.7708 74.3125 61.4844 74.3125C61.3698 74.3125 61.2552 74.3125 61.1406 74.2917C61.125 74.2917 61.125 74.2917 61.1042 74.2917C61.0104 74.2917 60.8958 74.276 60.8021 74.2552C60.5885 74.2187 60.3802 74.1771 60.1927 74.1198C57.5677 73.3802 56.599 70.2917 56.6563 67.1875C56.6771 66.2552 56.7917 65.3021 56.9792 64.4271C57 64.4062 57.0208 64.3854 57.0573 64.3698C60 61.7031 62.2083 57.8542 63.6146 53.5312C64.4688 54.7083 65.776 53.5312 65.9323 52.4062C65.9115 50.7083 69.026 43.0729 65.5521 43.3177C66.0417 39.7396 66.7292 34.9948 67.224 32.974C68.0573 29.5469 65.7188 27.7187 65.7188 27.7187C69.4635 21.0312 59.6406 12.4375 48.4896 13.526C44.4792 13.9062 39.9948 15.0469 36.974 16.6667C30.2083 20.2865 27.151 24.5156 28.5 35.4896C28.6875 37.9844 29.125 40.9167 29.526 43.3385C26.0104 43.0885 29.1458 50.7292 29.125 52.4219C29.2813 53.5312 30.5885 54.7292 31.4635 53.5312C32.8906 57.8542 35.0937 61.7187 38.0365 64.3854C38.0573 64.4062 38.0781 64.4271 38.0938 64.4427C38.2865 65.3229 38.401 66.276 38.4167 67.2083C38.474 70.3125 37.5052 73.401 34.8854 74.1406C34.7865 74.1615 34.6927 74.1979 34.599 74.2187C34.5052 74.2344 34.4115 74.2552 34.3125 74.276H34.2969C34.1979 74.2917 34.1042 74.2917 34.0313 74.2917C34.0104 74.2917 33.9896 74.2917 33.974 74.2917C33.875 74.2917 33.7656 74.3125 33.6667 74.3125H33.6302C33.3646 74.3125 33.0625 74.3125 32.7552 74.3125C32.7188 74.3125 32.6823 74.3125 32.6406 74.3125C32.5104 74.3125 32.3594 74.3125 32.2031 74.3125C32.1458 74.3125 32.0729 74.3125 32.0156 74.3125C31.8802 74.3125 31.75 74.3125 31.6146 74.3125C31.5417 74.3125 31.4427 74.3125 31.3698 74.3125C31.2344 74.3125 31.1042 74.3125 30.9688 74.3125C30.875 74.3125 30.7813 74.3125 30.6875 74.3125C30.5729 74.3125 30.4375 74.3125 30.3073 74.3125C30.1927 74.3125 30.0781 74.3125 29.9635 74.3333C29.849 74.3333 29.7135 74.3333 29.6042 74.349C29.4896 74.349 29.3542 74.349 29.2396 74.3698C29.125 74.3698 28.9948 74.3906 28.8802 74.3906C28.7448 74.3906 28.6146 74.4062 28.4792 74.4062C28.3646 74.4062 28.2344 74.4271 28.1198 74.4271C27.9896 74.4271 27.8542 74.4479 27.7031 74.4479C27.5885 74.4479 27.4531 74.4635 27.3385 74.4635C27.2083 74.4844 27.0573 74.4844 26.9063 74.5052C26.7917 74.5052 26.6563 74.5208 26.5417 74.5417C26.3906 74.5625 26.2396 74.5625 26.1042 74.5781C25.9896 74.599 25.8594 74.599 25.7448 74.6198C25.5938 74.6354 25.4427 74.6562 25.2865 74.6562C25.1771 74.6771 25.0417 74.6771 24.9271 74.6927C24.776 74.7135 24.625 74.7344 24.474 74.75C24.3594 74.7708 24.2448 74.7917 24.1094 74.7917C23.9583 74.8073 23.8073 74.8281 23.6354 74.8437C23.5208 74.8646 23.4063 74.8854 23.276 74.901C23.125 74.9219 22.9688 74.9583 22.8021 74.9792C22.6875 75 22.5729 75.0156 22.4375 75.0365C22.2865 75.0573 22.1354 75.0937 21.9635 75.1146C21.849 75.1302 21.7344 75.151 21.6042 75.1719C21.4531 75.2083 21.2969 75.2292 21.1458 75.2656C21.0313 75.2865 20.9167 75.3229 20.8073 75.3437C20.651 75.3802 20.5 75.4167 20.349 75.4583C20.2344 75.474 20.1198 75.5104 20.0052 75.5312C19.8542 75.5677 19.7031 75.6094 19.5521 75.6458C19.4375 75.6823 19.3229 75.7031 19.2083 75.7396C19.0573 75.7812 18.9063 75.8177 18.7708 75.875C18.6563 75.9115 18.5417 75.9531 18.4323 75.9687C18.276 76.0104 18.1458 76.0677 17.9948 76.1042C17.8802 76.1406 17.7656 76.1823 17.651 76.2187C17.5156 76.276 17.3646 76.3125 17.2344 76.3698C17.1198 76.4062 17.0052 76.4479 16.9115 76.5052C16.776 76.5625 16.6458 76.6198 16.5104 76.6771C16.3958 76.7135 16.3021 76.7708 16.1875 76.8073C16.0573 76.8646 15.9427 76.9219 15.8073 76.9792C15.6927 77.0365 15.599 77.0729 15.4844 77.1302C15.3542 77.1875 15.2396 77.2656 15.125 77.3229C15.0313 77.3802 14.9167 77.4375 14.8177 77.4948C14.7083 77.5521 14.5938 77.625 14.4792 77.7031C14.3854 77.7604 14.2865 77.8177 14.1927 77.875C14.0781 77.9531 13.9844 78.026 13.8698 78.1042C13.776 78.1615 13.6823 78.2396 13.5833 78.2969C13.4896 78.3698 13.375 78.4479 13.2813 78.5208C13.1875 78.599 13.1094 78.6562 13.0156 78.7344C12.9219 78.8073 12.8229 78.9062 12.75 78.9792C12.6719 79.0573 12.5781 79.1302 12.5 79.2083C12.4063 79.2865 12.3333 79.3802 12.2552 79.474C12.2344 79.4948 12.2344 79.4948 12.2188 79.5156C12.7656 80.125 13.3177 80.7135 13.9063 81.3021C32.4688 99.8958 62.5313 99.8958 81.0938 81.3021Z" fill="white"/>
</svg>
